<?xml version="1.0" standalone="no"?>
<!DOCTYPE svg PUBLIC "-//W3C//DTD SVG 1.1//EN" "http://www.w3.org/Graphics/SVG/1.1/DTD/svg11.dtd" >
<svg>
<metadata>
Created by FontForge 20090914 at Mon Jul 10 12:51:31 2017
 By www-data
Copyright 1990-1993 Bitstream Inc.  All rights reserved.
</metadata>
<defs>
<font id="News701BT-RomanA" horiz-adv-x="1024" >
  <font-face 
    font-family="News701 BT"
    font-weight="400"
    font-stretch="normal"
    units-per-em="2048"
    panose-1="2 4 6 3 5 5 5 2 2 4"
    ascent="1638"
    descent="-410"
    x-height="1118"
    cap-height="1475"
    bbox="-342 -483 2609 1980"
    underline-thickness="133"
    underline-position="-122"
    unicode-range="U+0020-U+F002"
  />
<missing-glyph horiz-adv-x="1229" 
d="M102 -362v1806h1024v-1806h-1024zM217 -248h795v1577h-795v-1577z" />
    <glyph glyph-name=".notdef" horiz-adv-x="1229" 
d="M102 -362v1806h1024v-1806h-1024zM217 -248h795v1577h-795v-1577z" />
    <glyph glyph-name="space" unicode=" " horiz-adv-x="573" 
 />
    <glyph glyph-name="exclam" unicode="!" horiz-adv-x="682" 
d="M285 428l-67.998 918c0 3.33301 -0.333008 8 -1 14s-1 10.667 -1 14c0 44.667 10.167 78 30.5 100s51.166 33 92.499 33s72.166 -11 92.499 -33s30.5 -55.333 30.5 -100c0 -3.33301 -0.333008 -8 -1 -14s-1 -10.667 -1 -14l-68 -918h-106zM203.002 100
c0 38.667 13.333 71.667 40 99s59 41 97 41c38.667 0 71.5 -13.667 98.5 -41s40.5 -60.333 40.5 -99c0 -38 -13.667 -70.667 -41 -98s-60 -41 -98 -41s-70.333 13.667 -97 41s-40 60 -40 98z" />
    <glyph glyph-name="quotedbl" unicode="&#x22;" horiz-adv-x="686" 
d="M526 860l-34 0.000976562l-70 459c-0.666992 4.66699 -1.16699 9.5 -1.5 14.5s-0.5 12.5 -0.5 22.5c0 34 7.5 60.167 22.5 78.5s36.833 27.5 65.5 27.5c28 0 50 -9 66 -27s24 -43 24 -75c0 -10.667 -0.166992 -18.834 -0.5 -24.501s-0.833008 -11.167 -1.5 -16.5z
M195 860.001h-34.999l-70 459l-3 26c-0.666992 6 -1 11 -1 15c0 32 8 57 24 75s38 27 66 27c29.333 0 51.666 -9.16699 66.999 -27.5s23 -44.5 23 -78.5c0 -10.667 -0.166992 -18.5 -0.5 -23.5s-0.833008 -9.83301 -1.5 -14.5z" />
    <glyph glyph-name="numbersign" unicode="#" horiz-adv-x="1575" 
d="M702 864l-98 -276h283l96 276h-281zM760 1458h155l-161 -454h276l162 454h156l-162 -454h301l-49 -140h-301l-97 -276h320l-49 -139h-320l-162 -453h-155l162 453h-279l-162 -453h-153l159 453h-313l51 139h312l98 276h-336l51 140h334z" />
    <glyph glyph-name="dollar" unicode="$" horiz-adv-x="1147" 
d="M598 137c84 8 148.333 32.333 193 73s67 95 67 163c0 56 -18.667 102.667 -56 140s-105.333 75.333 -204 114v-490zM494 905v427.998c-67.333 -7.33301 -119.333 -28.5 -156 -63.5s-55 -79.833 -55 -134.5c0 -55.333 16.667 -101.166 50 -137.499s87 -67.166 161 -92.499
zM598 13.998v-295.001h-104v295c-134 8 -241 39.833 -321 95.5s-120 124.834 -120 207.501c0 50.667 13.333 90.667 40 120s62.667 44 108 44c37.333 0 69.166 -12.167 95.499 -36.5s39.5 -55.166 39.5 -92.499c0 -24 -7.5 -49.5 -22.5 -76.5s-22.5 -43.833 -22.5 -50.5
c0 -22 19.167 -41.667 57.5 -59s86.5 -27 144.5 -29l1 531c-152 66 -256.667 128.333 -314 187s-86 129.334 -86 212.001c0 101.333 35.333 185.333 106 252s168.667 107.667 294 123v200h104v-196c125.333 -8 225.333 -39 300 -93s112 -122 112 -204
c0 -48.667 -12.5 -86.5 -37.5 -113.5s-59.833 -40.5 -104.5 -40.5c-40 0 -72.167 12 -96.5 36s-36.5 55.667 -36.5 95c0 22.667 7.16699 47.667 21.5 75s21.5 44.666 21.5 51.999c0 17.333 -16.667 34.166 -50 50.499s-76.666 27.5 -129.999 33.5v-469
c158 -55.333 273.667 -119.333 347 -192s110 -158.667 110 -258c0 -113.333 -42 -207.5 -126 -282.5s-194.333 -115.5 -331 -121.5z" />
    <glyph glyph-name="percent" unicode="%" horiz-adv-x="1878" 
d="M1712 532c0 56.667 -12.667 102.001 -38 136.001s-58.333 51 -99 51c-37.333 0 -77 -19.667 -119 -59s-81.667 -94 -119 -164c-28.667 -54.667 -51.167 -111 -67.5 -169s-24.5 -108.333 -24.5 -151s11.5 -75.834 34.5 -99.501s54.5 -35.5 94.5 -35.5
c81.333 0 158 52.333 230 157s108 216 108 334zM1782 524.001c0 -145.333 -45.5 -275.5 -136.5 -390.5s-193.833 -172.5 -308.5 -172.5c-81.333 0 -147.333 27.667 -198 83s-76 128 -76 218c0 136 48.833 259.5 146.5 370.5s204.5 166.5 320.5 166.5
c82 0 144.5 -23.5 187.5 -70.5s64.5 -115.167 64.5 -204.5zM737 1298c-28.667 16.667 -56.001 33.833 -82.001 51.5s-50.333 36.167 -73 55.5c-80 -38 -151 -114 -213 -228s-93 -220.333 -93 -319c0 -42 11.833 -75 35.5 -99s55.834 -36 96.501 -36
c80.667 0 156.667 52.5 228 157.5s107 216.167 107 333.5c0 10.667 -0.5 22.667 -1.5 36s-2.5 29.333 -4.5 48zM1341 1522h97l-875 -1579h-121l772 1392c-39.333 -28 -80.833 -49.667 -124.5 -65s-85.167 -23 -124.5 -23c-25.333 0 -50.5 2.33301 -75.5 7
s-51.167 12 -78.5 22c0 -4.66699 0.333008 -11.5 1 -20.5s1 -15.833 1 -20.5c0 -162 -44.833 -301.5 -134.5 -418.5s-193.5 -175.5 -311.5 -175.5c-82.667 0 -149.5 27.5 -200.5 82.5s-76.5 127.167 -76.5 216.5c0 134.667 48.833 257.834 146.5 369.501
s203.167 167.5 316.5 167.5c48 0 89.833 -8.5 125.5 -25.5s76.5 -48.833 122.5 -95.5c30.667 -12 58.5 -20.833 83.5 -26.5s48.833 -8.5 71.5 -8.5c68 0 136.167 17.667 204.5 53s128.5 84.666 180.5 147.999z" />
    <glyph glyph-name="ampersand" unicode="&#x26;" horiz-adv-x="1931" 
d="M1079 133c-81.333 -57.333 -163.165 -100.333 -245.498 -129s-166.166 -43 -251.499 -43c-146.667 0 -265.334 36.833 -356.001 110.5s-136 168.5 -136 284.5c0 91.333 23.667 168.333 71 231s159.666 142.667 336.999 240l57 31c-48 92.667 -78.833 160.167 -92.5 202.5
s-20.5 82.166 -20.5 119.499c0 96 32 175.167 96 237.5s146 93.5 246 93.5c86 0 156.333 -26.333 211 -79s82 -119.667 82 -201c0 -68.667 -24.333 -135.834 -73 -201.501s-119 -126.167 -211 -181.5c48 -78.667 102 -158 162 -238s126 -160.333 198 -241
c77.333 87.333 139.333 172.5 186 255.5s70 145.833 70 188.5c0 32.667 -16.333 56.334 -49 71.001s-87.334 23.334 -164.001 26.001v120h621v-123c-70.667 0 -120.334 -6.66699 -149.001 -20s-53.667 -38.666 -75 -75.999c-11.333 -20.667 -28.333 -54.334 -51 -101.001
c-93.333 -186.667 -189 -332 -287 -436c42.667 -40 81.167 -68.667 115.5 -86s69.166 -26 104.499 -26c62.667 0 114.334 25.167 155.001 75.5s74.334 130.833 101.001 241.5l118 -22c-18 -156.667 -64.167 -278.5 -138.5 -365.5s-168.833 -130.5 -283.5 -130.5
c-53.333 0 -104.833 11.833 -154.5 35.5s-114.167 69.167 -193.5 136.5zM727.001 954c67.333 45.333 118.332 91.168 152.999 137.501s52 92.166 52 137.499c0 44.667 -15.167 82.5 -45.5 113.5s-67.166 46.5 -110.499 46.5c-42 0 -77 -16 -105 -48s-42 -72 -42 -120
c0 -37.333 8 -78 24 -122s40.667 -92.333 74 -145zM610 735.002c-87.333 -48.667 -152.833 -101.332 -196.5 -157.999s-65.5 -118 -65.5 -184c0 -86.667 26.333 -155 79 -205s124.667 -75 216 -75c62 0 122 10.167 180 30.5s113.333 51.166 166 92.499
c-74 78 -142.5 158.333 -205.5 241s-120.833 168.667 -173.5 258z" />
    <glyph glyph-name="quotesingle" unicode="'" horiz-adv-x="352" 
d="M195 860h-35.001l-70 459c0 1.33301 -0.333008 4 -1 8c-2 13.333 -3 23 -3 29c0 33.333 7.83301 59.333 23.5 78s37.834 28 66.501 28c28 0 50 -9 66 -27s24 -43 24 -75c0 -4.66699 -0.166992 -9.66699 -0.5 -15s-1.5 -14.333 -3.5 -27z" />
    <glyph glyph-name="parenleft" unicode="(" horiz-adv-x="967" 
d="M858 1450c-120 -79.333 -208.666 -192.668 -265.999 -340.001s-86 -335 -86 -563c0 -210.667 28.667 -382.167 86 -514.5s146 -231.166 266 -296.499l-33 -53c-170.667 92 -300.334 213 -389.001 363s-133 323.667 -133 521c0 206 43.833 387.5 131.5 544.5
s217.167 286.167 388.5 387.5z" />
    <glyph glyph-name="parenright" unicode=")" horiz-adv-x="967" 
d="M111 1450l34 49.001c171.333 -101.333 301 -230.5 389 -387.5s132 -338.5 132 -544.5c0 -198 -44.167 -371.833 -132.5 -521.5s-218.5 -270.5 -390.5 -362.5l-32 53c119.333 66 207.833 165.333 265.5 298s86.5 303.667 86.5 513c0 228 -28.667 415.667 -86 563
s-146 260.666 -266 339.999z" />
    <glyph glyph-name="asterisk" unicode="*" 
d="M526 1059l-0.00195312 -6.00195c0 -56.667 13.667 -115.5 41 -176.5s41 -100.5 41 -118.5c0 -28 -9 -50.333 -27 -67s-41.667 -25 -71 -25c-30 0 -53.5 8.16699 -70.5 24.5s-25.5 38.833 -25.5 67.5c0 18.667 13.333 58 40 118s40 117 40 171v12
c-51.333 -30.667 -100.833 -78 -148.5 -142s-89.167 -96 -124.5 -96c-22 0 -42.833 11.667 -62.5 35s-29.5 48 -29.5 74c0 24.667 10.667 46.334 32 65.001s46.666 29 75.999 31c7.33301 0.666992 17.666 1.33398 30.999 2.00098c86.667 6 156.334 25.667 209.001 59
c-60.667 34.667 -130.667 54.334 -210 59.001c-9.33301 0 -16.666 0.333008 -21.999 1c-33.333 2.66699 -61 13.167 -83 31.5s-33 40.5 -33 66.5c0 27.333 9.33301 52 28 74s40 33 64 33c38 0 80.833 -33.167 128.5 -99.5s97.167 -113.833 148.5 -142.5v10
c0 56 -14 114.667 -42 176s-42 101 -42 119c0 28 9 50.333 27 67s41.667 25 71 25c30 0 53.833 -8.33301 71.5 -25s26.5 -39 26.5 -67c0 -19.333 -13.667 -58.833 -41 -118.5s-41 -116.5 -41 -170.5v-16c50.667 32 99.834 80 147.501 144s89.5 96 125.5 96
c22.667 0 44 -11.5 64 -34.5s30 -47.167 30 -72.5c0 -24.667 -10.667 -46.334 -32 -65.001s-46.666 -29 -75.999 -31c-6.66699 -0.666992 -16 -1.33398 -28 -2.00098c-92 -6.66699 -163.333 -27.334 -214 -62.001c60 -33.333 127.667 -52 203 -56
c10.667 0 18.667 -0.333008 24 -1c38.667 -3.33301 68.834 -13.666 90.501 -30.999s32.5 -39.666 32.5 -66.999s-9.66699 -52 -29 -74s-41 -33 -65 -33c-37.333 0 -79.333 32.833 -126 98.5s-96.334 112.167 -149.001 139.5z" />
    <glyph glyph-name="plus" unicode="+" horiz-adv-x="1706" 
d="M782 1221h142v-541h528v-139h-528v-541h-142v541h-528v139h528v541z" />
    <glyph glyph-name="comma" unicode="," horiz-adv-x="573" 
d="M309 -35c-10.667 -2 -20 -3.5 -28 -4.5s-15 -1.5 -21 -1.5c-40 0 -72.167 12 -96.5 36s-36.5 56.333 -36.5 97c0 41.333 13 74.833 39 100.5s60 38.5 102 38.5c50 0 89.833 -17 119.5 -51s44.5 -80.333 44.5 -139c0 -92.667 -30.5 -179 -91.5 -259
s-134.833 -129 -221.5 -147v84c58 24.667 102.167 56.5 132.5 95.5s49.5 89.167 57.5 150.5z" />
    <glyph glyph-name="hyphen" unicode="-" horiz-adv-x="778" 
d="M115 477v180h549v-180h-549z" />
    <glyph glyph-name="period" unicode="." horiz-adv-x="573" 
d="M147 100c0 38 13.833 70.833 41.5 98.5s60.5 41.5 98.5 41.5s70.333 -13.667 97 -41s40 -60.333 40 -99s-13.333 -71.5 -40 -98.5s-59 -40.5 -97 -40.5s-70.833 13.833 -98.5 41.5s-41.5 60.167 -41.5 97.5z" />
    <glyph glyph-name="slash" unicode="/" horiz-adv-x="573" 
d="M80 -190h-127l498 1697h127z" />
    <glyph glyph-name="zero" unicode="0" horiz-adv-x="1147" 
d="M1049 711c0 -246.667 -40.167 -433.333 -120.5 -560s-198.833 -190 -355.5 -190c-158 0 -276.333 64 -355 192s-118 322 -118 582c0 259.333 39.167 452.833 117.5 580.5s196.833 191.5 355.5 191.5c162 0 281.833 -64.833 359.5 -194.5s116.5 -330.167 116.5 -601.5z
M573 1384c-80.667 0 -138.667 -45.667 -174 -137s-53 -244.333 -53 -459c0 -277.333 17 -464 51 -560s92.667 -144 176 -144c82.667 0 141.334 47 176.001 141s52 264.667 52 512c0 244 -17.333 412.833 -52 506.5s-93.334 140.5 -176.001 140.5z" />
    <glyph glyph-name="one" unicode="1" horiz-adv-x="1147" 
d="M690 295v-6c0 -67.333 13.167 -111.833 39.5 -133.5s71.833 -32.5 136.5 -32.5h78v-123h-737v123h82c68 0 116 10.333 144 31s42 67.667 42 141v768c0 70 -13 116.167 -39 138.5s-71.667 33.5 -137 33.5h-80v117c90.667 11.333 163 28 217 50s96.333 51.667 127 89h127
v-1196z" />
    <glyph glyph-name="two" unicode="2" horiz-adv-x="1147" 
d="M86 0l-0.000976562 199.003l397 391c97.333 95.333 168.5 183.333 213.5 264s67.5 160.667 67.5 240c0 91.333 -25 163.333 -75 216s-118.667 79 -206 79c-56 0 -105.333 -12.333 -148 -37s-69.667 -56.334 -81 -95.001c58.667 -18.667 100.667 -42.667 126 -72
s38 -68 38 -116c0 -42 -13.833 -76.333 -41.5 -103s-63.834 -40 -108.501 -40c-54 0 -98.5 19.833 -133.5 59.5s-52.5 91.5 -52.5 155.5c0 106 42.333 193.5 127 262.5s194 103.5 328 103.5c139.333 0 253 -38 341 -114s132 -175 132 -297c0 -72 -18.667 -143.333 -56 -214
s-94.666 -143.334 -171.999 -218.001c-24 -24 -94.167 -86.833 -210.5 -188.5s-216.166 -193.834 -299.499 -276.501h416c54 0 93.667 7.66699 119 23s41 41 47 77l27 174h125l-17 -473h-903z" />
    <glyph glyph-name="three" unicode="3" horiz-adv-x="1147" 
d="M367 877l31.999 -0.000976562c104.667 0 183.834 22.667 237.501 68s80.5 112 80.5 200c0 80.667 -19.667 142.834 -59 186.501s-94.666 65.5 -165.999 65.5c-44.667 0 -86.667 -8.66699 -126 -26s-59 -32 -59 -44c0 -2.66699 13.667 -18.334 41 -47.001
s41 -60.667 41 -96c0 -38 -13.5 -69.667 -40.5 -95s-61.167 -38 -102.5 -38c-44 0 -79.667 15.333 -107 46s-41 70.667 -41 120c0 81.333 39 150 117 206s177 84 297 84c128 0 234.833 -35.333 320.5 -106s128.5 -158.667 128.5 -264
c0 -79.333 -26.333 -146.166 -79 -200.499s-132.334 -96.833 -239.001 -127.5c115.333 -26.667 204.333 -76 267 -148s94 -161.333 94 -268c0 -128 -45.5 -232 -136.5 -312s-209.5 -120 -355.5 -120c-122 0 -223.833 30.333 -305.5 91s-122.5 134.667 -122.5 222
c0 57.333 15.667 104.166 47 140.499s71.666 54.5 120.999 54.5c39.333 0 72 -12.833 98 -38.5s39 -57.834 39 -96.501c0 -46 -16.333 -85.167 -49 -117.5s-49 -49.166 -49 -50.499c0 -16.667 22.167 -34.167 66.5 -52.5s94.5 -27.5 150.5 -27.5
c78.667 0 140.667 26.833 186 80.5s68 127.834 68 222.501c0 116 -30.167 204.833 -90.5 266.5s-147.5 92.5 -261.5 92.5c-5.33301 0 -12.666 -0.5 -21.999 -1.5s-16.333 -1.5 -21 -1.5v132z" />
    <glyph glyph-name="four" unicode="4" horiz-adv-x="1147" 
d="M655 561v678l-491 -678h491zM1087 123v-123h-665v123h70c58.667 0 100.167 11 124.5 33s36.5 68.333 36.5 139v113h-612v180l666 919h147v-946h233v-153h-233v-123c0 -64 12.167 -107 36.5 -129s65.5 -33 123.5 -33h73z" />
    <glyph glyph-name="five" unicode="5" horiz-adv-x="1147" 
d="M145 688l78.002 787.003h688v-181h-585l-39 -397c46.667 45.333 94.667 78.166 144 98.499s104.333 30.5 165 30.5c130.667 0 237.667 -47 321 -141s125 -215 125 -363c0 -168.667 -47.333 -303.334 -142 -404.001s-221.334 -151 -380.001 -151
c-122.667 0 -224.667 29.5 -306 88.5s-122 132.5 -122 220.5c0 56 15.5 101.833 46.5 137.5s70.167 53.5 117.5 53.5c42 0 76 -12.833 102 -38.5s39 -59.834 39 -102.501c0 -43.333 -16.333 -80.5 -49 -111.5s-49 -47.833 -49 -50.5c0 -18 20.167 -36.167 60.5 -54.5
s87.166 -27.5 140.499 -27.5c93.333 0 166.5 37 219.5 111s79.5 176.333 79.5 307c0 125.333 -23.833 220.5 -71.5 285.5s-117.5 97.5 -209.5 97.5c-54 0 -104.333 -17.5 -151 -52.5s-83 -82.5 -109 -142.5h-113z" />
    <glyph glyph-name="six" unicode="6" horiz-adv-x="1147" 
d="M358 821c36.667 44 78.6631 76.834 125.996 98.501s100.333 32.5 159 32.5c118.667 0 216 -45.333 292 -136s114 -207.667 114 -351c0 -150 -41.667 -271.5 -125 -364.5s-190.666 -139.5 -321.999 -139.5c-154.667 0 -276.667 60.667 -366 182s-134 288 -134 500
c0 254.667 53.333 462.667 160 624s243.334 242 410.001 242c94.667 0 174.667 -26.667 240 -80s98 -116.666 98 -189.999c0 -54 -13.667 -96.833 -41 -128.5s-63.666 -47.5 -108.999 -47.5c-44 0 -78.833 11.833 -104.5 35.5s-38.5 55.5 -38.5 95.5
c0 33.333 11.167 62.166 33.5 86.499s33.5 39.166 33.5 44.499c0 14.667 -14 30 -42 46s-59 24 -93 24c-87.333 0 -157.666 -51 -210.999 -153s-80 -239.667 -80 -413v-8zM577.996 88.001c75.333 0 132.333 31.5 171 94.5s58 155.833 58 278.5
c0 121.333 -20.167 213.333 -60.5 276s-99.5 94 -177.5 94c-76.667 0 -133.667 -28.833 -171 -86.5s-56 -146.167 -56 -265.5c0 -126.667 20.167 -223.5 60.5 -290.5s98.833 -100.5 175.5 -100.5z" />
    <glyph glyph-name="seven" unicode="7" horiz-adv-x="1147" 
d="M119 913l18 594.002h127c12 -12 24.167 -20.333 36.5 -25s27.5 -7 45.5 -7h703v-162c-92.667 -144.667 -163.334 -288.834 -212.001 -432.501s-73 -279.5 -73 -407.5c0 -42.667 2.66699 -97.834 8 -165.501s8 -113.5 8 -137.5c0 -72.667 -11.667 -125.667 -35 -159
s-60.666 -50 -111.999 -50c-52 0 -90 16.5 -114 49.5s-36 85.5 -36 157.5c0 122 34.5 279.5 103.5 472.5s167.167 404.833 294.5 635.5h-424c-72.667 0 -123.667 -15.667 -153 -47s-47.333 -86 -54 -164l-12 -152h-119z" />
    <glyph glyph-name="eight" unicode="8" horiz-adv-x="1147" 
d="M408 784c-92.667 35.333 -161 80.668 -205 136.001s-66 123.333 -66 204c0 118 39.333 211.333 118 280s185.334 103 320.001 103c133.333 0 239.166 -34.5 317.499 -103.5s117.5 -162.167 117.5 -279.5c0 -81.333 -21.833 -149.5 -65.5 -204.5
s-111.5 -100.167 -203.5 -135.5c108.667 -45.333 189.167 -101.333 241.5 -168s78.5 -146.334 78.5 -239.001c0 -128.667 -43.667 -230.167 -131 -304.5s-206.333 -111.5 -357 -111.5c-150 0 -268.667 37.167 -356 111.5s-131 175.833 -131 304.5
c0 92 26.333 171.5 79 238.5s133.667 123.167 243 168.5zM575 84.002c78 0 137.5 26.499 178.5 79.499s61.5 129.5 61.5 229.5c0 100.667 -20.5 177.334 -61.5 230.001s-100.5 79 -178.5 79s-137.667 -26.5 -179 -79.5s-62 -129.5 -62 -229.5s20.667 -176.5 62 -229.5
s101 -79.5 179 -79.5zM575 852.001c63.333 0 111.668 22.833 145.001 68.5s50 111.5 50 197.5c0 86.667 -16.833 153 -50.5 199s-81.834 69 -144.501 69c-63.333 0 -111.833 -23 -145.5 -69s-50.5 -112.333 -50.5 -199s16.667 -152.667 50 -198s82 -68 146 -68z" />
    <glyph glyph-name="nine" unicode="9" horiz-adv-x="1147" 
d="M569 1382c-76 0 -133.833 -31.832 -173.5 -95.499s-59.5 -155.834 -59.5 -276.501s20.667 -212.667 62 -276s101.333 -95 180 -95c77.333 0 134.833 28.833 172.5 86.5s56.5 146.167 56.5 265.5c0 126 -20.5 222.667 -61.5 290s-99.833 101 -176.5 101zM780 647.001
c-36.667 -43.333 -78.6689 -75.665 -126.002 -96.998s-100 -32 -158 -32c-118.667 0 -216 45.5 -292 136.5s-114 208.167 -114 351.5c0 149.333 41.5 270.166 124.5 362.499s190.5 138.5 322.5 138.5c154.667 0 276.834 -60.667 366.501 -182s134.5 -288 134.5 -500
c0 -254 -53.333 -461.5 -160 -622.5s-243 -241.5 -409 -241.5c-94.667 0 -174.667 26.333 -240 79s-98 115.667 -98 189c0 53.333 13.833 96.166 41.5 128.499s63.834 48.5 108.501 48.5c42.667 0 77.167 -12 103.5 -36s39.5 -55.333 39.5 -94
c0 -32 -11.333 -60.333 -34 -85s-34 -40 -34 -46c0 -14 13.833 -29 41.5 -45s58.167 -24 91.5 -24c88 0 158.5 51 211.5 153s79.5 239.333 79.5 412v6z" />
    <glyph glyph-name="colon" unicode=":" horiz-adv-x="621" 
d="M172 981c0 38 13.333 70.333 40 97s59 40 97 40c38.667 0 71.667 -13.333 99 -40s41 -59 41 -97c0 -38.667 -13.667 -71.5 -41 -98.5s-60.333 -40.5 -99 -40.5c-37.333 0 -69.5 13.667 -96.5 41s-40.5 60 -40.5 98zM172 100c0 38.667 13.5 71.667 40.5 99
s59.167 41 96.5 41c38.667 0 71.667 -13.667 99 -41s41 -60.333 41 -99c0 -38 -13.667 -70.667 -41 -98s-60.333 -41 -99 -41c-37.333 0 -69.5 13.667 -96.5 41s-40.5 60 -40.5 98z" />
    <glyph glyph-name="semicolon" unicode=";" horiz-adv-x="621" 
d="M356 -35c-10.667 -2 -19.999 -3.5 -27.999 -4.5s-15 -1.5 -21 -1.5c-40 0 -72.167 12 -96.5 36s-36.5 56.333 -36.5 97c0 41.333 13.167 74.833 39.5 100.5s60.166 38.5 101.499 38.5c50 0 89.833 -17 119.5 -51s44.5 -80.333 44.5 -139c0 -92.667 -30.5 -179 -91.5 -259
s-134.833 -129 -221.5 -147v84c58 24.667 102.167 56.5 132.5 95.5s49.5 89.167 57.5 150.5zM178.001 981c0 38 13.667 70.333 41 97s60 40 98 40c38.667 0 71.334 -13.333 98.001 -40s40 -59 40 -97c0 -38.667 -13.333 -71.5 -40 -98.5s-59.334 -40.5 -98.001 -40.5
c-37.333 0 -69.833 13.667 -97.5 41s-41.5 60 -41.5 98z" />
    <glyph glyph-name="less" unicode="&#x3c;" horiz-adv-x="1706" 
d="M1442 1159v-153l-969 -396l969 -393v-154l-1178 484v129z" />
    <glyph glyph-name="equal" unicode="=" horiz-adv-x="1706" 
d="M254 481h1198v-139h-1198v139zM254 879h1198v-140h-1198v140z" />
    <glyph glyph-name="greater" unicode="&#x3e;" horiz-adv-x="1706" 
d="M264 1159l1178 -483v-129l-1178 -484v154l971 393l-971 396v153z" />
    <glyph glyph-name="question" unicode="?" horiz-adv-x="1147" 
d="M553 578v-199.001h-113v305c116 4 197.667 33.833 245 89.5s71 150.834 71 285.501c0 107.333 -19.167 189.833 -57.5 247.5s-92.833 86.5 -163.5 86.5c-56.667 0 -106.834 -16.333 -150.501 -49s-65.5 -63 -65.5 -91c0 -3.33301 14 -19 42 -47s42 -63.333 42 -106
c0 -33.333 -11.167 -60.5 -33.5 -81.5s-51.166 -31.5 -86.499 -31.5c-40.667 0 -73 14.333 -97 43s-36 67 -36 115c0 104 37.333 190.333 112 259s170.334 103 287.001 103c125.333 0 226.333 -40.833 303 -122.5s115 -190.167 115 -325.5
c0 -142 -34.333 -252.833 -103 -332.5s-172.334 -129.167 -311.001 -148.5zM354 99.999c0 38 13.833 70.833 41.5 98.5s60.5 41.5 98.5 41.5s70.333 -13.667 97 -41s40 -60.333 40 -99c0 -38 -13.333 -70.667 -40 -98s-59 -41 -97 -41s-70.833 13.833 -98.5 41.5
s-41.5 60.167 -41.5 97.5z" />
    <glyph glyph-name="at" unicode="@" horiz-adv-x="2019" 
d="M1186 332c-41.333 -70 -87.332 -121.998 -137.999 -155.998s-107 -51 -169 -51c-86 0 -154.667 30.667 -206 92s-77 143.333 -77 246c0 72.667 16.5 144.667 49.5 216s79.833 136.333 140.5 195c45.333 43.333 94 76.5 146 99.5s103.667 34.5 155 34.5
c60 0 108.667 -16.167 146 -48.5s62.666 -79.833 75.999 -142.5l51 174h158l-172 -612l-4 -12c-10 -37.333 -15 -66 -15 -86c0 -34 7.83301 -60.333 23.5 -79s37.834 -28 66.501 -28c22 0 48.833 6.66699 80.5 20s61.5 30.666 89.5 51.999
c79.333 60 139.166 136.167 179.499 228.5s60.5 198.5 60.5 318.5c0 88.667 -17.5 170.334 -52.5 245.001s-87.167 141.667 -156.5 201c-60 51.333 -131.333 90.833 -214 118.5s-171.667 41.5 -267 41.5c-120 0 -231.833 -20.5 -335.5 -61.5s-195.5 -101.167 -275.5 -180.5
c-84 -82.667 -147.333 -178.334 -190 -287.001s-64 -228 -64 -358c0 -121.333 19 -225.666 57 -312.999s97.667 -165.333 179 -234c72.667 -61.333 157.334 -108.333 254.001 -141s199 -49 307 -49c113.333 0 222.333 17.167 327 51.5s204.667 86.166 300 155.499l33 -41
c-98 -73.333 -202.167 -128.666 -312.5 -165.999s-225.5 -56 -345.5 -56c-126 0 -241.167 15.167 -345.5 45.5s-195.833 75.5 -274.5 135.5c-100.667 75.333 -177.5 167.5 -230.5 276.5s-79.5 229.167 -79.5 360.5c0 135.333 28.833 262.166 86.5 380.499
s141.5 222.833 251.5 313.5c89.333 74 187.5 129.667 294.5 167s221.167 56 342.5 56c230.667 0 415.667 -62.833 555 -188.5s209 -292.167 209 -499.5c0 -106 -19.5 -205.333 -58.5 -298s-94.5 -171.667 -166.5 -237c-39.333 -34.667 -81.333 -61.334 -126 -80.001
s-89.334 -28 -134.001 -28c-64 0 -113.667 17.667 -149 53s-55.333 87.333 -60 156zM1104 961.002c-36 0 -68.8301 -10.168 -98.4971 -30.501s-59.834 -53.5 -90.501 -99.5c-47.333 -71.333 -85 -149.166 -113 -233.499s-42 -160.5 -42 -228.5
c0 -57.333 13.167 -103.5 39.5 -138.5s60.166 -52.5 101.499 -52.5c43.333 0 84.166 14.5 122.499 43.5s75.5 73.167 111.5 132.5c36.667 62 66.167 130 88.5 204s33.5 140 33.5 198c0 61.333 -14 110.833 -42 148.5s-65 56.5 -111 56.5z" />
    <glyph glyph-name="A" unicode="A" horiz-adv-x="1651" 
d="M535 668h499l-241 635zM18 0l0.000976562 141c4 0 9.16699 -0.333008 15.5 -1s10.833 -1 13.5 -1c44.667 0 80.5 11.833 107.5 35.5s59.5 80.834 97.5 171.501l469 1129h244l446 -1164c1.33301 -2.66699 2.66602 -6 3.99902 -10c41.333 -106.667 106.333 -160 195 -160
h20l6 -141h-655v141h88c40.667 0 71 6.83301 91 20.5s30 34.167 30 61.5c0 12 -1.66699 26.333 -5 43s-8 31.667 -14 45l-81 215h-611l-88 -219c-6 -14.667 -10.833 -30.334 -14.5 -47.001s-5.5 -31 -5.5 -43c0 -24 10 -42.667 30 -56s48 -20 84 -20h99v-141h-566z" />
    <glyph glyph-name="B" unicode="B" horiz-adv-x="1673" 
d="M559 1161v-323h303c114 0 200.167 20.5 258.5 61.5s87.5 101.5 87.5 181.5c0 87.333 -30.667 151.833 -92 193.5s-156.333 62.5 -285 62.5c-126 0 -202.833 -11.167 -230.5 -33.5s-41.5 -69.833 -41.5 -142.5zM559 700l-0.000976562 -368c0 -82 14.333 -134.333 43 -157
s103 -34 223 -34c152.667 0 266.334 23.667 341.001 71s112 119.333 112 216s-36.333 166.167 -109 208.5s-194.667 63.5 -366 63.5h-244zM73.999 0l-0.000976562 141.002h73c68 0 115.167 12.833 141.5 38.5s39.5 76.5 39.5 152.5v811c0 75.333 -12.167 125.5 -36.5 150.5
s-75.166 37.5 -152.499 37.5h-65v144h821c192.667 0 339.834 -31.833 441.501 -95.5s152.5 -155.5 152.5 -275.5c0 -84 -28.333 -153.833 -85 -209.5s-139.667 -95.834 -249 -120.501c135.333 -25.333 236.833 -69.333 304.5 -132s101.5 -143.667 101.5 -243
c0 -78.667 -19 -146 -57 -202s-95 -100.667 -171 -134c-52.667 -22.667 -116.334 -38.834 -191.001 -48.501s-192.667 -14.5 -354 -14.5h-714z" />
    <glyph glyph-name="C" unicode="C" horiz-adv-x="1602" 
d="M1520 518c-60 -184 -145.334 -322.833 -256.001 -416.5s-246 -140.5 -406 -140.5c-215.333 0 -391.666 72.5 -528.999 217.5s-206 330.5 -206 556.5c0 219.333 67.667 402.833 203 550.5s301.666 221.5 498.999 221.5c105.333 0 205 -21.5 299 -64.5
s143.333 -64.5 148 -64.5c22.667 0 41.334 9.33301 56.001 28s24.667 45.667 30 81h127l18 -604h-123c-44 155.333 -109.5 274.666 -196.5 357.999s-189.167 125 -306.5 125c-137.333 0 -248.5 -58 -333.5 -174s-127.5 -268.333 -127.5 -457
c0 -195.333 41.833 -349.666 125.5 -462.999s197.5 -170 341.5 -170c114 0 212.167 38.5 294.5 115.5s152.833 196.167 211.5 357.5z" />
    <glyph glyph-name="D" unicode="D" horiz-adv-x="1794" 
d="M78 141l82.0029 -0.00195312c61.333 0 104.666 13.167 129.999 39.5s38 76.833 38 151.5v811c0 74 -11.5 123.833 -34.5 149.5s-67.5 38.5 -133.5 38.5h-82v144h729c125.333 0 229.166 -8.66699 311.499 -26s155.166 -45 218.499 -83
c109.333 -64.667 194 -152.167 254 -262.5s90 -233.166 90 -368.499c0 -138.667 -29.667 -263.5 -89 -374.5s-142.333 -197.167 -249 -258.5c-61.333 -35.333 -136 -61.166 -224 -77.499s-199 -24.5 -333 -24.5h-708v141zM561.003 1143l0.000976562 -811.001
c0 -84.667 16.5 -139 49.5 -163s99.833 -36 200.5 -36c192.667 0 336 49.5 430 148.5s141 250.167 141 453.5c0 204 -45.833 356 -137.5 456s-230.834 150 -417.501 150c-110 0 -181.833 -11.667 -215.5 -35s-50.5 -77.666 -50.5 -162.999z" />
    <glyph glyph-name="E" unicode="E" horiz-adv-x="1597" 
d="M559 332c0 -77.333 12.832 -128.501 38.499 -153.501s75.834 -37.5 150.501 -37.5h296c99.333 0 165 12.667 197 38s50.333 86.333 55 183l9 183h155v-545h-1386v141h82c63.333 0 107.833 13.333 133.5 40s38.5 77 38.5 151v811c0 74 -12 123.833 -36 149.5
s-69.333 38.5 -136 38.5h-82v144h1362v-533h-148l-10 170c-6 98 -24.833 159 -56.5 183s-96.167 36 -193.5 36h-270c-80 0 -133.167 -12 -159.5 -36s-39.5 -74.667 -39.5 -152v-303h148c69.333 0 117.833 9.83301 145.5 29.5s45.167 64.834 52.5 135.501v109h131v-686h-131
v102c-8 72.667 -26 118.5 -54 137.5s-76 28.5 -144 28.5h-148v-364z" />
    <glyph glyph-name="F" unicode="F" horiz-adv-x="1495" 
d="M559 332l-0.000976562 -43c0 -52.667 14.333 -90.5 43 -113.5s77.334 -34.5 146.001 -34.5h104v-141h-778v141h82c63.333 0 107.833 13.333 133.5 40s38.5 77 38.5 151v811c0 74 -11.833 123.833 -35.5 149.5s-69.167 38.5 -136.5 38.5h-82v144h1345v-580h-149l-10 221
c-4.66699 96 -23 155.833 -55 179.5s-97 35.5 -195 35.5h-252c-80.667 0 -134 -12.167 -160 -36.5s-39 -74.833 -39 -151.5v-303h133c70 0 118.667 9.83301 146 29.5s43 65.167 47 136.5l4 114h131v-686h-131l-4 96c-4 71.333 -19.667 116.833 -47 136.5s-76 29.5 -146 29.5
h-133v-364z" />
    <glyph glyph-name="G" unicode="G" horiz-adv-x="1886" 
d="M1407 178c-62.667 -69.333 -139.834 -122.835 -231.501 -160.502s-189.834 -56.5 -294.501 -56.5c-225.333 0 -408 71.167 -548 213.5s-210 329.166 -210 560.499c0 116.667 19.167 222.334 57.5 317.001s95.5 178.334 171.5 251.001c68.667 64 149 114 241 150
s185.667 54 281 54c111.333 0 222.833 -23.5 334.5 -70.5s168.167 -70.5 169.5 -70.5c18.667 0 33.167 9.5 43.5 28.5s18.5 51.167 24.5 96.5h127l-2 -545h-119c-42.667 131.333 -111.667 233.5 -207 306.5s-206.666 109.5 -333.999 109.5
c-157.333 0 -280.166 -55.167 -368.499 -165.5s-132.5 -264.166 -132.5 -461.499c0 -196 44.167 -350.167 132.5 -462.5s208.5 -168.5 360.5 -168.5c141.333 0 254.833 34.833 340.5 104.5s128.5 162.5 128.5 278.5c0 66 -13.5 111.667 -40.5 137s-79.5 38 -157.5 38h-76
v143h731v-143c-102 -4 -166.833 -18.833 -194.5 -44.5s-41.5 -77.167 -41.5 -154.5v-463h-114z" />
    <glyph glyph-name="H" unicode="H" horiz-adv-x="1831" 
d="M559 332c0 -74.667 12.334 -125.167 37.001 -151.5s69.667 -39.5 135 -39.5h82v-141h-739v141h82c63.333 0 107.833 13.167 133.5 39.5s38.5 76.833 38.5 151.5v811c0 74 -12.167 123.833 -36.5 149.5s-69.5 38.5 -135.5 38.5h-82v144h739v-144h-86
c-62.667 0 -106.334 -12.833 -131.001 -38.5s-37 -75.5 -37 -149.5v-305h711v305c0 74 -12.5 123.833 -37.5 149.5s-69.167 38.5 -132.5 38.5h-84v144h741v-144h-84c-64.667 0 -109.167 -12.667 -133.5 -38s-36.5 -75.333 -36.5 -150v-811c0 -76 12.333 -126.833 37 -152.5
s69 -38.5 133 -38.5h84v-141h-741v141h84c62.667 0 106.667 13 132 39s38 76.667 38 152v364h-711v-364z" />
    <glyph glyph-name="I" unicode="I" horiz-adv-x="887" 
d="M74 1475l739 0.000976562v-144h-82c-65.333 0 -110.333 -12.667 -135 -38s-37 -75.333 -37 -150v-811c0 -74.667 12.333 -125.167 37 -151.5s69.667 -39.5 135 -39.5h82v-141h-739v141h82c65.333 0 110.333 13.167 135 39.5s37 80.166 37 161.499v801
c0 74 -12.167 123.833 -36.5 149.5s-69.5 38.5 -135.5 38.5h-82v144z" />
    <glyph glyph-name="J" unicode="J" horiz-adv-x="1186" 
d="M655 1143c0 74.667 -11.833 124.667 -35.5 150s-68.5 38 -134.5 38h-79v144h737v-144h-86c-63.333 0 -107.166 -12.833 -131.499 -38.5s-36.5 -75.5 -36.5 -149.5v-651c0 -94 -4.33301 -164.167 -13 -210.5s-22.667 -86.833 -42 -121.5
c-34.667 -62 -86.334 -110.667 -155.001 -146s-146.334 -53 -233.001 -53c-109.333 0 -199.666 32.667 -270.999 98s-107 148 -107 248c0 64 17.167 115.5 51.5 154.5s78.5 58.5 132.5 58.5c44 0 79.833 -13.333 107.5 -40s41.5 -61 41.5 -103
c0 -33.333 -10.333 -62.5 -31 -87.5s-55.334 -49.833 -104.001 -74.5c6.66699 -36.667 25.167 -65 55.5 -85s70.5 -30 120.5 -30c70.667 0 123.834 22.833 159.501 68.5s53.5 113.167 53.5 202.5v772z" />
    <glyph glyph-name="K" unicode="K" horiz-adv-x="1831" 
d="M1737 1475l0.000976562 -144c-51.333 0 -111.833 -15.833 -181.5 -47.5s-141.834 -76.5 -216.501 -134.5l-348 -275l498 -577c51.333 -59.333 98 -100.166 140 -122.499s91 -33.5 147 -33.5h26v-141h-803v141c6.66699 0 15.5 -0.333008 26.5 -1s18.833 -1 23.5 -1
c60.667 0 106.834 7 138.501 21s47.5 34.333 47.5 61c0 11.333 -3.5 24 -10.5 38s-17.167 28 -30.5 42l-391 434l-244 -188v-215c0 -76.667 12.667 -127.667 38 -153s76.333 -38 153 -38h63v-141h-739v141h82c63.333 0 107.833 13.333 133.5 40s38.5 77 38.5 151v811
c0 73.333 -11.833 123 -35.5 149s-69.167 39 -136.5 39h-82v144h739v-144h-88c-62 0 -105.167 -12.833 -129.5 -38.5s-36.5 -75.5 -36.5 -149.5v-414l535 424c31.333 25.333 56.166 49.333 74.499 72s27.5 41 27.5 55c0 19.333 -9.83301 32.666 -29.5 39.999
s-57.5 11 -113.5 11h-54v144h738z" />
    <glyph glyph-name="L" unicode="L" horiz-adv-x="1489" 
d="M559 332c0 -77.333 12.835 -128.5 38.502 -153.5s75.834 -37.5 150.501 -37.5h241c116.667 0 191.167 13.333 223.5 40s52.166 90 59.499 190l14 215h152v-586h-1364v141h82c63.333 0 107.833 13.333 133.5 40s38.5 77 38.5 151v811c0 75.333 -11.833 125.5 -35.5 150.5
s-74.834 37.5 -153.501 37.5h-65v144h757v-144h-92c-72.667 0 -120.834 -12.667 -144.501 -38s-35.5 -75.333 -35.5 -150v-811z" />
    <glyph glyph-name="M" unicode="M" horiz-adv-x="2105" 
d="M55 0l-0.000976562 142.998h88c64 0 108.333 12.833 133 38.5s37 75.167 37 148.5v813c0 76.667 -11.667 127.167 -35 151.5s-68.333 36.5 -135 36.5h-88v144h580l420 -1158l397 1158h569v-144h-94c-63.333 0 -106.166 -12.167 -128.499 -36.5
s-33.5 -74.833 -33.5 -151.5v-811c0 -77.333 11.167 -128.166 33.5 -152.499s66.5 -36.5 132.5 -36.5h90v-143h-708v143c95.333 0 157 12.333 185 37s42 75.334 42 152.001v1022l-467 -1354h-135l-483 1354v-1024c0 -76.667 13.167 -127 39.5 -151s80.5 -36 162.5 -36h15
v-143h-617z" />
    <glyph glyph-name="N" unicode="N" horiz-adv-x="1749" 
d="M471 1219v-895c0 -77.333 10.5 -126.833 31.5 -148.5s69.167 -32.5 144.5 -32.5h49v-143h-639v143h90c65.333 0 109.333 11.5 132 34.5s34 74.5 34 154.5v770c0 99.333 -10.333 162.333 -31 189s-66.334 40 -137.001 40h-88v144h498l735 -1108v776
c0 82 -10.333 133.833 -31 155.5s-69 32.5 -145 32.5h-72v144h662v-144h-94c-63.333 0 -106.166 -11.667 -128.499 -35s-33.5 -74.333 -33.5 -153v-1143h-166z" />
    <glyph glyph-name="O" unicode="O" horiz-adv-x="1835" 
d="M123 741c0 225.333 74.167 409.335 222.5 552.002s339.166 214 572.499 214c234 0 424.833 -71.5 572.5 -214.5s221.5 -328.833 221.5 -557.5s-73.833 -414.834 -221.5 -558.501s-338.5 -215.5 -572.5 -215.5c-235.333 0 -426.666 72.167 -573.999 216.5
s-221 332.166 -221 563.499zM920 1366c-156 0 -279.001 -56.167 -369.001 -168.5s-135 -266.5 -135 -462.5s44.833 -350.167 134.5 -462.5s212.834 -168.5 369.501 -168.5c156 0 277.833 55.333 365.5 166s131.5 265.667 131.5 465s-43.833 354.333 -131.5 465
s-209.5 166 -365.5 166z" />
    <glyph glyph-name="P" unicode="P" horiz-adv-x="1507" 
d="M559 1141l-0.00195312 -360.998h307c114.667 0 201.834 23.167 261.501 69.5s89.5 114.166 89.5 203.499c0 96.667 -30.333 167.5 -91 212.5s-156.667 67.5 -288 67.5c-133.333 0 -213.166 -12.333 -239.499 -37s-39.5 -76.334 -39.5 -155.001zM917.998 1475
c184.667 0 325.667 -36.667 423 -110s146 -179.333 146 -318c0 -86.667 -22 -161.5 -66 -224.5s-106.667 -109.833 -188 -140.5c-39.333 -14.667 -91 -25.167 -155 -31.5s-156.333 -9.5 -277 -9.5h-242v-352c0 -50.667 14.667 -88 44 -112s74.666 -36 135.999 -36h74v-141
h-739v141h73c68 0 115.167 12.833 141.5 38.5s39.5 76.5 39.5 152.5v811c0 74.667 -11.667 124.667 -35 150s-74.666 38 -153.999 38h-65v144h844z" />
    <glyph glyph-name="Q" unicode="Q" horiz-adv-x="1835" 
d="M1085 -25c-50 -5.33301 -88.833 -9 -116.5 -11s-51.5 -3 -71.5 -3c-222.667 0 -407.334 72.833 -554.001 218.5s-220 330.834 -220 555.501c0 228.667 73.833 414.5 221.5 557.5s338.834 214.5 573.501 214.5c234 0 424.833 -71.5 572.5 -214.5
s221.5 -328.833 221.5 -557.5c0 -156.667 -35 -293.334 -105 -410.001s-170.667 -206 -302 -268c13.333 -76 33.333 -132.5 60 -169.5s60.334 -55.5 101.001 -55.5c40 0 71.833 15.5 95.5 46.5s35.5 72.167 35.5 123.5v12h115v-30c0 -112.667 -25.333 -198.5 -76 -257.5
s-124.334 -88.5 -221.001 -88.5c-95.333 0 -168.333 25.833 -219 77.5s-87.667 138.167 -111 259.5zM1247 213c57.333 56.667 100.001 128.503 128.001 215.503s42 189.167 42 306.5c0 199.333 -43.833 354.333 -131.5 465s-209.5 166 -365.5 166
c-156.667 0 -279.834 -56 -369.501 -168s-134.5 -266.333 -134.5 -463c0 -112.667 13.5 -210.334 40.5 -293.001s68.833 -154.334 125.5 -215.001c-6.66699 15.333 -11.5 30.166 -14.5 44.499s-4.5 28.833 -4.5 43.5c0 82 26.833 148 80.5 198s125.167 75 214.5 75
c94 0 172.167 -30 234.5 -90s113.833 -155 154.5 -285zM1059 117.003c-8 96.667 -34.501 175.668 -79.501 237.001s-97.167 92 -156.5 92c-49.333 0 -89 -15.333 -119 -46s-45 -71 -45 -121c0 -58.667 22.333 -104.834 67 -138.501s105.667 -50.5 183 -50.5
c20.667 0 42.834 2 66.501 6s51.5 11 83.5 21z" />
    <glyph glyph-name="R" unicode="R" horiz-adv-x="1731" 
d="M559 332c0 -76 13.1729 -126.833 39.5059 -152.5s73.166 -38.5 140.499 -38.5h74v-141h-739v141h73c68 0 115.167 12.833 141.5 38.5s39.5 76.5 39.5 152.5v811c0 75.333 -11.833 125.5 -35.5 150.5s-74.834 37.5 -153.501 37.5h-65v144h821
c202 0 354.833 -34.5 458.5 -103.5s155.5 -171.167 155.5 -306.5c0 -100 -38.333 -181.5 -115 -244.5s-189 -105.833 -337 -128.5c75.333 -28.667 131.166 -63.167 167.499 -103.5s62.5 -96.833 78.5 -169.5c2.66699 -13.333 7 -33.666 13 -60.999
c32 -148.667 76 -223 132 -223c39.333 0 69.666 22.667 90.999 68s34.666 115 39.999 209l115 -1c-1.33301 -154 -27.333 -267.5 -78 -340.5s-129.334 -109.5 -236.001 -109.5c-104.667 0 -181 28.667 -229 86s-78.667 172.666 -92 345.999
c-9.33301 122 -35.833 202 -79.5 240s-120.167 57 -229.5 57h-191v-358zM559.006 1155l-0.000976562 -328.001h315c132.667 0 227.334 18.833 284.001 56.5s85 98.834 85 183.501c0 92.667 -31.833 160.167 -95.5 202.5s-165.5 63.5 -305.5 63.5
c-128.667 0 -208 -11.333 -238 -34s-45 -70.667 -45 -144z" />
    <glyph glyph-name="S" unicode="S" horiz-adv-x="1475" 
d="M256 0l-123 0.000976562v647h141c36.667 -168 108 -300.5 214 -397.5s232.667 -145.5 380 -145.5c90.667 0 162.834 24.167 216.501 72.5s80.5 112.5 80.5 192.5c0 78 -26.833 138.333 -80.5 181s-175.5 84 -365.5 124c-212.667 44 -358 97.667 -436 161
s-117 152.333 -117 267c0 124.667 44.5 223.334 133.5 296.001s210.5 109 364.5 109c82 0 169.333 -18.333 262 -55s144.334 -55 155.001 -55c17.333 0 32 7.83301 44 23.5s18.667 36.167 20 61.5l133 1v-527h-133c-34.667 137.333 -91 240.333 -169 309
s-177.333 103 -298 103c-90.667 0 -163.167 -19.833 -217.5 -59.5s-81.5 -92.167 -81.5 -157.5c0 -110.667 132.333 -194.334 397 -251.001c27.333 -6 47.666 -10.333 60.999 -13c207.333 -46 349.333 -103.5 426 -172.5s115 -167.167 115 -294.5
c0 -134.667 -46.833 -244.834 -140.5 -330.501s-213.834 -128.5 -360.501 -128.5c-120.667 0 -239.5 29.333 -356.5 88s-177.833 88 -182.5 88c-23.333 0 -41.5 -10.667 -54.5 -32s-22.167 -56.333 -27.5 -105z" />
    <glyph glyph-name="T" unicode="T" horiz-adv-x="1602" 
d="M68 1475h1464l12 -533h-143l-12 152c-7.33301 86.667 -33 148.167 -77 184.5s-114.667 54.5 -212 54.5c-70.667 0 -118.667 -12.5 -144 -37.5s-38 -77.167 -38 -156.5l-3 -807c0 -77.333 12.833 -128.5 38.5 -153.5s75.834 -37.5 150.501 -37.5h104v-141h-817v141h121
c64 0 108.667 13.167 134 39.5s38 76.833 38 151.5v811c0 75.333 -13 125.833 -39 151.5s-74.333 38.5 -145 38.5c-97.333 0 -168 -18.167 -212 -54.5s-69.667 -97.833 -77 -184.5l-12 -152h-144z" />
    <glyph glyph-name="U" unicode="U" horiz-adv-x="1726" 
d="M49 1331v144.002h739v-144h-86c-63.333 0 -107 -13.167 -131 -39.5s-36 -78.5 -36 -156.5v-525c0 -167.333 29.333 -287.333 88 -360s153.334 -109 284.001 -109c127.333 0 220.333 37.333 279 112s88 193.667 88 357v525c0 82 -12.333 135.167 -37 159.5
s-68.334 36.5 -131.001 36.5h-84v144h668v-144h-84c-64 0 -108 -11.667 -132 -35s-36 -80 -36 -170v-516c0 -224.667 -48 -389.334 -144 -494.001s-245.333 -157 -448 -157c-90.667 0 -172 13.167 -244 39.5s-132 65.166 -180 116.499
c-42.667 45.333 -73.167 96.5 -91.5 153.5s-27.5 140.167 -27.5 249.5v76v541c0 78.667 -11.5 131 -34.5 157s-68.833 39 -137.5 39h-82z" />
    <glyph glyph-name="V" unicode="V" horiz-adv-x="1497" 
d="M1110 1180c5.33301 15.333 9.33398 30.501 12.001 45.501s4 27.167 4 36.5c0 24 -9 41.5 -27 52.5s-46.333 16.5 -85 16.5h-82v144h559v-143c-2.66699 0 -6 0.166992 -10 0.5s-9.66699 0.5 -17 0.5c-42.667 0 -80 -12.333 -112 -37s-55.333 -59.334 -70 -104.001
l-414 -1231h-215l-426 1202c-23.333 65.333 -49.666 110 -78.999 134s-71 36 -125 36c-4 0 -10.333 -0.333008 -19 -1s-15.334 -1 -20.001 -1v144h686v-144h-99c-34.667 0 -61.334 -7.83301 -80.001 -23.5s-28 -38.5 -28 -68.5c0 -16 1.5 -33 4.5 -51s6.16699 -31 9.5 -39
l320 -924z" />
    <glyph glyph-name="W" unicode="W" horiz-adv-x="2058" 
d="M1673 1198c1.33301 6 3.66699 14.334 7 25.001c6.66699 24.667 10 41 10 49c0 21.333 -8.16699 36.5 -24.5 45.5s-45.166 13.5 -86.499 13.5h-53v144h491v-144h-6c-52.667 0 -96 -16.167 -130 -48.5s-61.667 -83.833 -83 -154.5l-342 -1167h-125l-303 1014l-287 -1014
h-139l-371 1202c-17.333 56 -40.833 98 -70.5 126s-65.5 42 -107.5 42h-4v144h553v-143c-48.667 -2 -83 -10 -103 -24s-30 -37 -30 -69c0 -14 1.16699 -29.333 3.5 -46s5.16602 -31.334 8.49902 -44.001l228 -805l221 781c2 6 3.5 13.833 4.5 23.5s1.5 25.5 1.5 47.5
c0 46 -12.833 80.333 -38.5 103s-64.167 34 -115.5 34c-10 0 -17.833 -0.166992 -23.5 -0.5s-10.5 -0.833008 -14.5 -1.5l-1 144h631v-144c-68 0 -115.333 -7.83301 -142 -23.5s-40 -42.5 -40 -80.5c0 -21.333 6.66699 -56 20 -104l5 -18l217 -763z" />
    <glyph glyph-name="X" unicode="X" horiz-adv-x="1704" 
d="M371 1167c-48 54 -97.4951 95.166 -148.495 123.499s-101.167 42.5 -150.5 42.5c-10.667 0 -18.5 -0.166992 -23.5 -0.5s-9.5 -0.5 -13.5 -0.5v143h749v-144h-77c-38.667 0 -66.5 -3.83301 -83.5 -11.5s-25.5 -20.167 -25.5 -37.5s5.66699 -36 17 -56
s32.333 -46.333 63 -79l201 -223l188 213c21.333 24 37.666 45.5 48.999 64.5s17 34.167 17 45.5c0 24 -11.833 44 -35.5 60s-53.5 24 -89.5 24h-62v144h709v-144c-79.333 -5.33301 -145.833 -18.166 -199.5 -38.499s-97.834 -49.166 -132.501 -86.499l-358 -387l403 -479
c63.333 -74.667 119.166 -125.834 167.499 -153.501s105.166 -42.834 170.499 -45.501v-141h-795v141h136c42.667 0 73.334 4.16699 92.001 12.5s28 21.5 28 39.5c0 12.667 -3 25.834 -9 39.501s-15.333 28.167 -28 43.5l-307 373l-274 -317
c-22 -25.333 -37.5 -46 -46.5 -62s-13.5 -30.333 -13.5 -43c0 -26 10.667 -46.833 32 -62.5s50.333 -23.5 87 -23.5h121v-141h-719v141h19c59.333 0 116.666 16.833 171.999 50.5s122.666 95.5 201.999 185.5l332 375z" />
    <glyph glyph-name="Y" unicode="Y" horiz-adv-x="1575" 
d="M1135 1159c6 9.33301 11.1641 20.999 15.4971 34.999s6.5 26.333 6.5 37c0 30 -10.667 54.167 -32 72.5s-49.666 27.5 -84.999 27.5h-90v144h662v-144c-71.333 -6.66699 -132.666 -26.167 -183.999 -58.5s-98 -80.5 -140 -144.5l-373 -577v-223
c0 -74.667 14.167 -124.5 42.5 -149.5s79.833 -37.5 154.5 -37.5h121v-141h-866v141h120c74.667 0 126.167 12.667 154.5 38s42.5 76.333 42.5 153v231l-455 654c-26.667 38.667 -57 66.334 -91 83.001s-84.667 27 -152 31v144h737v-144h-92
c-39.333 0 -69.666 -7.16699 -90.999 -21.5s-32 -35.166 -32 -62.499c0 -12.667 2.83301 -25.834 8.5 -39.501s16.5 -32.5 32.5 -56.5l303 -440z" />
    <glyph glyph-name="Z" unicode="Z" horiz-adv-x="1485" 
d="M600 1331c-125.333 0 -207.168 -14.833 -245.501 -44.5s-61.5 -93.834 -69.5 -192.501l-13 -146h-131l19 527h1175v-144l-981 -1190h510c128.667 0 216.834 17.833 264.501 53.5s74.167 97.834 79.5 186.501l15 231h141v-612h-1249v186l929 1145h-444z" />
    <glyph glyph-name="bracketleft" unicode="[" horiz-adv-x="967" 
d="M487 -25c0 -76.667 7.83203 -123.333 23.499 -140s50.167 -25 103.5 -25h154v-84h-453v1749h453v-86h-158c-51.333 0 -84.666 -8.66699 -99.999 -26s-23 -64 -23 -140v-1248z" />
    <glyph glyph-name="backslash" unicode="\" horiz-adv-x="573" 
d="M621 -190h-127l-498 1697h127z" />
    <glyph glyph-name="bracketright" unicode="]" horiz-adv-x="967" 
d="M479 1223c0 76.667 -7.66699 123.499 -23 140.499s-50 25.5 -104 25.5h-153v86h452v-1749h-452v84h153c54 0 88.667 8.33301 104 25s23 63.334 23 140.001v1248z" />
    <glyph glyph-name="asciicircum" unicode="^" horiz-adv-x="2048" 
d="M926 1462h194l512 -565h-98l-512 420l-514 -420h-96z" />
    <glyph glyph-name="underscore" unicode="_" 
d="M0 -340h1024v-143h-1024v143z" />
    <glyph glyph-name="grave" unicode="`" 
d="M688 1264l-74 0.000976562l-301 182c-32 20 -54 37.167 -66 51.5s-18 30.5 -18 48.5c0 21.333 7.5 39.666 22.5 54.999s32.833 23 53.5 23c16 0 33.333 -5.33301 52 -16s37 -25.667 55 -45z" />
    <glyph glyph-name="a" unicode="a" horiz-adv-x="1223" 
d="M813 569c-148 -17.333 -264.165 -53.168 -348.498 -107.501s-126.5 -119.5 -126.5 -195.5c0 -46.667 13.667 -83.167 41 -109.5s65.666 -39.5 114.999 -39.5c101.333 0 180.166 33.5 236.499 100.5s84.5 161.167 84.5 282.5c0 18.667 -0.166992 32.834 -0.5 42.501
s-0.833008 18.5 -1.5 26.5zM829.002 163.998c-46.667 -63.333 -105.667 -112.332 -177 -146.999s-148.666 -52 -231.999 -52c-98 0 -175.5 23.5 -232.5 70.5s-85.5 110.833 -85.5 191.5c0 115.333 59.667 212 179 290s296.666 136.333 531.999 175v94
c0 82 -22.833 144.167 -68.5 186.5s-112.167 63.5 -199.5 63.5c-54.667 0 -103.667 -9.33301 -147 -28s-73.666 -43.334 -90.999 -74.001c7.33301 -8 18.666 -18 33.999 -30c33.333 -26 50 -57 50 -93c0 -36.667 -11.667 -65 -35 -85s-56.666 -30 -99.999 -30
c-40.667 0 -72.334 12.167 -95.001 36.5s-34 58.833 -34 103.5c0 96 40.5 172.5 121.5 229.5s192.167 85.5 333.5 85.5c59.333 0 115.666 -7.16699 168.999 -21.5s99.333 -34.5 138 -60.5c45.333 -30 77.166 -66.167 95.499 -108.5s27.5 -114.166 27.5 -215.499v-552
c0 -34.667 4.83301 -59.834 14.5 -75.501s25.167 -23.5 46.5 -23.5c17.333 0 31.5 6 42.5 18s18.833 29.333 23.5 52h84v-4c0 -58.667 -18 -105.5 -54 -140.5s-83.667 -52.5 -143 -52.5c-57.333 0 -102.666 16.667 -135.999 50s-53.666 82.333 -60.999 147z" />
    <glyph glyph-name="b" unicode="b" horiz-adv-x="1382" 
d="M748 1014c-96 0 -171.667 -39.667 -227 -119s-83 -188 -83 -326c0 -140.667 27.333 -250.167 82 -328.5s130.667 -117.5 228 -117.5c96.667 0 170.667 38.167 222 114.5s77 186.833 77 331.5c0 144 -25.833 254.167 -77.5 330.5s-125.5 114.5 -221.5 114.5zM225 1194
c0 82.667 -11.1699 135.999 -33.5029 159.999s-68.5 39.667 -138.5 47v110c60.667 0 121.667 2.16699 183 6.5s124 10.5 188 18.5v-580c52.667 67.333 108.834 116.666 168.501 147.999s127.167 47 202.5 47c145.333 0 262.833 -54.167 352.5 -162.5
s134.5 -251.5 134.5 -429.5c0 -177.333 -43.167 -320.666 -129.5 -429.999s-198.833 -164 -337.5 -164c-82 0 -156.167 19.833 -222.5 59.5s-125.166 99.834 -176.499 180.501l-99 -219h-100c0.666992 8.66699 1.33398 21 2.00098 37c4 96 6 163.333 6 202v969z" />
    <glyph glyph-name="c" unicode="c" horiz-adv-x="1143" 
d="M1077 326c-38.667 -119.333 -96.167 -209.001 -172.5 -269.001s-170.833 -90 -283.5 -90c-154.667 0 -280.167 54.667 -376.5 164s-144.5 252 -144.5 428c0 178 49 321.5 147 430.5s226 163.5 384 163.5c111.333 0 204 -30.333 278 -91s111 -134 111 -220
c0 -52.667 -14.5 -95.5 -43.5 -128.5s-66.5 -49.5 -112.5 -49.5c-44.667 0 -81 13.333 -109 40s-42 61.667 -42 105c0 36 17 73.667 51 113c12 14 20.667 24.667 26 32c-10 26 -28 45.833 -54 59.5s-58.333 20.5 -97 20.5c-96 0 -170.5 -41.333 -223.5 -124
s-79.5 -199.667 -79.5 -351c0 -155.333 25.333 -273 76 -353s125 -120 223 -120c78 0 146 23.833 204 71.5s102.667 116.834 134 207.501z" />
    <glyph glyph-name="d" unicode="d" horiz-adv-x="1382" 
d="M967 205c-51.333 -80 -110.333 -140 -177 -180s-141.667 -60 -225 -60c-138 0 -250 54.5 -336 163.5s-129 252.5 -129 430.5s44.833 321.167 134.5 429.5s207.5 162.5 353.5 162.5c74.667 0 141.5 -15.5 200.5 -46.5s114.833 -80.5 167.5 -148.5v238
c0 86.667 -13.167 142.167 -39.5 166.5s-81.166 37.833 -164.499 40.5v110l201 14.5c68 5 136 10.5 204 16.5v-1241c0 -64.667 10.667 -108.5 32 -131.5s64.666 -39.167 129.999 -48.5v-119h-59c-47.333 0 -95 -1.83301 -143 -5.5s-98 -9.16699 -150 -16.5v225zM635 1014
c-96.667 0 -170.666 -38.167 -221.999 -114.5s-77 -186.5 -77 -330.5c0 -144.667 25.5 -255.167 76.5 -331.5s125.167 -114.5 222.5 -114.5s173.166 39.167 227.499 117.5s81.5 187.833 81.5 328.5c0 138 -27.5 246.667 -82.5 326s-130.5 119 -226.5 119z" />
    <glyph glyph-name="e" unicode="e" horiz-adv-x="1161" 
d="M1028 209c-48 -81.333 -104.667 -141.998 -170 -181.998s-139.666 -60 -222.999 -60c-161.333 0 -290.833 54 -388.5 162s-146.5 251.333 -146.5 430c0 177.333 47.5 320.333 142.5 429s219.5 163 373.5 163c134.667 0 243.5 -52.333 326.5 -157
s124.5 -243.334 124.5 -416.001v-17h-731v-24c0 -144 26 -255.167 78 -333.5s125.667 -117.5 221 -117.5c65.333 0 121.166 15.667 167.499 47s89.5 82.666 129.5 153.999zM342 680.002h488.998c-2 112.667 -22.667 198.167 -62 256.5s-95.666 87.5 -168.999 87.5
c-77.333 0 -138.166 -29.5 -182.499 -88.5s-69.5 -144.167 -75.5 -255.5z" />
    <glyph glyph-name="f" unicode="f" horiz-adv-x="692" 
d="M422 317c0 -82 12.998 -135.668 38.998 -161.001s82.667 -40 170 -44v-112h-576v113c68.667 8 113.834 22.833 135.501 44.5s32.5 74.834 32.5 159.501v678h-168v123h168c1.33301 146.667 31 254.667 89 324s148 104 270 104c84.667 0 150.834 -16.5 198.501 -49.5
s71.5 -79.167 71.5 -138.5c0 -36.667 -10.833 -65.667 -32.5 -87s-51.167 -32 -88.5 -32c-32 0 -58.833 9 -80.5 27s-32.5 39.667 -32.5 65c0 15.333 2.5 28.833 7.5 40.5s12.833 23.5 23.5 35.5c-5.33301 13.333 -14.333 23.5 -27 30.5s-29 10.5 -49 10.5
c-51.333 0 -89.333 -21.5 -114 -64.5s-37 -109.5 -37 -199.5v-66h252v-123h-252v-678z" />
    <glyph glyph-name="g" unicode="g" horiz-adv-x="1237" 
d="M563 506c72.667 0 127.001 22.5 163.001 67.5s54 112.5 54 202.5s-18.167 158 -54.5 204s-90.5 69 -162.5 69c-70.667 0 -123.834 -22.833 -159.501 -68.5s-53.5 -113.834 -53.5 -204.501c0 -91.333 17.5 -159.166 52.5 -203.499s88.5 -66.5 160.5 -66.5zM368.001 59
c-30.667 -26.667 -53.666 -52.668 -68.999 -78.001s-23 -50.333 -23 -75c0 -56.667 27.833 -100.5 83.5 -131.5s134.5 -46.5 236.5 -46.5c126.667 0 224.5 17.5 293.5 52.5s103.5 84.167 103.5 147.5c0 40.667 -17.333 71.334 -52 92.001s-86.334 31 -155.001 31h-133
c-34.667 0 -72.167 0.5 -112.5 1.5s-97.833 3.16699 -172.5 6.5zM287.002 87.999c-52.667 15.333 -92.8369 39.5029 -120.504 72.5029s-41.5 73.167 -41.5 120.5c0 42.667 12.667 83.167 38 121.5s61 70.833 107 97.5c-49.333 38 -85.833 79.833 -109.5 125.5
s-35.5 97.167 -35.5 154.5c0 112 40.167 202.833 120.5 272.5s184.833 104.5 313.5 104.5c75.333 0 141 -10.167 197 -30.5s106.333 -52.5 151 -96.5c57.333 57.333 98.833 93.166 124.5 107.499s52.5 21.5 80.5 21.5c42 0 74.667 -14.5 98 -43.5s35 -69.833 35 -122.5
c0 -36 -8.16699 -63.333 -24.5 -82s-40.166 -28 -71.499 -28c-22.667 0 -41 7 -55 21s-21 32 -21 54c0 8 1.66699 19.5 5 34.5s5 26.167 5 33.5c0 10 -1.5 17.333 -4.5 22s-7.5 7 -13.5 7c-18 0 -34.5 -6 -49.5 -18s-34.167 -34.667 -57.5 -68
c16.667 -32 28.834 -62.833 36.501 -92.5s11.5 -60.5 11.5 -92.5c0 -115.333 -39.167 -207.166 -117.5 -275.499s-184.166 -102.5 -317.499 -102.5c-41.333 0 -79.666 3 -114.999 9s-67.333 15 -96 27c-32.667 -19.333 -56.834 -38.166 -72.501 -56.499
s-23.5 -36.833 -23.5 -55.5c0 -32.667 26.833 -56.334 80.5 -71.001s144.834 -22.334 273.501 -23.001c14.667 -0.666992 35.667 -1 63 -1c131.333 -1.33301 217.666 -7.33301 258.999 -18c64 -15.333 113.167 -44.833 147.5 -88.5s51.5 -98.167 51.5 -163.5
c0 -108.667 -49.833 -194.834 -149.5 -258.501s-235.5 -95.5 -407.5 -95.5c-147.333 0 -262.666 23 -345.999 69s-125 109 -125 189c0 40 12 75.667 36 107s70.667 68.666 140 111.999z" />
    <glyph glyph-name="h" unicode="h" horiz-adv-x="1360" 
d="M424 317c0 -82.667 11.665 -136 34.998 -160s73 -38.667 149 -44v-113h-555v113c71.333 7.33301 117.833 23 139.5 47s32.5 76.333 32.5 157v869c0 80.667 -10.833 133 -32.5 157s-68.167 40 -139.5 48v120c6.66699 0 17.167 -0.333008 31.5 -1s25.166 -1 32.499 -1
c48 0 96.833 2 146.5 6s100.5 9.66699 152.5 17v-655c49.333 84 107.333 147.667 174 191s140.334 65 221.001 65c118 0 204.833 -35.5 260.5 -106.5s83.5 -181.833 83.5 -332.5v-377c0 -80.667 11 -133 33 -157s68.333 -39.667 139 -47v-113h-557v113
c76.667 5.33301 126.834 20.166 150.501 44.499s35.5 77.5 35.5 159.5v365c0 112 -15.667 189.5 -47 232.5s-83.666 64.5 -156.999 64.5c-100.667 0 -180.5 -43.167 -239.5 -129.5s-88.5 -204.166 -88.5 -353.499v-179z" />
    <glyph glyph-name="i" unicode="i" horiz-adv-x="631" 
d="M166 1411c0 38 12.667 70 38 96s57 39 95 39s69.667 -13 95 -39s38 -58 38 -96c0 -37.333 -13 -69.166 -39 -95.499s-57.333 -39.5 -94 -39.5s-68 13.167 -94 39.5s-39 58.166 -39 95.499zM424 317c0 -81.333 11.334 -134 34.001 -158s70.667 -39.333 144 -46v-113h-567
v112c78.667 5.33301 130 19.833 154 43.5s36 77.5 36 161.5v469c0 84.667 -12.167 138.834 -36.5 162.501s-75.5 38.167 -153.5 43.5v122c10 0 25.167 -0.333008 45.5 -1s35.166 -1 44.499 -1c52.667 0 103.5 1.66699 152.5 5s97.833 8.66602 146.5 15.999v-816z" />
    <glyph glyph-name="j" unicode="j" horiz-adv-x="639" 
d="M174 1411c0 38 12.834 70.002 38.501 96.002s57.167 39 94.5 39c38 0 70 -13 96 -39s39 -58 39 -96c0 -36.667 -13.333 -68.334 -40 -95.001s-58.334 -40 -95.001 -40c-36 0 -67.167 13.167 -93.5 39.5s-39.5 58.166 -39.5 95.499zM436.001 37.002l-0.00292969 -27
c0 -66 -3 -115.667 -9 -149s-16 -63.333 -30 -90c-27.333 -50.667 -68.166 -90 -122.499 -118s-117.166 -42 -188.499 -42c-75.333 0 -135.5 15.833 -180.5 47.5s-67.5 73.834 -67.5 126.501c0 38 11.833 69 35.5 93s54.167 36 91.5 36c33.333 0 59.5 -10 78.5 -30
s28.5 -47.667 28.5 -83c0 -13.333 -5 -31 -15 -53c-4.66699 -10.667 -7.66699 -19 -9 -25c10.667 -5.33301 19.334 -9 26.001 -11s13.334 -3 20.001 -3c47.333 0 83.166 18.833 107.499 56.5s36.5 93.167 36.5 166.5v854c0 84 -12.5 138 -37.5 162s-76.833 38.667 -155.5 44
v122c10 0 25.333 -0.333008 46 -1s36 -1 46 -1c52.667 0 103.667 1.66699 153 5s98 8.66602 146 15.999v-1096z" />
    <glyph glyph-name="k" unicode="k" horiz-adv-x="1290" 
d="M424 317c0 -80 10.5049 -131.833 31.5049 -155.5s65.833 -39.834 134.5 -48.501v-113h-557v112c79.333 5.33301 131.166 19.833 155.499 43.5s36.5 77.5 36.5 161.5v869c0 84 -12.333 138 -37 162s-76.334 38.333 -155.001 43v120c8.66699 0 21.5 -0.333008 38.5 -1
s30.167 -1 39.5 -1c50 0 100.833 1.83301 152.5 5.5s105.167 9.5 160.5 17.5v-932l317 244c24.667 18.667 42.167 35 52.5 49s15.5 27.667 15.5 41c0 22.667 -13.333 40.334 -40 53.001s-65.334 19 -116.001 19h-12v112h594v-112c-87.333 -10 -200.333 -72 -339 -186
l-33 -27l-169 -136l318 -366c61.333 -72 111.166 -119.5 149.499 -142.5s81.166 -35.167 128.499 -36.5v-112h-571v112l10 2c82 12.667 123 34 123 64c0 9.33301 -4 21 -12 35s-19 28.333 -33 43l-260 289l-123 -99v-129z" />
    <glyph glyph-name="l" unicode="l" horiz-adv-x="631" 
d="M424 317c0 -82 11.834 -135.168 35.501 -159.501s73.834 -39.166 150.501 -44.499v-113h-577v112c79.333 5.33301 131.166 19.833 155.499 43.5s36.5 77.5 36.5 161.5v869c0 84 -12.333 138 -37 162s-76.334 38.333 -155.001 43v120c8.66699 0 21.5 -0.333008 38.5 -1
s30.167 -1 39.5 -1c50 0 100.833 1.83301 152.5 5.5s105.167 9.5 160.5 17.5v-1215z" />
    <glyph glyph-name="m" unicode="m" horiz-adv-x="2038" 
d="M424 317c0 -82 11.834 -135.167 35.501 -159.5s73.834 -39.166 150.501 -44.499v-113h-557v113c71.333 7.33301 117.833 23 139.5 47s32.5 76.333 32.5 157v469c0 81.333 -10.833 134 -32.5 158s-68.167 39.667 -139.5 47v123c8.66699 0 21.167 -0.333008 37.5 -1
s28.5 -1 36.5 -1c44 0 89.833 1.66699 137.5 5s98.167 8.66602 151.5 15.999v-256c49.333 82.667 107 146 173 190s136.667 66 212 66c78.667 0 146.5 -23 203.5 -69s95.5 -108.333 115.5 -187c48.667 82 106 145.167 172 189.5s136.333 66.5 211 66.5
c52 0 101.167 -11.333 147.5 -34s83.833 -53.667 112.5 -93c24.667 -33.333 42.167 -70.5 52.5 -111.5s15.5 -107.833 15.5 -200.5v-377c0 -80 11.167 -132.167 33.5 -156.5s69.166 -40.166 140.499 -47.499v-113h-557v113c76 5.33301 125.667 20 149 44s35 77.333 35 160
v365c0 108.667 -14.667 185 -44 229s-77.333 66 -144 66c-95.333 0 -171.833 -43.333 -229.5 -130s-86.5 -203.667 -86.5 -351v-179c0 -80.667 11 -133 33 -157s68.333 -39.667 139 -47v-113h-557v113c77.333 5.33301 127.833 20.166 151.5 44.499s35.5 77.5 35.5 159.5v365
c0 108.667 -14.833 185 -44.5 229s-78.5 66 -146.5 66c-94.667 0 -170.834 -43.5 -228.501 -130.5s-86.5 -203.833 -86.5 -350.5v-179z" />
    <glyph glyph-name="n" unicode="n" horiz-adv-x="1360" 
d="M424 317c0 -82 11.8291 -135.167 35.4961 -159.5s73.834 -39.166 150.501 -44.499v-113h-557v113c71.333 7.33301 117.833 23 139.5 47s32.5 76.333 32.5 157v469c0 81.333 -10.833 134 -32.5 158s-68.167 39.667 -139.5 47v123c8.66699 0 21.167 -0.333008 37.5 -1
s28.5 -1 36.5 -1c44 0 89.833 1.66699 137.5 5s98.167 8.66602 151.5 15.999v-256c49.333 84 107.333 147.667 174 191s140.334 65 221.001 65c104 0 187.333 -32.333 250 -97s94 -150 94 -256v-463c0 -80.667 11 -133 33 -157s68.333 -39.667 139 -47v-113h-557v113
c76.667 5.33301 126.834 20.166 150.501 44.499s35.5 77.5 35.5 159.5v365c0 112 -15.667 189.5 -47 232.5s-83.666 64.5 -156.999 64.5c-100.667 0 -180.5 -43.167 -239.5 -129.5s-88.5 -204.166 -88.5 -353.499v-179z" />
    <glyph glyph-name="o" unicode="o" horiz-adv-x="1270" 
d="M635 86c101.333 0 176.5 38.833 225.5 116.5s73.5 196.5 73.5 356.5c0 160.667 -24.667 280 -74 358s-124.333 117 -225 117c-101.333 0 -176.5 -39 -225.5 -117s-73.5 -197.333 -73.5 -358c0 -160 24.5 -278.833 73.5 -356.5s124.167 -116.5 225.5 -116.5zM635 -33
c-159.333 0 -288.333 54.333 -387 163s-148 251.667 -148 429c0 178.667 49 322 147 430s227.333 162 388 162s290.167 -54 388.5 -162s147.5 -251.333 147.5 -430c0 -177.333 -49.333 -320.333 -148 -429s-228 -163 -388 -163z" />
    <glyph glyph-name="p" unicode="p" horiz-adv-x="1382" 
d="M426 164l-0.000976562 -225c0 -84 12 -138.167 36 -162.5s74 -39.166 150 -44.499v-111h-559v111c71.333 7.33301 118.166 23.333 140.499 48s33.5 77.667 33.5 159v847c0 82 -11.167 134.667 -33.5 158s-69.166 39 -140.499 47v123c8.66699 0 21.167 -0.333008 37.5 -1
s28.5 -1 36.5 -1c44 0 89.833 1.66699 137.5 5s98.167 8.66602 151.5 15.999v-220c51.333 80 110.333 140 177 180s141.334 60 224.001 60c138.667 0 251.167 -54.5 337.5 -163.5s129.5 -252.5 129.5 -430.5c0 -177.333 -45 -320.333 -135 -429s-208 -163 -354 -163
c-74.667 0 -141.5 15.833 -200.5 47.5s-115.167 81.5 -168.5 149.5zM747.999 104c96 0 169.833 38.499 221.5 115.499s77.5 187.5 77.5 331.5c0 144.667 -25.5 254.834 -76.5 330.501s-125.167 113.5 -222.5 113.5s-173 -38.667 -227 -116s-81 -186.666 -81 -327.999
c0 -138.667 27.5 -247.834 82.5 -327.501s130.167 -119.5 225.5 -119.5z" />
    <glyph glyph-name="q" unicode="q" horiz-adv-x="1341" 
d="M772 -379v110c75.333 5.33301 124.833 20 148.5 44s35.5 78.667 35.5 164v225c-53.333 -68 -109.5 -117.833 -168.5 -149.5s-125.5 -47.5 -199.5 -47.5c-146 0 -263.833 54.167 -353.5 162.5s-134.5 251.5 -134.5 429.5s43 321.5 129 430.5s198 163.5 336 163.5
c83.333 0 158.333 -20 225 -60s125.667 -100 177 -180l98 220l98 -1c-2 -46.667 -3.5 -89.5 -4.5 -128.5s-1.5 -75.167 -1.5 -108.5v-956c0 -82.667 11.167 -136 33.5 -160s68.5 -39.667 138.5 -47v-111h-557zM635 104c95.333 0 170.666 39.832 225.999 119.499
s83 188.834 83 327.501c0 140.667 -27.167 249.834 -81.5 327.501s-130.166 116.5 -227.499 116.5s-171.5 -37.833 -222.5 -113.5s-76.5 -185.834 -76.5 -330.501c0 -144 25.833 -254.5 77.5 -331.5s125.5 -115.5 221.5 -115.5z" />
    <glyph glyph-name="r" unicode="r" horiz-adv-x="915" 
d="M53 0l-0.000976562 113c71.333 7.33301 117.833 23 139.5 47s32.5 76.333 32.5 157v469c0 81.333 -10.833 134 -32.5 158s-68.167 39.667 -139.5 47v123c8.66699 0 21.167 -0.333008 37.5 -1s28.5 -1 36.5 -1c44 0 89.833 1.66699 137.5 5s98.167 8.66602 151.5 15.999
v-256c56 97.333 106.667 165 152 203s95.666 57 150.999 57s100.5 -17.667 135.5 -53s52.5 -80.666 52.5 -135.999c0 -47.333 -12.167 -84.666 -36.5 -111.999s-57.833 -41 -100.5 -41c-37.333 0 -67.166 10.667 -89.499 32s-33.5 49.333 -33.5 84
c0 19.333 3.16699 36.5 9.5 51.5s14.5 26.833 24.5 35.5c-3.33301 2.66699 -7.66602 5 -12.999 7s-11 3 -17 3c-50.667 0 -101.167 -51.833 -151.5 -155.5s-75.5 -221.834 -75.5 -354.501v-181c0 -86 13.333 -141 40 -165s83.667 -37.333 171 -40v-112h-582z" />
    <glyph glyph-name="s" unicode="s" horiz-adv-x="1042" 
d="M197 -33l-94.999 -0.00292969v475h111c28 -109.333 76.5 -196.666 145.5 -261.999s145.5 -98 229.5 -98c56 0 101.667 15.167 137 45.5s53 69.166 53 116.499c0 44 -16.667 82.833 -50 116.5s-94.333 70.5 -183 110.5c-175.333 78 -287.833 142.833 -337.5 194.5
s-74.5 115.167 -74.5 190.5c0 86.667 31.333 157.834 94 213.501s142.667 83.5 240 83.5c58 0 117.167 -14.333 177.5 -43s91.833 -43 94.5 -43c14.667 0 26.834 7.5 36.501 22.5s16.167 35.5 19.5 61.5h100v-373h-109c-32 83.333 -74.5 146.833 -127.5 190.5
s-113.5 65.5 -181.5 65.5c-48 0 -86.667 -12.333 -116 -37s-44 -56.667 -44 -96c0 -62 73 -125.667 219 -191c28.667 -12.667 50.667 -22.667 66 -30c143.333 -67.333 240.333 -129.666 291 -186.999s76 -126.666 76 -207.999c0 -92 -34.333 -168.333 -103 -229
s-155.334 -91 -260.001 -91c-86.667 0 -180.334 27.333 -281.001 82c-28 15.333 -45.667 23 -53 23c-17.333 0 -31.833 -7.83301 -43.5 -23.5s-22.167 -42.167 -31.5 -79.5z" />
    <glyph glyph-name="t" unicode="t" horiz-adv-x="930" 
d="M414 342c0 -82 10.832 -142.499 32.499 -181.499s55.834 -58.5 102.501 -58.5c60.667 0 106.834 32.833 138.501 98.5s47.5 161.167 47.5 286.5v23h109v-45c0 -167.333 -28.833 -292.166 -86.5 -374.499s-144.834 -123.5 -261.501 -123.5
c-97.333 0 -168.833 30.5 -214.5 91.5s-68.5 157.5 -68.5 289.5v647h-180v123c90 5.33301 156 39.166 198 101.499s70 171.166 84 326.499h99v-428h338v-123h-338v-653z" />
    <glyph glyph-name="u" unicode="u" horiz-adv-x="1360" 
d="M936 801c0 82.667 -12 136.337 -36 161.004s-74 40 -150 46v110c58 0 118.667 1.66699 182 5s131 8.66602 203 15.999v-811c0 -82 11.167 -135.167 33.5 -159.5s68.166 -40.166 137.499 -47.499l1 -121c-7.33301 0 -18.166 0.333008 -32.499 1s-24.833 1 -31.5 1
c-48.667 0 -97.5 -1.83301 -146.5 -5.5s-99.833 -9.16699 -152.5 -16.5v243c-48.667 -84 -106.5 -147.667 -173.5 -191s-140.833 -65 -221.5 -65c-117.333 0 -204 35.5 -260 106.5s-84 181.833 -84 332.5v395c0 81.333 -11.167 134.166 -33.5 158.499
s-68.5 40.5 -138.5 48.5v110c57.333 0 116.833 1.66699 178.5 5s126.5 8.66602 194.5 15.999v-736c0 -102.667 15.667 -175.334 47 -218.001s83 -64 155 -64c100.667 0 180.5 43.167 239.5 129.5s88.5 204.166 88.5 353.499v197z" />
    <glyph glyph-name="v" unicode="v" horiz-adv-x="1161" 
d="M641 -33h-111.001l-325 842c-28 73.333 -55 122.666 -81 147.999s-62 42.333 -108 51v110h510v-110c-54.667 -6.66699 -92.5 -16.667 -113.5 -30s-31.5 -33.333 -31.5 -60c0 -7.33301 0.666992 -14.666 2 -21.999s3.33301 -15.333 6 -24l217 -632l236 629
c2.66699 8.66699 5.33398 20.167 8.00098 34.5s4 26.5 4 36.5c0 18 -9.5 32 -28.5 42s-52.5 18.667 -100.5 26v110h418v-110c-38.667 -4 -71 -18 -97 -42s-48.333 -60.667 -67 -110z" />
    <glyph glyph-name="w" unicode="w" horiz-adv-x="1706" 
d="M1389 831c6.66699 21.333 11.999 41.8281 15.999 61.4951s6 35.5 6 47.5c0 18.667 -11.333 33.5 -34 44.5s-57.667 18.833 -105 23.5v110h416v-110c-40 -8.66699 -72.167 -27 -96.5 -55s-48.833 -77.333 -73.5 -148l-297 -838h-117l-246 654l-223 -654h-121l-307 842
c-24 65.333 -49.333 113 -76 143s-59.334 48.667 -98.001 56v110h454v-110l-4 -2c-72 -21.333 -108 -50.666 -108 -87.999c0 -11.333 1.5 -24.666 4.5 -39.999s6.83301 -30 11.5 -44l215 -605l187 566c-30 88 -58.167 145.5 -84.5 172.5s-63.166 40.5 -110.499 40.5h-10v110
h524v-110c-65.333 -7.33301 -108.666 -17.166 -129.999 -29.499s-32 -31.166 -32 -56.499c0 -11.333 7 -37.666 21 -78.999c2 -5.33301 3.33301 -9.33301 4 -12l215 -608z" />
    <glyph glyph-name="x" unicode="x" horiz-adv-x="1241" 
d="M277 839c-1.33301 2 -3.33789 4.33398 -6.00488 7.00098c-78 97.333 -158 150.666 -240 159.999v112h528v-112c-34 -2 -61.333 -7.33301 -82 -16s-31 -19.334 -31 -32.001c0 -8.66699 5.83301 -22.334 17.5 -41.001s27.834 -41 48.501 -67l131 -162l135 148
c30.667 34 51.667 59.5 63 76.5s17 30.833 17 41.5c0 15.333 -11.833 27.5 -35.5 36.5s-56.167 14.167 -97.5 15.5v112h475v-112h-6c-31.333 0 -59.666 -6.66699 -84.999 -20s-53.666 -37 -84.999 -71l-301 -319l266 -324c48 -57.333 89.167 -97.166 123.5 -119.499
s72.5 -35.5 114.5 -39.5v-113h-541v112c54 4 89.667 9.83301 107 17.5s26 19.834 26 36.501c0 4.66699 -1 9.16699 -3 13.5s-6.33301 10.833 -13 19.5l-209 260l-160 -174c-31.333 -34.667 -51.5 -59.5 -60.5 -74.5s-13.5 -29.167 -13.5 -42.5
c0 -15.333 9.83301 -27.666 29.5 -36.999s48.834 -15.666 87.501 -18.999v-112h-463l1 113c34.667 3.33301 66.334 12.666 95.001 27.999s57.667 38.666 87 69.999l315 342z" />
    <glyph glyph-name="y" unicode="y" horiz-adv-x="1147" 
d="M635 8c-59.333 -147.333 -118.167 -250.332 -176.5 -308.999s-128.5 -88 -210.5 -88c-72.667 0 -132.5 19 -179.5 57s-70.5 86.667 -70.5 146c0 43.333 13 79 39 107s59.333 42 100 42c35.333 0 64.333 -10.333 87 -31s34 -47 34 -79
c0 -22.667 -6.83301 -43.334 -20.5 -62.001s-20.5 -29 -20.5 -31c0 -4.66699 5.5 -9.5 16.5 -14.5s22.5 -7.5 34.5 -7.5c51.333 0 96.666 24.667 135.999 74s75.333 126.333 108 231l-309 766c-33.333 83.333 -64.166 136.333 -92.499 159s-67.833 36 -118.5 40v110h532
v-110c-58 -8 -96.333 -18.333 -115 -31s-28 -33.334 -28 -62.001c0 -10.667 1.5 -22.667 4.5 -36s7.5 -28.333 13.5 -45l215 -535l226 569c4 10 7 20 9 30s3 20 3 30c0 24 -10 41.833 -30 53.5s-57 20.5 -111 26.5v110h409v-110c-34 -9.33301 -62 -25.166 -84 -47.499
s-41.667 -55.833 -59 -100.5z" />
    <glyph glyph-name="z" unicode="z" horiz-adv-x="1100" 
d="M84 0v147l670 852h-297c-96 0 -156 -10.333 -180 -31s-38.667 -67 -44 -139l-8 -143h-112v432h880v-119l-688 -880h340c92 0 150.167 14.833 174.5 44.5s40.5 93.167 48.5 190.5l13 133h112v-487h-909z" />
    <glyph glyph-name="braceleft" unicode="{" 
d="M848 1516l-0.000976562 -53.002c-90.667 -1.33301 -152.667 -19.666 -186 -54.999s-50 -105.333 -50 -210v-141c0 -151.333 -19.667 -254.166 -59 -308.499s-111.666 -92.166 -216.999 -113.499c106 -21.333 178.5 -59.166 217.5 -113.499s58.5 -157.166 58.5 -308.499
v-141c0 -104.667 16.5 -174.334 49.5 -209.001s95.167 -52.667 186.5 -54v-53h-10c-146 0 -246.333 24.667 -301 74s-82 140 -82 272v207c0 107.333 -19.667 181.166 -59 221.499s-112 64.833 -218 73.5v64c107.333 8.66699 180.333 33.167 219 73.5s58 114.166 58 221.499
v206c0 132.667 27.333 223.667 82 273s155 74 301 74h10z" />
    <glyph glyph-name="bar" unicode="|" 
d="M438 1565h150v-2048h-150v2048z" />
    <glyph glyph-name="braceright" unicode="}" 
d="M176 1516l9.99902 0.00292969c146.667 0 247.5 -24.667 302.5 -74s82.5 -140.333 82.5 -273v-206c0 -107.333 19.333 -181.166 58 -221.499s111.667 -64.833 219 -73.5v-64c-107.333 -8.66699 -180.333 -33.167 -219 -73.5s-58 -114.166 -58 -221.499v-207
c0 -132 -27.5 -222.667 -82.5 -272s-155.833 -74 -302.5 -74h-10v53c91.333 1.33301 153.5 19.5 186.5 54.5s49.5 104.5 49.5 208.5v141c0 151.333 19.5 254.166 58.5 308.499s111.5 92.166 217.5 113.499c-105.333 21.333 -177.666 59.166 -216.999 113.499
s-59 157.166 -59 308.499v141c0 104.667 -16.667 174.667 -50 210s-95.333 53.666 -186 54.999v53z" />
    <glyph glyph-name="asciitilde" unicode="~" horiz-adv-x="1706" 
d="M1530 770l-0.00292969 -156.001c-69.333 -48 -135.666 -83.5 -198.999 -106.5s-126.666 -34.5 -189.999 -34.5c-62 0 -147.333 19.333 -256 58c-14.667 5.33301 -26 9.33301 -34 12c-3.33301 1.33301 -8.33301 3 -15 5c-117.333 40 -208.333 60 -273 60
c-56 0 -114.333 -12.333 -175 -37s-130.667 -64.667 -210 -120v155c70.667 48 138 84 202 108s125.667 36 185 36c41.333 0 83.833 -4.5 127.5 -13.5s98.167 -25.167 163.5 -48.5c10.667 -3.33301 26.334 -9 47.001 -17c106 -38 186 -57 240 -57
c58.667 0 118.5 12.333 179.5 37s130.167 64.334 207.5 119.001z" />
    <glyph glyph-name="nonbreakingspace" unicode="&#xa0;" horiz-adv-x="1147" 
 />
    <glyph glyph-name="exclamdown" unicode="&#xa1;" horiz-adv-x="682" 
d="M203 1368c0 38 13.333 70.667 40 98s59 41 97 41s70.667 -13.5 98 -40.5s41 -59.833 41 -98.5c0 -38 -13.5 -70.333 -40.5 -97s-59.833 -40 -98.5 -40c-38 0 -70.333 13.333 -97 40s-40 59 -40 97zM285 1040l105.998 0.00195312l68 -915c0 -4 0.333008 -9 1 -15
s1 -10.667 1 -14c0 -45.333 -10.167 -79.166 -30.5 -101.499s-51.166 -33.5 -92.499 -33.5s-72.166 11.167 -92.499 33.5s-30.5 56.166 -30.5 101.499c0 3.33301 0.333008 8.16602 1 14.499s1 11.166 1 14.499z" />
    <glyph glyph-name="cent" unicode="&#xa2;" horiz-adv-x="1147" 
d="M434 233l282.998 594.002v15c0 38.667 12.667 73.167 38 103.5s38 46.166 38 47.499c0 17.333 -15.667 34.666 -47 51.999s-67.666 26 -108.999 26c-94 0 -167.333 -41.333 -220 -124s-79 -199 -79 -349c0 -86.667 7.83301 -159.667 23.5 -219s39.834 -108 72.501 -146z
M357.998 74.002c-88 64 -152.999 138.5 -194.999 223.5s-63 185.167 -63 300.5c0 178 49 321.167 147 429.5s227.333 162.5 388 162.5c38.667 0 76.5 -4.5 113.5 -13.5s74.833 -22.833 113.5 -41.5l123 260h105l-152 -322c28.667 -33.333 49.834 -65.833 63.501 -97.5
s20.5 -65.5 20.5 -101.5c0 -50.667 -14.833 -92 -44.5 -124s-68.834 -48 -117.501 -48c-15.333 0.666992 -30 3.16699 -44 7.5s-28 10.833 -42 19.5l-266 -563c22 -14 44.333 -24.333 67 -31s46.667 -10 72 -10c77.333 0 142.166 22.333 194.499 67s96.166 115 131.499 211
l104 -38c-40 -122.667 -97.5 -213.5 -172.5 -272.5s-169.5 -88.5 -283.5 -88.5c-29.333 0 -58.166 2.83301 -86.499 8.5s-57.833 14.5 -88.5 26.5l-145 -305h-104z" />
    <glyph glyph-name="sterling" unicode="&#xa3;" horiz-adv-x="1147" 
d="M100 731l-0.00195312 88h201c-24 60.667 -41.667 115 -53 163s-17 92 -17 132c0 116.667 38.333 211.667 115 285s176.334 110 299.001 110c105.333 0 192.833 -27 262.5 -81s104.5 -121 104.5 -201c0 -48 -13 -86.333 -39 -115s-60.333 -43 -103 -43
c-35.333 0 -65.333 12.167 -90 36.5s-37 54.5 -37 90.5c0 30.667 11.333 57 34 79s34 34 34 36c0 24 -14.5 45 -43.5 63s-65.167 27 -108.5 27c-66.667 0 -118.834 -18.667 -156.501 -56s-56.5 -89 -56.5 -155c0 -30.667 13.167 -87.334 39.5 -170.001
s45.5 -149.667 57.5 -201h321v-88h-303c2.66699 -22.667 4.66699 -43.167 6 -61.5s2 -32.5 2 -42.5c0 -72.667 -15.5 -139.667 -46.5 -201s-99.5 -146.666 -205.5 -255.999c36 18.667 72.167 32.5 108.5 41.5s74.833 13.5 115.5 13.5c46 0 102.833 -10.5 170.5 -31.5
s111.834 -31.5 132.501 -31.5c30 0 54.5 11.833 73.5 35.5s33.5 60.167 43.5 109.5h90v-6c0 -105.333 -26.667 -188.333 -80 -249s-125.666 -91 -216.999 -91c-64 0 -138.5 20.5 -223.5 61.5s-138.167 61.5 -159.5 61.5c-27.333 0 -53.833 -20.5 -79.5 -61.5
s-56.5 -61.5 -92.5 -61.5c-30.667 0 -55.5 9.66699 -74.5 29s-28.5 44.666 -28.5 75.999c0 56.667 44 99.334 132 128.001c9.33301 2.66699 16.666 5 21.999 7c28 9.33301 54.167 44.333 78.5 105s36.5 126.667 36.5 198c0 35.333 -3.16699 71.5 -9.5 108.5
s-16.166 76.5 -29.499 118.5h-226z" />
    <glyph glyph-name="currency" unicode="&#xa4;" horiz-adv-x="1241" 
d="M623 1190c-84 0 -155.667 -29.667 -215 -89s-89 -130.666 -89 -213.999c0 -84 29.667 -155.833 89 -215.5s131 -89.5 215 -89.5c83.333 0 154.666 29.833 213.999 89.5s89 131.5 89 215.5c0 83.333 -29.667 154.666 -89 213.999s-130.666 89 -213.999 89zM162 1423
l205 -203.998c38 28.667 78 50.167 120 64.5s86.667 21.5 134 21.5s92.166 -7.16699 134.499 -21.5s82.833 -35.833 121.5 -64.5l204 204l82 -80l-205 -206c27.333 -36.667 47.833 -76 61.5 -118s20.5 -86.667 20.5 -134c0 -48.667 -6.66699 -93.834 -20 -135.501
s-34 -80.5 -62 -116.5l205 -205l-82 -82l-204 205c-39.333 -29.333 -80 -51 -122 -65s-86 -21 -132 -21c-48 0 -93.167 7.16699 -135.5 21.5s-82.5 35.833 -120.5 64.5l-205 -205l-82 82l207 205c-27.333 34 -48.166 72.667 -62.499 116s-21.5 88.666 -21.5 135.999
c0 46.667 7 91 21 133s35 81.667 63 119l-207 206z" />
    <glyph glyph-name="yen" unicode="&#xa5;" horiz-adv-x="1575" 
d="M1595 1475l-0.00292969 -144.001c-70.667 -6.66699 -131.667 -26.167 -183 -58.5s-98 -80.5 -140 -144.5l-88 -139h375v-100h-441l-145 -227h586v-99h-658v-235c0 -74.667 14.167 -124.5 42.5 -149.5s79.833 -37.5 154.5 -37.5h121v-141h-836v141h121
c74.667 0 126.334 12.833 155.001 38.5s43 76.5 43 152.5v231h-673v99h604l-160 227h-444v100h374l-157 228c-26.667 38.667 -57.167 66.334 -91.5 83.001s-85.166 27 -152.499 31v144h688v-144h-92c-39.333 0 -69.666 -7.16699 -90.999 -21.5s-32 -35.166 -32 -62.499
c0 -12.667 2.83301 -25.834 8.5 -39.501s16.5 -32.5 32.5 -56.5l324 -485l309 493c6.66699 11.333 12 23.5 16 36.5s6 24.833 6 35.5c0 30 -10.667 54.167 -32 72.5s-49.333 27.5 -84 27.5h-90v144h630z" />
    <glyph glyph-name="brokenbar" unicode="&#xa6;" 
d="M438 408h150v-758h-150v758zM438 1432h150v-758h-150v758z" />
    <glyph glyph-name="section" unicode="&#xa7;" 
d="M260 770c0 -32 10.833 -65.002 32.5 -99.002s55.167 -70.667 100.5 -110c75.333 -65.333 127.833 -106.833 157.5 -124.5s55.834 -26.5 78.501 -26.5c37.333 0 69.166 12.167 95.499 36.5s39.5 54.5 39.5 90.5c0 32.667 -12 67.334 -36 104.001s-61.333 77 -112 121
c-63.333 56.667 -110 93.334 -140 110.001s-58.333 25 -85 25c-36.667 0 -67.667 -12.5 -93 -37.5s-38 -54.833 -38 -89.5zM646 351.998c64 -54 111.333 -104.999 142 -152.999s46 -96 46 -144c0 -76.667 -32.833 -138.5 -98.5 -185.5s-153.167 -70.5 -262.5 -70.5
c-90.667 0 -165.167 20.333 -223.5 61s-87.5 92 -87.5 154c0 41.333 12.5 74.666 37.5 99.999s57.5 38 97.5 38c32.667 0 60 -11.167 82 -33.5s33 -49.5 33 -81.5c0 -27.333 -10.667 -52.333 -32 -75s-32 -37.334 -32 -44.001c0 -18.667 11.667 -33.834 35 -45.501
s54 -17.5 92 -17.5c53.333 0 95.666 13 126.999 39s47 60.667 47 104c0 55.333 -62.333 136.666 -187 243.999c-6 5.33301 -10.667 9.33301 -14 12l-180 156c-59.333 51.333 -103.5 100.333 -132.5 147s-43.5 92.334 -43.5 137.001c0 73.333 26.167 133.333 78.5 180
s121.833 72 208.5 76c-70 60.667 -119 113 -147 157s-42 89.333 -42 136c0 80.667 30.333 144.834 91 192.501s143 71.5 247 71.5c88 0 159.833 -20.167 215.5 -60.5s83.5 -91.833 83.5 -154.5c0 -40 -11.5 -72.167 -34.5 -96.5s-53.833 -36.5 -92.5 -36.5
c-34.667 0 -63.667 10.167 -87 30.5s-35 45.833 -35 76.5c0 22 10.5 45.333 31.5 70s31.5 41.334 31.5 50.001c0 17.333 -11.333 33 -34 47s-49.667 21 -81 21c-45.333 0 -82.166 -12.5 -110.499 -37.5s-42.5 -57.5 -42.5 -97.5c0 -36 12.667 -72.167 38 -108.5
s81.666 -91.833 168.999 -166.5l178 -149c58.667 -50 102.334 -98.833 131.001 -146.5s43 -96.5 43 -146.5c0 -70 -25.833 -127.5 -77.5 -172.5s-121.167 -70.833 -208.5 -77.5z" />
    <glyph glyph-name="dieresis" unicode="&#xa8;" 
d="M582 1427c0 30 11 56.001 33 78.001s48.333 33 79 33c31.333 0 58 -10.833 80 -32.5s33 -47.834 33 -78.501c0 -32 -10.833 -59 -32.5 -81s-48.5 -33 -80.5 -33c-31.333 0 -57.833 11 -79.5 33s-32.5 49 -32.5 81zM217 1427c0 30 11.5 56 34.5 78s49.833 33 80.5 33
s56.667 -10.667 78 -32s32 -47.666 32 -78.999c0 -32.667 -10.5 -59.834 -31.5 -81.501s-47.167 -32.5 -78.5 -32.5c-32 0 -59.167 11 -81.5 33s-33.5 49 -33.5 81z" />
    <glyph glyph-name="copyright" unicode="&#xa9;" horiz-adv-x="1683" 
d="M1122 1098l36.9971 0.000976562l2 -316h-43c-21.333 90 -55.666 158 -102.999 204s-106.333 69 -177 69c-79.333 0 -139.166 -31.167 -179.499 -93.5s-60.5 -154.833 -60.5 -277.5c0 -124.667 22.167 -219.334 66.5 -284.001s108.833 -97 193.5 -97
c56 0 107.167 14.667 153.5 44s88.833 73.333 127.5 132l39 -26c-40.667 -70 -90 -122.667 -148 -158s-124.333 -53 -199 -53c-115.333 0 -212.666 41.333 -291.999 124s-119 184 -119 304c0 122 39.5 224.5 118.5 307.5s175.833 124.5 290.5 124.5
c50 0 99.833 -11 149.5 -33s76.5 -33 80.5 -33c18 0 32 4.83301 42 14.5s17 25.5 21 47.5zM843.997 1305c-82 0 -161.333 -16.332 -238 -48.999s-144.334 -78.667 -203.001 -138c-58.667 -60 -103.334 -127.5 -134.001 -202.5s-46 -154.167 -46 -237.5
c0 -84.667 15.5 -164.334 46.5 -239.001s76.5 -141.667 136.5 -201c60.667 -60 127.834 -105.5 201.501 -136.5s151.834 -46.5 234.501 -46.5c84 0 163 15.5 237 46.5s140.333 76.5 199 136.5c59.333 60 104.833 128 136.5 204s47.5 154.667 47.5 236
c0 82 -16 162.333 -48 241s-76.667 146.334 -134 203.001c-57.333 57.333 -124.333 102.166 -201 134.499s-155 48.5 -235 48.5zM843.997 1391c92 0 181.666 -18.1689 268.999 -54.502s164 -87.166 230 -152.499c66.667 -66 118.167 -143.333 154.5 -232
s54.5 -180 54.5 -274c0 -93.333 -17.833 -183.166 -53.5 -269.499s-87.5 -163.833 -155.5 -232.5c-66 -67.333 -142 -119 -228 -155s-177 -54 -273 -54c-94.667 0 -184.667 17.833 -270 53.5s-162.666 87.5 -231.999 155.5c-68.667 68 -120.667 144.333 -156 229
s-53 175.667 -53 273c0 94 17.833 184 53.5 270s87.5 163.333 155.5 232c66.667 67.333 143.5 119.333 230.5 156s178.167 55 273.5 55z" />
    <glyph glyph-name="ordfeminine" unicode="&#xaa;" horiz-adv-x="918" 
d="M610 1091c-110.667 -12 -197.668 -37.168 -261.001 -75.501s-95 -83.833 -95 -136.5c0 -33.333 10.333 -59.166 31 -77.499s49.334 -27.5 86.001 -27.5c76 0 135.167 23.5 177.5 70.5s63.5 112.833 63.5 197.5c0 13.333 -0.166992 23.333 -0.5 30s-0.833008 13 -1.5 19z
M622.999 806.999c-36.667 -44.667 -81.668 -79 -135.001 -103s-111 -36 -173 -36c-73.333 0 -131.166 16.5 -173.499 49.5s-63.5 77.833 -63.5 134.5c0 80 44.667 147.333 134 202s222 96 398 124v65c0 56.667 -17 99.834 -51 129.501s-83.667 44.5 -149 44.5
c-41.333 0 -78.166 -6.5 -110.499 -19.5s-54.833 -30.5 -67.5 -52.5c4.66699 -5.33301 12.667 -12.333 24 -21c24.667 -17.333 37 -38.666 37 -63.999c0 -26 -8.66699 -45.833 -26 -59.5s-42 -20.5 -74 -20.5c-31.333 0 -55.333 8.5 -72 25.5s-25 41.167 -25 72.5
c0 67.333 30.333 120.666 91 159.999s143.667 59 249 59c45.333 0 88.166 -5 128.499 -15s74.833 -24 103.5 -42c34 -20.667 57.833 -45.834 71.5 -75.501s20.5 -79.834 20.5 -150.501v-387c0 -24 3.5 -41.5 10.5 -52.5s18.5 -16.5 34.5 -16.5
c12.667 0 23.167 4.16699 31.5 12.5s14.5 20.5 18.5 36.5h63v-2c0 -41.333 -13.5 -74.166 -40.5 -98.499s-62.833 -36.5 -107.5 -36.5c-43.333 0 -77.5 11.667 -102.5 35s-39.833 57.333 -44.5 102z" />
    <glyph glyph-name="guillemotleft" unicode="&#xab;" 
d="M475 553c104 80 200.001 162.832 288.001 248.499s134 128.5 138 128.5c7.33301 0 12.666 -2 15.999 -6s5 -10.333 5 -19c0 -22 -17.667 -62 -53 -120s-89.333 -136 -162 -234c61.333 -81.333 111.333 -154.833 150 -220.5s58 -108.167 58 -127.5
c0 -8.66699 -1.66699 -15 -5 -19s-8.33301 -6 -15 -6c-12.667 0 -63.5 43.833 -152.5 131.5s-178.167 168.834 -267.5 243.501zM98.001 552.999c104 80 199.999 162.834 287.999 248.501s134 128.5 138 128.5c8 -0.666992 13.667 -2.83398 17 -6.50098
s5.33301 -9.83398 6 -18.501c0 -21.333 -17.5 -60.5 -52.5 -117.5s-89.833 -135.833 -164.5 -236.5c61.333 -81.333 111.5 -154.833 150.5 -220.5s58.5 -108.167 58.5 -127.5c0 -8.66699 -1.66699 -15 -5 -19s-8.66602 -6 -15.999 -6c-12.667 0 -63.5 43.833 -152.5 131.5
s-178.167 168.834 -267.5 243.501z" />
    <glyph glyph-name="logicalnot" unicode="&#xac;" horiz-adv-x="1706" 
d="M254 860h1198v-502h-137v363h-1061v139z" />
    <glyph glyph-name="sfthyphen" unicode="&#xad;" horiz-adv-x="778" 
d="M115 477v180h549v-180h-549z" />
    <glyph glyph-name="registered" unicode="&#xae;" horiz-adv-x="1683" 
d="M738 721c8.66699 -0.666992 18 -1.16699 28 -1.5s21.667 -0.5 35 -0.5c70 0 124.333 15 163 45s58 72.333 58 127c0 48 -16.667 86.667 -50 116s-78 44 -134 44c-34 0 -59.333 -5.83301 -76 -17.5s-25 -29.167 -25 -52.5zM467 1094h397.001c96 0 173 -18 231 -54
s87 -83 87 -141c0 -55.333 -22 -99.166 -66 -131.499s-117 -57.5 -219 -75.5c63.333 -18.667 111.666 -44.167 144.999 -76.5s56.666 -75.833 69.999 -130.5c4 -15.333 7.66699 -37 11 -65c8 -58.667 27 -88 57 -88c20.667 0 36.334 11.167 47.001 33.5s16 54.833 16 97.5
h45v-19c0 -56 -13.667 -99 -41 -129s-67 -45 -119 -45c-32.667 0 -60.667 5.33301 -84 16s-40.333 26 -51 46c-13.333 24.667 -20.666 61.334 -21.999 110.001s-4 81 -8 97c-12.667 47.333 -34.834 82.333 -66.501 105s-75.167 34 -130.5 34h-29v-246
c0 -34 8.5 -58 25.5 -72s48.167 -23 93.5 -27v-44h-389v44c46 2.66699 77.667 11.167 95 25.5s26 38.833 26 73.5v516c0 35.333 -8.66699 60.166 -26 74.499s-49 23.166 -95 26.499v45zM844.001 1305c-82 0 -161.33 -16.3301 -237.997 -48.9971
s-144.334 -78.667 -203.001 -138c-58.667 -60 -103.334 -127.5 -134.001 -202.5s-46 -154.167 -46 -237.5c0 -84.667 15.5 -164.334 46.5 -239.001s76.5 -141.667 136.5 -201c59.333 -60 125.833 -105.5 199.5 -136.5s152.5 -46.5 236.5 -46.5
c83.333 0 162.333 15.667 237 47s141 76.666 199 135.999c58.667 60 103.667 127.667 135 203s47 154.333 47 237c0 83.333 -15.833 164 -47.5 242s-75.834 145.333 -132.501 202c-57.333 57.333 -124.333 102.166 -201 134.499s-155 48.5 -235 48.5zM844.004 1391
c93.333 0 184.332 -18.6689 272.999 -56.002s166.334 -89.666 233.001 -156.999c64.667 -66 114.5 -142.833 149.5 -230.5s52.5 -179.5 52.5 -275.5c0 -92.667 -18.667 -182.667 -56 -270s-91 -165.333 -161 -234c-66.667 -66 -142.667 -116 -228 -150
s-177.333 -51 -276 -51c-89.333 0 -176.5 18.167 -261.5 54.5s-161.5 87.833 -229.5 154.5c-68 67.333 -119.833 143.666 -155.5 228.999s-53.5 176.333 -53.5 273c0 94.667 17.667 184.834 53 270.501s86.666 162.834 153.999 231.501
c66.667 67.333 143.834 119.333 231.501 156s179.167 55 274.5 55z" />
    <glyph glyph-name="macron" unicode="&#xaf;" 
d="M242 1356v141h540v-141h-540z" />
    <glyph glyph-name="degree" unicode="&#xb0;" horiz-adv-x="674" 
d="M338 1362c-54 0 -100 -18.667 -138 -56s-57 -83 -57 -137s19 -100.167 57 -138.5s84 -57.5 138 -57.5s99.5 19.167 136.5 57.5s55.5 84.5 55.5 138.5s-18.5 99.667 -55.5 137s-82.5 56 -136.5 56zM338 1456c78.667 0 146.167 -28.167 202.5 -84.5
s84.5 -124.5 84.5 -204.5c0 -79.333 -28 -146.833 -84 -202.5s-124.333 -83.5 -205 -83.5s-148.667 27.667 -204 83s-83 123 -83 203s28.333 148.167 85 204.5s124.667 84.5 204 84.5z" />
    <glyph glyph-name="plusminus" unicode="&#xb1;" horiz-adv-x="1706" 
d="M254 170h1198v-141h-1198v141zM782 1192h142v-340h528v-139h-528v-340h-142v340h-528v139h528v340z" />
    <glyph glyph-name="twosuperior" unicode="&#xb2;" horiz-adv-x="758" 
d="M57 588l-0.00195312 119l262 235c64 56 110.833 108.333 140.5 157s44.5 96.667 44.5 144c0 55.333 -16.333 98.833 -49 130.5s-78 47.5 -136 47.5c-36.667 0 -69.167 -7.5 -97.5 -22.5s-46.166 -34.167 -53.499 -57.5c38.667 -10.667 66.334 -24.667 83.001 -42
s25 -40.666 25 -69.999c0 -25.333 -9.16699 -46 -27.5 -62s-42.5 -24 -72.5 -24c-35.333 0 -64.666 12 -87.999 36s-35 55 -35 93c0 64 28 116.833 84 158.5s128.333 62.5 217 62.5c92 0 167 -23 225 -69s87 -105.667 87 -179c0 -42.667 -12.333 -85.334 -37 -128.001
s-62.334 -86.667 -113.001 -132c-12.667 -11.333 -57.834 -47.5 -135.501 -108.5s-144.5 -117.5 -200.5 -169.5h275c34.667 0 60.334 4.66699 77.001 14s27 25 31 47l19 104h82l-11 -284h-596z" />
    <glyph glyph-name="threesuperior" unicode="&#xb3;" horiz-adv-x="758" 
d="M242 1114l21.998 -0.000976562c68.667 0 120.667 13.5 156 40.5s53 66.833 53 119.5c0 48.667 -13 86 -39 112s-62.667 39 -110 39c-29.333 0 -56.833 -5 -82.5 -15s-38.5 -18.667 -38.5 -26c0 -1.33301 8.83301 -10.666 26.5 -27.999s26.5 -36.666 26.5 -57.999
c0 -23.333 -8.83301 -42.333 -26.5 -57s-40.167 -22 -67.5 -22c-29.333 0 -52.666 9 -69.999 27s-26 41.667 -26 71c0 49.333 25.667 91 77 125s116.333 51 195 51c84 0 154.5 -21.5 211.5 -64.5s85.5 -95.833 85.5 -158.5c0 -47.333 -17.5 -87.333 -52.5 -120
s-87.833 -58.334 -158.5 -77.001c76 -16 134.667 -45.667 176 -89s62 -97 62 -161c0 -76 -30 -138 -90 -186s-138 -72 -234 -72c-80 0 -147.167 18.167 -201.5 54.5s-81.5 80.5 -81.5 132.5c0 34 10.333 61.833 31 83.5s47.334 32.5 80.001 32.5c26 0 47.5 -7.5 64.5 -22.5
s25.5 -34.167 25.5 -57.5c0 -27.333 -10.5 -50.833 -31.5 -70.5l-31.5 -29.5c0 -10.667 14.333 -21.5 43 -32.5s62 -16.5 100 -16.5c52 0 93 16.167 123 48.5s45 76.833 45 133.5c0 70 -20 123.333 -60 160s-98 55 -174 55c-3.33301 0 -8 -0.333008 -14 -1
s-10.667 -1 -14 -1v80z" />
    <glyph glyph-name="acute" unicode="&#xb4;" 
d="M336 1264l276 298.999c18 19.333 36.333 34.333 55 45s36 16 52 16c20.667 0 38.5 -7.66699 53.5 -23s22.5 -33.666 22.5 -54.999c0 -18 -6 -34.167 -18 -48.5s-34 -31.5 -66 -51.5l-301 -182h-74z" />
    <glyph glyph-name="mu" unicode="&#xb5;" horiz-adv-x="1169" 
d="M166 195c-22 -95.333 -43.335 -213.663 -64.002 -354.996c-24.667 -173.333 -63.334 -260 -116.001 -260c-28.667 0 -50.5 8.16699 -65.5 24.5s-22.5 39.5 -22.5 69.5c0 29.333 23.333 121.666 70 276.999s83.334 296 110.001 422l108 512h168l-100 -475
c-6 -26.667 -10.5 -51.5 -13.5 -74.5s-4.5 -42.833 -4.5 -59.5c0 -46.667 13.833 -82.834 41.5 -108.501s67.5 -38.5 119.5 -38.5c64.667 0 116 18.167 154 54.5s65.333 93.833 82 172.5l112 529h173l-115 -532c-6 -28.667 -10.667 -53.834 -14 -75.501s-5 -39.167 -5 -52.5
c0 -32 8.83301 -56.667 26.5 -74s43.167 -26 76.5 -26c29.333 0 56.333 8.33301 81 25s44 39.667 58 69c8.66699 18 17.667 42.333 27 73c11.333 37.333 24.333 56 39 56c6 0 11.167 -2.66699 15.5 -8s6.5 -12.333 6.5 -21c0 -22.667 -4.5 -52 -13.5 -88
s-20.833 -69.333 -35.5 -100c-26 -52 -56.833 -91 -92.5 -117s-76.5 -39 -122.5 -39c-54 0 -95.833 18.333 -125.5 55s-44.5 88 -44.5 154v13c-34.667 -76.667 -75.667 -132.834 -123 -168.501s-104.666 -53.5 -171.999 -53.5c-63.333 0 -113.666 18.667 -150.999 56
s-60 92 -68 164z" />
    <glyph glyph-name="paragraph" unicode="&#xb6;" 
d="M958 1479l-0.00195312 -86h-120v-1393h-111v1393h-176v-1393h-113v782c-113.333 5.33301 -203.666 39.5 -270.999 102.5s-101 144.833 -101 245.5c0 104.667 35.833 189 107.5 253s166.834 96 285.501 96h499z" />
    <glyph glyph-name="periodcentered" unicode="&#xb7;" horiz-adv-x="573" 
d="M147 735c0 38 13.833 70.333 41.5 97s60.5 40 98.5 40s70.333 -13.167 97 -39.5s40 -58.833 40 -97.5s-13.333 -71.5 -40 -98.5s-59 -40.5 -97 -40.5s-70.833 13.667 -98.5 41s-41.5 60 -41.5 98z" />
    <glyph glyph-name="cedilla" unicode="&#xb8;" 
d="M268 -379l39.001 90c39.333 -24.667 79.166 -43.834 119.499 -57.501s77.833 -20.5 112.5 -20.5c37.333 0 65 7.33301 83 22s27 37.667 27 69c0 28.667 -9.16699 50.167 -27.5 64.5s-45.833 21.5 -82.5 21.5c-2.66699 0 -8.16699 -0.5 -16.5 -1.5
s-22.833 -2.5 -43.5 -4.5v196h66v-115c10.667 1.33301 21.167 2.33301 31.5 3s22.833 1 37.5 1c54 0 97.333 -15.167 130 -45.5s49 -70.166 49 -119.499c0 -56 -19.833 -99.833 -59.5 -131.5s-95.167 -47.5 -166.5 -47.5c-38.667 0 -81.5 6 -128.5 18
s-103.833 31.333 -170.5 58z" />
    <glyph glyph-name="onesuperior" unicode="&#xb9;" horiz-adv-x="758" 
d="M455 764l0.000976562 -2c0 -40.667 8.5 -67.5 25.5 -80.5s47.167 -19.5 90.5 -19.5h52v-74h-486v74h53c45.333 0 77.166 6 95.499 18s27.5 40 27.5 84v461c0 42.667 -8.5 70.667 -25.5 84s-47.167 20 -90.5 20h-52v70c59.333 6.66699 107 16.667 143 30
s64.333 31.333 85 54h82v-719z" />
    <glyph glyph-name="ordmasculine" unicode="&#xba;" horiz-adv-x="952" 
d="M477 752c75.333 0 131.333 27.167 168 81.5s55 137.5 55 249.5c0 112.667 -18.333 196.5 -55 251.5s-92.667 82.5 -168 82.5c-76 0 -132.5 -27.5 -169.5 -82.5s-55.5 -138.833 -55.5 -251.5c0 -112 18.5 -195.167 55.5 -249.5s93.5 -81.5 169.5 -81.5zM477 670
c-119.333 0 -216.001 37.833 -290.001 113.5s-111 175.5 -111 299.5c0 125.333 36.5 225.666 109.5 300.999s170.167 113 291.5 113c120.667 0 217.834 -37.667 291.501 -113s110.5 -175.666 110.5 -300.999c0 -123.333 -37 -223 -111 -299s-171 -114 -291 -114z" />
    <glyph glyph-name="guillemotright" unicode="&#xbb;" 
d="M924 553c-104.667 -80 -200.834 -162.835 -288.501 -248.502s-133.5 -128.5 -137.5 -128.5c-6.66699 0 -11.834 2.33301 -15.501 7s-5.5 11.334 -5.5 20.001c0 22 17.667 62 53 120s89.333 136 162 234c-62 82 -112.333 155.5 -151 220.5s-58 106.833 -58 125.5
c0 8.66699 1.83301 15.334 5.5 20.001s8.83398 7 15.501 7c12.667 0 63.334 -44 152.001 -132s178 -169.667 268 -245zM545 552.998c-104 -80 -200.001 -162.835 -288.001 -248.502s-134 -128.5 -138 -128.5c-6.66699 0 -11.834 2.33301 -15.501 7s-5.5 11.334 -5.5 20.001
c0 22 17.667 62 53 120s89.333 136 162 234c-62 82 -112.333 155.5 -151 220.5s-58 106.833 -58 125.5c0 8.66699 1.83301 15.334 5.5 20.001s8.83398 7 15.501 7c12 0 62.333 -44 151 -132s178.334 -169.667 269.001 -245z" />
    <glyph glyph-name="onequarter" unicode="&#xbc;" horiz-adv-x="1788" 
d="M1479 313v381l-312 -381h312zM1751 70v-69.998h-420v70h43c37.333 0 63.833 6.16699 79.5 18.5s23.5 38.166 23.5 77.499v61h-385v103l417 514h95v-531h147v-86h-147v-67c0 -36.667 7.5 -60.834 22.5 -72.501s40.833 -17.5 77.5 -17.5h47zM516 -46.998h-135l889 1554h135
zM434 813.002l-0.000976562 -3.99805c0 -37.333 8.33301 -62 25 -74s45.334 -18 86.001 -18h49v-70h-465v70h51c43.333 0 74 5.66699 92 17s27 37.666 27 78.999v430c0 39.333 -8.16699 65.166 -24.5 77.499s-45.166 18.5 -86.499 18.5h-51v66
c56.667 5.33301 102.167 14.333 136.5 27s61.166 29.667 80.499 51h80v-670z" />
    <glyph glyph-name="onehalf" unicode="&#xbd;" horiz-adv-x="1788" 
d="M1118 0l0.000976562 110.997l252 219c61.333 53.333 106 102.666 134 147.999s42 90 42 134c0 51.333 -15.667 91.833 -47 121.5s-74.333 44.5 -129 44.5c-34.667 0 -65.834 -6.83301 -93.501 -20.5s-44.834 -31.167 -51.501 -52.5c37.333 -11.333 64 -25.166 80 -41.499
s24 -38.166 24 -65.499c0 -23.333 -8.66699 -42.5 -26 -57.5s-40 -22.5 -68 -22.5c-34 0 -62.333 11.333 -85 34s-34 51.667 -34 87c0 59.333 26.833 108.333 80.5 147s122.5 58 206.5 58c87.333 0 159 -21.333 215 -64s84 -98 84 -166c0 -40 -11.667 -79.833 -35 -119.5
s-59.333 -80.834 -108 -123.501c-11.333 -9.33301 -54.166 -42.666 -128.499 -99.999s-138.833 -110.666 -193.5 -159.999h262c33.333 0 58 4.33301 74 13s26.333 23.334 31 44.001l16 96h78l-10 -264h-570zM516.001 -47.0029h-135l889 1554h135zM434.001 812.997
l-0.000976562 -3.99805c0 -37.333 8.33301 -62 25 -74s45.334 -18 86.001 -18h49v-70h-465v70h51c43.333 0 74 5.66699 92 17s27 37.666 27 78.999v430c0 39.333 -8.16699 65.166 -24.5 77.499s-45.166 18.5 -86.499 18.5h-51v66c56.667 5.33301 102.167 14.333 136.5 27
s61.166 29.667 80.499 51h80v-670z" />
    <glyph glyph-name="threequarters" unicode="&#xbe;" horiz-adv-x="1788" 
d="M1479 313v381l-312 -381h312zM1751 70v-69.998h-420v70h43c37.333 0 63.833 6.16699 79.5 18.5s23.5 38.166 23.5 77.499v61h-385v103l417 514h95v-531h147v-86h-147v-67c0 -36.667 7.5 -60.834 22.5 -72.501s40.833 -17.5 77.5 -17.5h47zM516 -46.998h-135l889 1554h135
zM231 1139l20.9961 0.000976562c66 0 116 12.667 150 38s51 62.333 51 111c0 45.333 -12.5 80.333 -37.5 105s-60.5 37 -106.5 37c-27.333 0 -53.166 -5 -77.499 -15s-36.5 -18 -36.5 -24c0 -2 8.5 -11 25.5 -27s25.5 -33.667 25.5 -53c0 -21.333 -8.66699 -39.333 -26 -54
s-38.666 -22 -63.999 -22c-28.667 0 -51.667 8.66699 -69 26s-26 40 -26 68c0 46 24.667 84.5 74 115.5s112.333 46.5 189 46.5c80 0 146.667 -19.833 200 -59.5s80 -88.834 80 -147.501c0 -44 -16.5 -81.333 -49.5 -112s-82.5 -54.667 -148.5 -72
c72 -14 127.833 -41.333 167.5 -82s59.5 -90.667 59.5 -150c0 -72 -28.667 -130.5 -86 -175.5s-131.666 -67.5 -222.999 -67.5c-77.333 0 -141.833 17.167 -193.5 51.5s-77.5 75.833 -77.5 124.5c0 31.333 9.83301 57.166 29.5 77.499s44.834 30.5 75.501 30.5
c25.333 0 46.333 -7 63 -21s25 -32 25 -54c0 -25.333 -10.667 -47 -32 -65s-32 -28 -32 -30c0 -8.66699 14.167 -18 42.5 -28s59.833 -15 94.5 -15c50 0 89.167 14.833 117.5 44.5s42.5 70.834 42.5 123.501c0 66 -18.667 116 -56 150s-92.333 51 -165 51h-27v74z" />
    <glyph glyph-name="questiondown" unicode="&#xbf;" horiz-adv-x="1147" 
d="M596 893v197.001h115v-305c-114.667 -3.33301 -195.667 -32.666 -243 -87.999s-71 -150.333 -71 -285c0 -111.333 18.167 -194.833 54.5 -250.5s90.5 -83.5 162.5 -83.5c57.333 0 107.5 16.667 150.5 50s64.5 63 64.5 89c0 3.33301 -13.167 18.666 -39.5 45.999
s-39.5 59.666 -39.5 96.999s10.667 66.5 32 87.5s50.666 31.5 87.999 31.5c43.333 0 75.666 -13.167 96.999 -39.5s32 -65.5 32 -117.5c0 -102.667 -37.667 -188.5 -113 -257.5s-170.666 -103.5 -285.999 -103.5c-126 0 -227.167 41.167 -303.5 123.5
s-114.5 191.5 -114.5 327.5c0 141.333 34.333 252 103 332s172.334 129.667 311.001 149zM795 1366c0 -38 -13.5 -70.667 -40.5 -98s-59.5 -41 -97.5 -41s-70.667 13.5 -98 40.5s-41 59.833 -41 98.5c0 38 13.5 70.333 40.5 97s59.833 40 98.5 40
c38 0 70.5 -13.333 97.5 -40s40.5 -59 40.5 -97z" />
    <glyph glyph-name="Agrave" unicode="&#xc0;" horiz-adv-x="1651" 
d="M535 668h499l-241 635zM18 0l0.000976562 141c4 0 9.16699 -0.333008 15.5 -1s10.833 -1 13.5 -1c44.667 0 80.5 11.833 107.5 35.5s59.5 80.834 97.5 171.501l469 1129h244l446 -1164c1.33301 -2.66699 2.66602 -6 3.99902 -10c41.333 -106.667 106.333 -160 195 -160
h20l6 -141h-655v141h88c40.667 0 71 6.83301 91 20.5s30 34.167 30 61.5c0 12 -1.66699 26.333 -5 43s-8 31.667 -14 45l-81 215h-611l-88 -219c-6 -14.667 -10.833 -30.334 -14.5 -47.001s-5.5 -31 -5.5 -43c0 -24 10 -42.667 30 -56s48 -20 84 -20h99v-141h-566z
M1001 1620l-74 0.000976562l-301 182c-32 20 -54 37.167 -66 51.5s-18 30.5 -18 48.5c0 21.333 7.5 39.666 22.5 54.999s32.833 23 53.5 23c16 0 33.333 -5.33301 52 -16s37 -25.667 55 -45z" />
    <glyph glyph-name="Aacute" unicode="&#xc1;" horiz-adv-x="1651" 
d="M535 668h499l-241 635zM18 0l0.000976562 141c4 0 9.16699 -0.333008 15.5 -1s10.833 -1 13.5 -1c44.667 0 80.5 11.833 107.5 35.5s59.5 80.834 97.5 171.501l469 1129h244l446 -1164c1.33301 -2.66699 2.66602 -6 3.99902 -10c41.333 -106.667 106.333 -160 195 -160
h20l6 -141h-655v141h88c40.667 0 71 6.83301 91 20.5s30 34.167 30 61.5c0 12 -1.66699 26.333 -5 43s-8 31.667 -14 45l-81 215h-611l-88 -219c-6 -14.667 -10.833 -30.334 -14.5 -47.001s-5.5 -31 -5.5 -43c0 -24 10 -42.667 30 -56s48 -20 84 -20h99v-141h-566z
M649.001 1620l276 298.999c18 19.333 36.333 34.333 55 45s36 16 52 16c20.667 0 38.5 -7.66699 53.5 -23s22.5 -33.666 22.5 -54.999c0 -18 -6 -34.167 -18 -48.5s-34 -31.5 -66 -51.5l-301 -182h-74z" />
    <glyph glyph-name="Acircumflex" unicode="&#xc2;" horiz-adv-x="1651" 
d="M535 668h499l-241 635zM18 0l0.000976562 141c4 0 9.16699 -0.333008 15.5 -1s10.833 -1 13.5 -1c44.667 0 80.5 11.833 107.5 35.5s59.5 80.834 97.5 171.501l469 1129h244l446 -1164c1.33301 -2.66699 2.66602 -6 3.99902 -10c41.333 -106.667 106.333 -160 195 -160
h20l6 -141h-655v141h88c40.667 0 71 6.83301 91 20.5s30 34.167 30 61.5c0 12 -1.66699 26.333 -5 43s-8 31.667 -14 45l-81 215h-611l-88 -219c-6 -14.667 -10.833 -30.334 -14.5 -47.001s-5.5 -31 -5.5 -43c0 -24 10 -42.667 30 -56s48 -20 84 -20h99v-141h-566z
M530.001 1620l227 348h134l229 -348h-74l-221 194l-221 -194h-74z" />
    <glyph glyph-name="Atilde" unicode="&#xc3;" horiz-adv-x="1651" 
d="M535 668h499l-241 635zM18 0l0.000976562 141c4 0 9.16699 -0.333008 15.5 -1s10.833 -1 13.5 -1c44.667 0 80.5 11.833 107.5 35.5s59.5 80.834 97.5 171.501l469 1129h244l446 -1164c1.33301 -2.66699 2.66602 -6 3.99902 -10c41.333 -106.667 106.333 -160 195 -160
h20l6 -141h-655v141h88c40.667 0 71 6.83301 91 20.5s30 34.167 30 61.5c0 12 -1.66699 26.333 -5 43s-8 31.667 -14 45l-81 215h-611l-88 -219c-6 -14.667 -10.833 -30.334 -14.5 -47.001s-5.5 -31 -5.5 -43c0 -24 10 -42.667 30 -56s48 -20 84 -20h99v-141h-566z
M1108 1937c-14.667 -75.333 -38.5029 -132.333 -71.5029 -171s-74.167 -58 -123.5 -58c-8 0 -16.167 0.5 -24.5 1.5s-17.5 2.5 -27.5 4.5l-106 26c-18 4.66699 -30.5 7.66699 -37.5 9s-12.167 2 -15.5 2c-28 0 -49.333 -6.66699 -64 -20s-27.334 -37.333 -38.001 -72h-58
c14.667 76.667 38.667 134.667 72 174s75 59 125 59c6 0 14.333 -0.833008 25 -2.5s23.334 -4.16699 38.001 -7.5l109 -27c8 -2 16.333 -3.5 25 -4.5s17.334 -1.5 26.001 -1.5c22.667 0 41.334 7.33301 56.001 22s25.334 36.667 32.001 66h58z" />
    <glyph glyph-name="Adieresis" unicode="&#xc4;" horiz-adv-x="1651" 
d="M535 668h499l-241 635zM18 0l0.000976562 141c4 0 9.16699 -0.333008 15.5 -1s10.833 -1 13.5 -1c44.667 0 80.5 11.833 107.5 35.5s59.5 80.834 97.5 171.501l469 1129h244l446 -1164c1.33301 -2.66699 2.66602 -6 3.99902 -10c41.333 -106.667 106.333 -160 195 -160
h20l6 -141h-655v141h88c40.667 0 71 6.83301 91 20.5s30 34.167 30 61.5c0 12 -1.66699 26.333 -5 43s-8 31.667 -14 45l-81 215h-611l-88 -219c-6 -14.667 -10.833 -30.334 -14.5 -47.001s-5.5 -31 -5.5 -43c0 -24 10 -42.667 30 -56s48 -20 84 -20h99v-141h-566z
M895.001 1783c0 30 11 56.001 33 78.001s48.333 33 79 33c31.333 0 58 -10.833 80 -32.5s33 -47.834 33 -78.501c0 -32 -10.833 -59 -32.5 -81s-48.5 -33 -80.5 -33c-31.333 0 -57.833 11 -79.5 33s-32.5 49 -32.5 81zM530.001 1783c0 30 11.5 56 34.5 78s49.833 33 80.5 33
s56.667 -10.667 78 -32s32 -47.666 32 -78.999c0 -32.667 -10.5 -59.834 -31.5 -81.501s-47.167 -32.5 -78.5 -32.5c-32 0 -59.167 11 -81.5 33s-33.5 49 -33.5 81z" />
    <glyph glyph-name="Aring" unicode="&#xc5;" horiz-adv-x="1651" 
d="M696 1733c0 -38 13.5 -70.5 40.5 -97.5s59.5 -40.5 97.5 -40.5c37.333 0 69.5 13.5 96.5 40.5s40.5 59.5 40.5 97.5c0 37.333 -13.5 69.5 -40.5 96.5s-59.167 40.5 -96.5 40.5c-38 0 -70.5 -13.5 -97.5 -40.5s-40.5 -59.167 -40.5 -96.5zM594 1733
c0 66.667 23.167 123.169 69.5 169.502s103.166 69.5 170.499 69.5s124 -23 170 -69s69 -102.667 69 -170c0 -66.667 -23.333 -123.334 -70 -170.001s-103 -70 -169 -70c-67.333 0 -124.166 23.167 -170.499 69.5s-69.5 103.166 -69.5 170.499zM535 668.002h499l-243 635z
M18 0.00195312l1.00098 135.001c56.667 2 99.667 14 129 36s63.333 80.333 102 175l459 1098h264l438 -1133c1.33301 -2.66699 2.66602 -6 3.99902 -10c41.333 -106.667 104.333 -160 189 -160h26l4 -141h-655v141h90c40.667 0 71 6.83301 91 20.5s30 34.167 30 61.5
c0 12 -1.66699 26.333 -5 43s-8 31.667 -14 45l-81 215h-611l-88 -219c-6 -14.667 -10.833 -30.334 -14.5 -47.001s-5.5 -31 -5.5 -43c0 -24 10 -42.667 30 -56s48 -20 84 -20h101v-141h-568z" />
    <glyph glyph-name="AE" unicode="&#xc6;" horiz-adv-x="2175" 
d="M1178 696l0.000976562 -368c0 -74 13.833 -123.667 41.5 -149s81.167 -38 160.5 -38h207c98.667 0 166.5 10.833 203.5 32.5s57.833 61.167 62.5 118.5l23 259h160v-551h-1282v141c78.667 3.33301 130.334 16.833 155.001 40.5s37 73.834 37 150.501v280h-450l-142 -262
c-11.333 -22 -21 -46 -29 -72s-12 -46.333 -12 -61c0 -26.667 11.167 -46 33.5 -58s59.833 -18 112.5 -18h16v-141h-532v141c4.66699 -0.666992 9.16699 -1.16699 13.5 -1.5s10.5 -0.5 18.5 -0.5c38 0 69 8.83301 93 26.5s53.333 59.5 88 125.5l450 842
c12 22 21.167 42.167 27.5 60.5s9.5 34.166 9.5 47.499c0 29.333 -13 52.333 -39 69s-62 25 -108 25c-5.33301 0 -17.333 -0.5 -36 -1.5s-33.334 -1.83301 -44.001 -2.5l12 144h1602v-533h-158l-23 240c-5.33301 57.333 -26 96.5 -62 117.5s-104 31.5 -204 31.5h-192
c-88.667 0 -146.334 -12.167 -173.001 -36.5s-40 -74.833 -40 -151.5v-303h98c80.667 0 136 12 166 36s45 67.333 45 130v98h149v-680h-149v106c0 62.667 -15.333 106 -46 130s-85.667 36 -165 36h-98zM569.001 752h374.999v495c0 22 -4.5 39.167 -13.5 51.5
s-21.5 18.5 -37.5 18.5c-5.33301 0 -15.666 -3 -30.999 -9l-3 -1z" />
    <glyph glyph-name="Ccedilla" unicode="&#xc7;" horiz-adv-x="1602" 
d="M1520 518c-60 -184 -145.334 -322.833 -256.001 -416.5s-246 -140.5 -406 -140.5c-215.333 0 -391.666 72.5 -528.999 217.5s-206 330.5 -206 556.5c0 219.333 67.667 402.833 203 550.5s301.666 221.5 498.999 221.5c105.333 0 205 -21.5 299 -64.5
s143.333 -64.5 148 -64.5c22.667 0 41.334 9.33301 56.001 28s24.667 45.667 30 81h127l18 -604h-123c-44 155.333 -109.5 274.666 -196.5 357.999s-189.167 125 -306.5 125c-137.333 0 -248.5 -58 -333.5 -174s-127.5 -268.333 -127.5 -457
c0 -195.333 41.833 -349.666 125.5 -462.999s197.5 -170 341.5 -170c114 0 212.167 38.5 294.5 115.5s152.833 196.167 211.5 357.5zM611.999 -379l39.001 90c39.333 -24.667 79.166 -43.834 119.499 -57.501s77.833 -20.5 112.5 -20.5c37.333 0 65 7.33301 83 22
s27 37.667 27 69c0 28.667 -9.16699 50.167 -27.5 64.5s-45.833 21.5 -82.5 21.5c-2.66699 0 -8.16699 -0.5 -16.5 -1.5s-22.833 -2.5 -43.5 -4.5v196h66v-115c10.667 1.33301 21.167 2.33301 31.5 3s22.833 1 37.5 1c54 0 97.333 -15.167 130 -45.5s49 -70.166 49 -119.499
c0 -56 -19.833 -99.833 -59.5 -131.5s-95.167 -47.5 -166.5 -47.5c-38.667 0 -81.5 6 -128.5 18s-103.833 31.333 -170.5 58z" />
    <glyph glyph-name="Egrave" unicode="&#xc8;" horiz-adv-x="1597" 
d="M559 332c0 -77.333 12.832 -128.501 38.499 -153.501s75.834 -37.5 150.501 -37.5h296c99.333 0 165 12.667 197 38s50.333 86.333 55 183l9 183h155v-545h-1386v141h82c63.333 0 107.833 13.333 133.5 40s38.5 77 38.5 151v811c0 74 -12 123.833 -36 149.5
s-69.333 38.5 -136 38.5h-82v144h1362v-533h-148l-10 170c-6 98 -24.833 159 -56.5 183s-96.167 36 -193.5 36h-270c-80 0 -133.167 -12 -159.5 -36s-39.5 -74.667 -39.5 -152v-303h148c69.333 0 117.833 9.83301 145.5 29.5s45.167 64.834 52.5 135.501v109h131v-686h-131
v102c-8 72.667 -26 118.5 -54 137.5s-76 28.5 -144 28.5h-148v-364zM986.999 1620l-74 0.000976562l-301 182c-32 20 -54 37.167 -66 51.5s-18 30.5 -18 48.5c0 21.333 7.5 39.666 22.5 54.999s32.833 23 53.5 23c16 0 33.333 -5.33301 52 -16s37 -25.667 55 -45z" />
    <glyph glyph-name="Eacute" unicode="&#xc9;" horiz-adv-x="1597" 
d="M559 332c0 -77.333 12.832 -128.501 38.499 -153.501s75.834 -37.5 150.501 -37.5h296c99.333 0 165 12.667 197 38s50.333 86.333 55 183l9 183h155v-545h-1386v141h82c63.333 0 107.833 13.333 133.5 40s38.5 77 38.5 151v811c0 74 -12 123.833 -36 149.5
s-69.333 38.5 -136 38.5h-82v144h1362v-533h-148l-10 170c-6 98 -24.833 159 -56.5 183s-96.167 36 -193.5 36h-270c-80 0 -133.167 -12 -159.5 -36s-39.5 -74.667 -39.5 -152v-303h148c69.333 0 117.833 9.83301 145.5 29.5s45.167 64.834 52.5 135.501v109h131v-686h-131
v102c-8 72.667 -26 118.5 -54 137.5s-76 28.5 -144 28.5h-148v-364zM634.999 1620l276 298.999c18 19.333 36.333 34.333 55 45s36 16 52 16c20.667 0 38.5 -7.66699 53.5 -23s22.5 -33.666 22.5 -54.999c0 -18 -6 -34.167 -18 -48.5s-34 -31.5 -66 -51.5l-301 -182h-74z
" />
    <glyph glyph-name="Ecircumflex" unicode="&#xca;" horiz-adv-x="1597" 
d="M559 332c0 -77.333 12.832 -128.501 38.499 -153.501s75.834 -37.5 150.501 -37.5h296c99.333 0 165 12.667 197 38s50.333 86.333 55 183l9 183h155v-545h-1386v141h82c63.333 0 107.833 13.333 133.5 40s38.5 77 38.5 151v811c0 74 -12 123.833 -36 149.5
s-69.333 38.5 -136 38.5h-82v144h1362v-533h-148l-10 170c-6 98 -24.833 159 -56.5 183s-96.167 36 -193.5 36h-270c-80 0 -133.167 -12 -159.5 -36s-39.5 -74.667 -39.5 -152v-303h148c69.333 0 117.833 9.83301 145.5 29.5s45.167 64.834 52.5 135.501v109h131v-686h-131
v102c-8 72.667 -26 118.5 -54 137.5s-76 28.5 -144 28.5h-148v-364zM515.999 1620l227 348h134l229 -348h-74l-221 194l-221 -194h-74z" />
    <glyph glyph-name="Edieresis" unicode="&#xcb;" horiz-adv-x="1597" 
d="M559 332c0 -77.333 12.832 -128.501 38.499 -153.501s75.834 -37.5 150.501 -37.5h296c99.333 0 165 12.667 197 38s50.333 86.333 55 183l9 183h155v-545h-1386v141h82c63.333 0 107.833 13.333 133.5 40s38.5 77 38.5 151v811c0 74 -12 123.833 -36 149.5
s-69.333 38.5 -136 38.5h-82v144h1362v-533h-148l-10 170c-6 98 -24.833 159 -56.5 183s-96.167 36 -193.5 36h-270c-80 0 -133.167 -12 -159.5 -36s-39.5 -74.667 -39.5 -152v-303h148c69.333 0 117.833 9.83301 145.5 29.5s45.167 64.834 52.5 135.501v109h131v-686h-131
v102c-8 72.667 -26 118.5 -54 137.5s-76 28.5 -144 28.5h-148v-364zM880.999 1783c0 30 11 56.001 33 78.001s48.333 33 79 33c31.333 0 58 -10.833 80 -32.5s33 -47.834 33 -78.501c0 -32 -10.833 -59 -32.5 -81s-48.5 -33 -80.5 -33c-31.333 0 -57.833 11 -79.5 33
s-32.5 49 -32.5 81zM515.999 1783c0 30 11.5 56 34.5 78s49.833 33 80.5 33s56.667 -10.667 78 -32s32 -47.666 32 -78.999c0 -32.667 -10.5 -59.834 -31.5 -81.501s-47.167 -32.5 -78.5 -32.5c-32 0 -59.167 11 -81.5 33s-33.5 49 -33.5 81z" />
    <glyph glyph-name="Igrave" unicode="&#xcc;" horiz-adv-x="887" 
d="M74 1475l739 0.000976562v-144h-82c-65.333 0 -110.333 -12.667 -135 -38s-37 -75.333 -37 -150v-811c0 -74.667 12.333 -125.167 37 -151.5s69.667 -39.5 135 -39.5h82v-141h-739v141h82c65.333 0 110.333 13.167 135 39.5s37 80.166 37 161.499v801
c0 74 -12.167 123.833 -36.5 149.5s-69.5 38.5 -135.5 38.5h-82v144zM620 1620l-74 0.000976562l-301 182c-32 20 -54 37.167 -66 51.5s-18 30.5 -18 48.5c0 21.333 7.5 39.666 22.5 54.999s32.833 23 53.5 23c16 0 33.333 -5.33301 52 -16s37 -25.667 55 -45z" />
    <glyph glyph-name="Iacute" unicode="&#xcd;" horiz-adv-x="887" 
d="M74 1475l739 0.000976562v-144h-82c-65.333 0 -110.333 -12.667 -135 -38s-37 -75.333 -37 -150v-811c0 -74.667 12.333 -125.167 37 -151.5s69.667 -39.5 135 -39.5h82v-141h-739v141h82c65.333 0 110.333 13.167 135 39.5s37 80.166 37 161.499v801
c0 74 -12.167 123.833 -36.5 149.5s-69.5 38.5 -135.5 38.5h-82v144zM268 1620l276 298.999c18 19.333 36.333 34.333 55 45s36 16 52 16c20.667 0 38.5 -7.66699 53.5 -23s22.5 -33.666 22.5 -54.999c0 -18 -6 -34.167 -18 -48.5s-34 -31.5 -66 -51.5l-301 -182h-74z" />
    <glyph glyph-name="Icircumflex" unicode="&#xce;" horiz-adv-x="887" 
d="M74 1475l739 0.000976562v-144h-82c-65.333 0 -110.333 -12.667 -135 -38s-37 -75.333 -37 -150v-811c0 -74.667 12.333 -125.167 37 -151.5s69.667 -39.5 135 -39.5h82v-141h-739v141h82c65.333 0 110.333 13.167 135 39.5s37 80.166 37 161.499v801
c0 74 -12.167 123.833 -36.5 149.5s-69.5 38.5 -135.5 38.5h-82v144zM149 1620l227 348h134l229 -348h-74l-221 194l-221 -194h-74z" />
    <glyph glyph-name="Idieresis" unicode="&#xcf;" horiz-adv-x="887" 
d="M74 1475l739 0.000976562v-144h-82c-65.333 0 -110.333 -12.667 -135 -38s-37 -75.333 -37 -150v-811c0 -74.667 12.333 -125.167 37 -151.5s69.667 -39.5 135 -39.5h82v-141h-739v141h82c65.333 0 110.333 13.167 135 39.5s37 80.166 37 161.499v801
c0 74 -12.167 123.833 -36.5 149.5s-69.5 38.5 -135.5 38.5h-82v144zM514 1783c0 30 11 56.001 33 78.001s48.333 33 79 33c31.333 0 58 -10.833 80 -32.5s33 -47.834 33 -78.501c0 -32 -10.833 -59 -32.5 -81s-48.5 -33 -80.5 -33c-31.333 0 -57.833 11 -79.5 33
s-32.5 49 -32.5 81zM149 1783c0 30 11.5 56 34.5 78s49.833 33 80.5 33s56.667 -10.667 78 -32s32 -47.666 32 -78.999c0 -32.667 -10.5 -59.834 -31.5 -81.501s-47.167 -32.5 -78.5 -32.5c-32 0 -59.167 11 -81.5 33s-33.5 49 -33.5 81z" />
    <glyph glyph-name="Eth" unicode="&#xd0;" horiz-adv-x="1804" 
d="M569 1143l0.00195312 -309.001h412v-134h-412v-368c0 -84 16.667 -138.167 50 -162.5s100.666 -36.5 201.999 -36.5c192.667 0 336.167 49.5 430.5 148.5s141.5 250.167 141.5 453.5c0 204 -46.333 356 -139 456s-232 150 -418 150
c-110.667 0 -182.834 -11.667 -216.501 -35s-50.5 -77.666 -50.5 -162.999zM88.002 140.999l80.001 -0.000976562c61.333 0 104.666 13.167 129.999 39.5s38 76.833 38 151.5v368h-326v134h326v309c0 74 -11.5 123.833 -34.5 149.5s-67.5 38.5 -133.5 38.5h-80v144h729
c125.333 0 228.833 -8.66699 310.5 -26s154.5 -45 218.5 -83c109.333 -65.333 194.333 -153 255 -263s91 -232.667 91 -368c0 -138.667 -29.833 -263.5 -89.5 -374.5s-142.5 -197.167 -248.5 -258.5c-62 -35.333 -137 -61.166 -225 -77.499s-198.667 -24.5 -332 -24.5h-709
v141z" />
    <glyph glyph-name="Ntilde" unicode="&#xd1;" horiz-adv-x="1749" 
d="M471 1219v-895c0 -77.333 10.5 -126.833 31.5 -148.5s69.167 -32.5 144.5 -32.5h49v-143h-639v143h90c65.333 0 109.333 11.5 132 34.5s34 74.5 34 154.5v770c0 99.333 -10.333 162.333 -31 189s-66.334 40 -137.001 40h-88v144h498l735 -1108v776
c0 82 -10.333 133.833 -31 155.5s-69 32.5 -145 32.5h-72v144h662v-144h-94c-63.333 0 -106.166 -11.667 -128.499 -35s-33.5 -74.333 -33.5 -153v-1143h-166zM1188 1937c-14.667 -75.333 -38.5029 -132.333 -71.5029 -171s-74.167 -58 -123.5 -58
c-8 0 -16.167 0.5 -24.5 1.5s-17.5 2.5 -27.5 4.5l-106 26c-18 4.66699 -30.5 7.66699 -37.5 9s-12.167 2 -15.5 2c-28 0 -49.333 -6.66699 -64 -20s-27.334 -37.333 -38.001 -72h-58c14.667 76.667 38.667 134.667 72 174s75 59 125 59c6 0 14.333 -0.833008 25 -2.5
s23.334 -4.16699 38.001 -7.5l109 -27c8 -2 16.333 -3.5 25 -4.5s17.334 -1.5 26.001 -1.5c22.667 0 41.334 7.33301 56.001 22s25.334 36.667 32.001 66h58z" />
    <glyph glyph-name="Ograve" unicode="&#xd2;" horiz-adv-x="1835" 
d="M123 741c0 225.333 74.167 409.335 222.5 552.002s339.166 214 572.499 214c234 0 424.833 -71.5 572.5 -214.5s221.5 -328.833 221.5 -557.5s-73.833 -414.834 -221.5 -558.501s-338.5 -215.5 -572.5 -215.5c-235.333 0 -426.666 72.167 -573.999 216.5
s-221 332.166 -221 563.499zM920 1366c-156 0 -279.001 -56.167 -369.001 -168.5s-135 -266.5 -135 -462.5s44.833 -350.167 134.5 -462.5s212.834 -168.5 369.501 -168.5c156 0 277.833 55.333 365.5 166s131.5 265.667 131.5 465s-43.833 354.333 -131.5 465
s-209.5 166 -365.5 166zM1094 1620l-74 0.000976562l-301 182c-32 20 -54 37.167 -66 51.5s-18 30.5 -18 48.5c0 21.333 7.5 39.666 22.5 54.999s32.833 23 53.5 23c16 0 33.333 -5.33301 52 -16s37 -25.667 55 -45z" />
    <glyph glyph-name="Oacute" unicode="&#xd3;" horiz-adv-x="1835" 
d="M123 741c0 225.333 74.167 409.335 222.5 552.002s339.166 214 572.499 214c234 0 424.833 -71.5 572.5 -214.5s221.5 -328.833 221.5 -557.5s-73.833 -414.834 -221.5 -558.501s-338.5 -215.5 -572.5 -215.5c-235.333 0 -426.666 72.167 -573.999 216.5
s-221 332.166 -221 563.499zM920 1366c-156 0 -279.001 -56.167 -369.001 -168.5s-135 -266.5 -135 -462.5s44.833 -350.167 134.5 -462.5s212.834 -168.5 369.501 -168.5c156 0 277.833 55.333 365.5 166s131.5 265.667 131.5 465s-43.833 354.333 -131.5 465
s-209.5 166 -365.5 166zM741.999 1620l276 298.999c18 19.333 36.333 34.333 55 45s36 16 52 16c20.667 0 38.5 -7.66699 53.5 -23s22.5 -33.666 22.5 -54.999c0 -18 -6 -34.167 -18 -48.5s-34 -31.5 -66 -51.5l-301 -182h-74z" />
    <glyph glyph-name="Ocircumflex" unicode="&#xd4;" horiz-adv-x="1835" 
d="M123 741c0 225.333 74.167 409.335 222.5 552.002s339.166 214 572.499 214c234 0 424.833 -71.5 572.5 -214.5s221.5 -328.833 221.5 -557.5s-73.833 -414.834 -221.5 -558.501s-338.5 -215.5 -572.5 -215.5c-235.333 0 -426.666 72.167 -573.999 216.5
s-221 332.166 -221 563.499zM920 1366c-156 0 -279.001 -56.167 -369.001 -168.5s-135 -266.5 -135 -462.5s44.833 -350.167 134.5 -462.5s212.834 -168.5 369.501 -168.5c156 0 277.833 55.333 365.5 166s131.5 265.667 131.5 465s-43.833 354.333 -131.5 465
s-209.5 166 -365.5 166zM622.999 1620l227 348h134l229 -348h-74l-221 194l-221 -194h-74z" />
    <glyph glyph-name="Otilde" unicode="&#xd5;" horiz-adv-x="1835" 
d="M123 741c0 225.333 74.167 409.335 222.5 552.002s339.166 214 572.499 214c234 0 424.833 -71.5 572.5 -214.5s221.5 -328.833 221.5 -557.5s-73.833 -414.834 -221.5 -558.501s-338.5 -215.5 -572.5 -215.5c-235.333 0 -426.666 72.167 -573.999 216.5
s-221 332.166 -221 563.499zM920 1366c-156 0 -279.001 -56.167 -369.001 -168.5s-135 -266.5 -135 -462.5s44.833 -350.167 134.5 -462.5s212.834 -168.5 369.501 -168.5c156 0 277.833 55.333 365.5 166s131.5 265.667 131.5 465s-43.833 354.333 -131.5 465
s-209.5 166 -365.5 166zM1201 1937c-14.667 -75.333 -38.5029 -132.333 -71.5029 -171s-74.167 -58 -123.5 -58c-8 0 -16.167 0.5 -24.5 1.5s-17.5 2.5 -27.5 4.5l-106 26c-18 4.66699 -30.5 7.66699 -37.5 9s-12.167 2 -15.5 2c-28 0 -49.333 -6.66699 -64 -20
s-27.334 -37.333 -38.001 -72h-58c14.667 76.667 38.667 134.667 72 174s75 59 125 59c6 0 14.333 -0.833008 25 -2.5s23.334 -4.16699 38.001 -7.5l109 -27c8 -2 16.333 -3.5 25 -4.5s17.334 -1.5 26.001 -1.5c22.667 0 41.334 7.33301 56.001 22s25.334 36.667 32.001 66
h58z" />
    <glyph glyph-name="Odieresis" unicode="&#xd6;" horiz-adv-x="1835" 
d="M123 741c0 225.333 74.167 409.335 222.5 552.002s339.166 214 572.499 214c234 0 424.833 -71.5 572.5 -214.5s221.5 -328.833 221.5 -557.5s-73.833 -414.834 -221.5 -558.501s-338.5 -215.5 -572.5 -215.5c-235.333 0 -426.666 72.167 -573.999 216.5
s-221 332.166 -221 563.499zM920 1366c-156 0 -279.001 -56.167 -369.001 -168.5s-135 -266.5 -135 -462.5s44.833 -350.167 134.5 -462.5s212.834 -168.5 369.501 -168.5c156 0 277.833 55.333 365.5 166s131.5 265.667 131.5 465s-43.833 354.333 -131.5 465
s-209.5 166 -365.5 166zM987.999 1783c0 30 11 56.001 33 78.001s48.333 33 79 33c31.333 0 58 -10.833 80 -32.5s33 -47.834 33 -78.501c0 -32 -10.833 -59 -32.5 -81s-48.5 -33 -80.5 -33c-31.333 0 -57.833 11 -79.5 33s-32.5 49 -32.5 81zM622.999 1783
c0 30 11.5 56 34.5 78s49.833 33 80.5 33s56.667 -10.667 78 -32s32 -47.666 32 -78.999c0 -32.667 -10.5 -59.834 -31.5 -81.501s-47.167 -32.5 -78.5 -32.5c-32 0 -59.167 11 -81.5 33s-33.5 49 -33.5 81z" />
    <glyph glyph-name="multiply" unicode="&#xd7;" horiz-adv-x="1706" 
d="M391 1178l469 -469l469 469l98 -99l-469 -469l469 -469l-98 -96l-469 467l-469 -467l-98 96l469 469l-469 469z" />
    <glyph glyph-name="Oslash" unicode="&#xd8;" horiz-adv-x="1835" 
d="M397 135c-91.333 73.333 -159.832 159.833 -205.499 259.5s-68.5 213.167 -68.5 340.5c0 226 73.5 411.167 220.5 555.5s333.5 216.5 559.5 216.5c80 0 154 -7.5 222 -22.5s130 -37.5 186 -67.5l170 238h137l-209 -297c101.333 -74 177.166 -162.667 227.499 -266
s75.5 -222.333 75.5 -357c0 -228 -74 -414 -222 -558s-338.667 -216 -572 -216c-78.667 0 -152.167 8.66699 -220.5 26s-136.833 45 -205.5 83l-179 -250h-141zM522.001 307l686 967c-38.667 30.667 -82.167 53.667 -130.5 69s-100.833 23 -157.5 23
c-156 0 -279 -56 -369 -168s-135 -265 -135 -459c0 -81.333 8.83301 -157.833 26.5 -229.5s44.167 -139.167 79.5 -202.5zM1292 1192l-694 -973c50 -40 100.667 -69.167 152 -87.5s108 -27.5 170 -27.5c156 0 277.833 55.333 365.5 166s131.5 265.667 131.5 465
c0 101.333 -10.167 189.5 -30.5 264.5s-51.833 139.167 -94.5 192.5z" />
    <glyph glyph-name="Ugrave" unicode="&#xd9;" horiz-adv-x="1726" 
d="M49 1331v144.002h739v-144h-86c-63.333 0 -107 -13.167 -131 -39.5s-36 -78.5 -36 -156.5v-525c0 -167.333 29.333 -287.333 88 -360s153.334 -109 284.001 -109c127.333 0 220.333 37.333 279 112s88 193.667 88 357v525c0 82 -12.333 135.167 -37 159.5
s-68.334 36.5 -131.001 36.5h-84v144h668v-144h-84c-64 0 -108 -11.667 -132 -35s-36 -80 -36 -170v-516c0 -224.667 -48 -389.334 -144 -494.001s-245.333 -157 -448 -157c-90.667 0 -172 13.167 -244 39.5s-132 65.166 -180 116.499
c-42.667 45.333 -73.167 96.5 -91.5 153.5s-27.5 140.167 -27.5 249.5v76v541c0 78.667 -11.5 131 -34.5 157s-68.833 39 -137.5 39h-82zM1055 1620l-74 0.000976562l-301 182c-32 20 -54 37.167 -66 51.5s-18 30.5 -18 48.5c0 21.333 7.5 39.666 22.5 54.999
s32.833 23 53.5 23c16 0 33.333 -5.33301 52 -16s37 -25.667 55 -45z" />
    <glyph glyph-name="Uacute" unicode="&#xda;" horiz-adv-x="1726" 
d="M49 1331v144.002h739v-144h-86c-63.333 0 -107 -13.167 -131 -39.5s-36 -78.5 -36 -156.5v-525c0 -167.333 29.333 -287.333 88 -360s153.334 -109 284.001 -109c127.333 0 220.333 37.333 279 112s88 193.667 88 357v525c0 82 -12.333 135.167 -37 159.5
s-68.334 36.5 -131.001 36.5h-84v144h668v-144h-84c-64 0 -108 -11.667 -132 -35s-36 -80 -36 -170v-516c0 -224.667 -48 -389.334 -144 -494.001s-245.333 -157 -448 -157c-90.667 0 -172 13.167 -244 39.5s-132 65.166 -180 116.499
c-42.667 45.333 -73.167 96.5 -91.5 153.5s-27.5 140.167 -27.5 249.5v76v541c0 78.667 -11.5 131 -34.5 157s-68.833 39 -137.5 39h-82zM703 1620l276 298.999c18 19.333 36.333 34.333 55 45s36 16 52 16c20.667 0 38.5 -7.66699 53.5 -23s22.5 -33.666 22.5 -54.999
c0 -18 -6 -34.167 -18 -48.5s-34 -31.5 -66 -51.5l-301 -182h-74z" />
    <glyph glyph-name="Ucircumflex" unicode="&#xdb;" horiz-adv-x="1726" 
d="M49 1331v144.002h739v-144h-86c-63.333 0 -107 -13.167 -131 -39.5s-36 -78.5 -36 -156.5v-525c0 -167.333 29.333 -287.333 88 -360s153.334 -109 284.001 -109c127.333 0 220.333 37.333 279 112s88 193.667 88 357v525c0 82 -12.333 135.167 -37 159.5
s-68.334 36.5 -131.001 36.5h-84v144h668v-144h-84c-64 0 -108 -11.667 -132 -35s-36 -80 -36 -170v-516c0 -224.667 -48 -389.334 -144 -494.001s-245.333 -157 -448 -157c-90.667 0 -172 13.167 -244 39.5s-132 65.166 -180 116.499
c-42.667 45.333 -73.167 96.5 -91.5 153.5s-27.5 140.167 -27.5 249.5v76v541c0 78.667 -11.5 131 -34.5 157s-68.833 39 -137.5 39h-82zM584 1620l227 348h134l229 -348h-74l-221 194l-221 -194h-74z" />
    <glyph glyph-name="Udieresis" unicode="&#xdc;" horiz-adv-x="1726" 
d="M49 1331v144.002h739v-144h-86c-63.333 0 -107 -13.167 -131 -39.5s-36 -78.5 -36 -156.5v-525c0 -167.333 29.333 -287.333 88 -360s153.334 -109 284.001 -109c127.333 0 220.333 37.333 279 112s88 193.667 88 357v525c0 82 -12.333 135.167 -37 159.5
s-68.334 36.5 -131.001 36.5h-84v144h668v-144h-84c-64 0 -108 -11.667 -132 -35s-36 -80 -36 -170v-516c0 -224.667 -48 -389.334 -144 -494.001s-245.333 -157 -448 -157c-90.667 0 -172 13.167 -244 39.5s-132 65.166 -180 116.499
c-42.667 45.333 -73.167 96.5 -91.5 153.5s-27.5 140.167 -27.5 249.5v76v541c0 78.667 -11.5 131 -34.5 157s-68.833 39 -137.5 39h-82zM949 1783c0 30 11 56.001 33 78.001s48.333 33 79 33c31.333 0 58 -10.833 80 -32.5s33 -47.834 33 -78.501
c0 -32 -10.833 -59 -32.5 -81s-48.5 -33 -80.5 -33c-31.333 0 -57.833 11 -79.5 33s-32.5 49 -32.5 81zM584 1783c0 30 11.5 56 34.5 78s49.833 33 80.5 33s56.667 -10.667 78 -32s32 -47.666 32 -78.999c0 -32.667 -10.5 -59.834 -31.5 -81.501s-47.167 -32.5 -78.5 -32.5
c-32 0 -59.167 11 -81.5 33s-33.5 49 -33.5 81z" />
    <glyph glyph-name="Yacute" unicode="&#xdd;" horiz-adv-x="1575" 
d="M1135 1159c6 9.33301 11.1641 20.999 15.4971 34.999s6.5 26.333 6.5 37c0 30 -10.667 54.167 -32 72.5s-49.666 27.5 -84.999 27.5h-90v144h662v-144c-71.333 -6.66699 -132.666 -26.167 -183.999 -58.5s-98 -80.5 -140 -144.5l-373 -577v-223
c0 -74.667 14.167 -124.5 42.5 -149.5s79.833 -37.5 154.5 -37.5h121v-141h-866v141h120c74.667 0 126.167 12.667 154.5 38s42.5 76.333 42.5 153v231l-455 654c-26.667 38.667 -57 66.334 -91 83.001s-84.667 27 -152 31v144h737v-144h-92
c-39.333 0 -69.666 -7.16699 -90.999 -21.5s-32 -35.166 -32 -62.499c0 -12.667 2.83301 -25.834 8.5 -39.501s16.5 -32.5 32.5 -56.5l303 -440zM611.997 1620l276 298.999c18 19.333 36.333 34.333 55 45s36 16 52 16c20.667 0 38.5 -7.66699 53.5 -23
s22.5 -33.666 22.5 -54.999c0 -18 -6 -34.167 -18 -48.5s-34 -31.5 -66 -51.5l-301 -182h-74z" />
    <glyph glyph-name="Thorn" unicode="&#xde;" horiz-adv-x="1507" 
d="M866 479c114.667 0 201.833 22.666 261.5 67.999s89.5 111.333 89.5 198c0 97.333 -31 167.5 -93 210.5s-163.667 64.5 -305 64.5c-122 0 -195.833 -12.167 -221.5 -36.5s-38.5 -75.166 -38.5 -152.499v-352h307zM327.999 1143c0 68 -10.834 116.333 -32.501 145
s-57.5 43 -107.5 43h-49h-65v144h739v-144h-119c-45.333 0 -79.166 -13.5 -101.499 -40.5s-33.5 -68.167 -33.5 -123.5v-8h359c184 0 324.833 -35.667 422.5 -107s146.5 -175 146.5 -311c0 -84.667 -22 -158 -66 -220s-106.667 -108 -188 -138
c-40.667 -14.667 -94.167 -25.167 -160.5 -31.5s-156.833 -9.5 -271.5 -9.5h-242v-53c0 -50.667 14.5 -88 43.5 -112s74.5 -36 136.5 -36h74v-141h-739v141h73c68 0 115.167 12.833 141.5 38.5s39.5 76.5 39.5 152.5v811z" />
    <glyph glyph-name="germandbls" unicode="&#xdf;" horiz-adv-x="1262" 
d="M45 0l0.000976562 112.999c70.667 8 116.667 23.167 138 45.5s32 75.166 32 158.499v801c0 144.667 33.5 252.167 100.5 322.5s169.5 105.5 307.5 105.5c129.333 0 234.333 -30.167 315 -90.5s121 -137.833 121 -232.5c0 -82.667 -24.5 -150.167 -73.5 -202.5
s-123.5 -90.833 -223.5 -115.5c140 -32 242.5 -87 307.5 -165s97.5 -184.667 97.5 -320c0 -141.333 -34.833 -254.166 -104.5 -338.499s-162.5 -126.5 -278.5 -126.5c-81.333 0 -147 20.833 -197 62.5s-75 95.167 -75 160.5c0 46 12.333 83.5 37 112.5s56.667 43.5 96 43.5
c37.333 0 66.5 -9.83301 87.5 -29.5s31.5 -46.834 31.5 -81.501c0 -28.667 -11.333 -52 -34 -70s-34 -28.667 -34 -32c0 -12 6.83301 -23.167 20.5 -33.5s30.167 -15.5 49.5 -15.5c54 0 95.833 29.833 125.5 89.5s44.5 143.834 44.5 252.501
c0 148.667 -25 255.334 -75 320.001s-132.333 97 -247 97h-28v113h18c72 0 127.5 22 166.5 66s58.5 106 58.5 186c0 74.667 -18.167 132.667 -54.5 174s-87.5 62 -153.5 62c-72.667 0 -125.334 -19.5 -158.001 -58.5s-49 -102.167 -49 -189.5v-1184h-369z" />
    <glyph glyph-name="agrave" unicode="&#xe0;" horiz-adv-x="1223" 
d="M813 569c-148 -17.333 -264.165 -53.168 -348.498 -107.501s-126.5 -119.5 -126.5 -195.5c0 -46.667 13.667 -83.167 41 -109.5s65.666 -39.5 114.999 -39.5c101.333 0 180.166 33.5 236.499 100.5s84.5 161.167 84.5 282.5c0 18.667 -0.166992 32.834 -0.5 42.501
s-0.833008 18.5 -1.5 26.5zM829.002 163.998c-46.667 -63.333 -105.667 -112.332 -177 -146.999s-148.666 -52 -231.999 -52c-98 0 -175.5 23.5 -232.5 70.5s-85.5 110.833 -85.5 191.5c0 115.333 59.667 212 179 290s296.666 136.333 531.999 175v94
c0 82 -22.833 144.167 -68.5 186.5s-112.167 63.5 -199.5 63.5c-54.667 0 -103.667 -9.33301 -147 -28s-73.666 -43.334 -90.999 -74.001c7.33301 -8 18.666 -18 33.999 -30c33.333 -26 50 -57 50 -93c0 -36.667 -11.667 -65 -35 -85s-56.666 -30 -99.999 -30
c-40.667 0 -72.334 12.167 -95.001 36.5s-34 58.833 -34 103.5c0 96 40.5 172.5 121.5 229.5s192.167 85.5 333.5 85.5c59.333 0 115.666 -7.16699 168.999 -21.5s99.333 -34.5 138 -60.5c45.333 -30 77.166 -66.167 95.499 -108.5s27.5 -114.166 27.5 -215.499v-552
c0 -34.667 4.83301 -59.834 14.5 -75.501s25.167 -23.5 46.5 -23.5c17.333 0 31.5 6 42.5 18s18.833 29.333 23.5 52h84v-4c0 -58.667 -18 -105.5 -54 -140.5s-83.667 -52.5 -143 -52.5c-57.333 0 -102.666 16.667 -135.999 50s-53.666 82.333 -60.999 147zM776.002 1264
l-74 0.000976562l-301 182c-32 20 -54 37.167 -66 51.5s-18 30.5 -18 48.5c0 21.333 7.5 39.666 22.5 54.999s32.833 23 53.5 23c16 0 33.333 -5.33301 52 -16s37 -25.667 55 -45z" />
    <glyph glyph-name="aacute" unicode="&#xe1;" horiz-adv-x="1223" 
d="M813 569c-148 -17.333 -264.165 -53.168 -348.498 -107.501s-126.5 -119.5 -126.5 -195.5c0 -46.667 13.667 -83.167 41 -109.5s65.666 -39.5 114.999 -39.5c101.333 0 180.166 33.5 236.499 100.5s84.5 161.167 84.5 282.5c0 18.667 -0.166992 32.834 -0.5 42.501
s-0.833008 18.5 -1.5 26.5zM829.002 163.998c-46.667 -63.333 -105.667 -112.332 -177 -146.999s-148.666 -52 -231.999 -52c-98 0 -175.5 23.5 -232.5 70.5s-85.5 110.833 -85.5 191.5c0 115.333 59.667 212 179 290s296.666 136.333 531.999 175v94
c0 82 -22.833 144.167 -68.5 186.5s-112.167 63.5 -199.5 63.5c-54.667 0 -103.667 -9.33301 -147 -28s-73.666 -43.334 -90.999 -74.001c7.33301 -8 18.666 -18 33.999 -30c33.333 -26 50 -57 50 -93c0 -36.667 -11.667 -65 -35 -85s-56.666 -30 -99.999 -30
c-40.667 0 -72.334 12.167 -95.001 36.5s-34 58.833 -34 103.5c0 96 40.5 172.5 121.5 229.5s192.167 85.5 333.5 85.5c59.333 0 115.666 -7.16699 168.999 -21.5s99.333 -34.5 138 -60.5c45.333 -30 77.166 -66.167 95.499 -108.5s27.5 -114.166 27.5 -215.499v-552
c0 -34.667 4.83301 -59.834 14.5 -75.501s25.167 -23.5 46.5 -23.5c17.333 0 31.5 6 42.5 18s18.833 29.333 23.5 52h84v-4c0 -58.667 -18 -105.5 -54 -140.5s-83.667 -52.5 -143 -52.5c-57.333 0 -102.666 16.667 -135.999 50s-53.666 82.333 -60.999 147zM424.002 1264
l276 298.999c18 19.333 36.333 34.333 55 45s36 16 52 16c20.667 0 38.5 -7.66699 53.5 -23s22.5 -33.666 22.5 -54.999c0 -18 -6 -34.167 -18 -48.5s-34 -31.5 -66 -51.5l-301 -182h-74z" />
    <glyph glyph-name="acircumflex" unicode="&#xe2;" horiz-adv-x="1223" 
d="M813 569c-148 -17.333 -264.165 -53.168 -348.498 -107.501s-126.5 -119.5 -126.5 -195.5c0 -46.667 13.667 -83.167 41 -109.5s65.666 -39.5 114.999 -39.5c101.333 0 180.166 33.5 236.499 100.5s84.5 161.167 84.5 282.5c0 18.667 -0.166992 32.834 -0.5 42.501
s-0.833008 18.5 -1.5 26.5zM829.002 163.998c-46.667 -63.333 -105.667 -112.332 -177 -146.999s-148.666 -52 -231.999 -52c-98 0 -175.5 23.5 -232.5 70.5s-85.5 110.833 -85.5 191.5c0 115.333 59.667 212 179 290s296.666 136.333 531.999 175v94
c0 82 -22.833 144.167 -68.5 186.5s-112.167 63.5 -199.5 63.5c-54.667 0 -103.667 -9.33301 -147 -28s-73.666 -43.334 -90.999 -74.001c7.33301 -8 18.666 -18 33.999 -30c33.333 -26 50 -57 50 -93c0 -36.667 -11.667 -65 -35 -85s-56.666 -30 -99.999 -30
c-40.667 0 -72.334 12.167 -95.001 36.5s-34 58.833 -34 103.5c0 96 40.5 172.5 121.5 229.5s192.167 85.5 333.5 85.5c59.333 0 115.666 -7.16699 168.999 -21.5s99.333 -34.5 138 -60.5c45.333 -30 77.166 -66.167 95.499 -108.5s27.5 -114.166 27.5 -215.499v-552
c0 -34.667 4.83301 -59.834 14.5 -75.501s25.167 -23.5 46.5 -23.5c17.333 0 31.5 6 42.5 18s18.833 29.333 23.5 52h84v-4c0 -58.667 -18 -105.5 -54 -140.5s-83.667 -52.5 -143 -52.5c-57.333 0 -102.666 16.667 -135.999 50s-53.666 82.333 -60.999 147zM305.002 1264
l227 348h134l229 -348h-74l-221 194l-221 -194h-74z" />
    <glyph glyph-name="atilde" unicode="&#xe3;" horiz-adv-x="1223" 
d="M813 569c-148 -17.333 -264.165 -53.168 -348.498 -107.501s-126.5 -119.5 -126.5 -195.5c0 -46.667 13.667 -83.167 41 -109.5s65.666 -39.5 114.999 -39.5c101.333 0 180.166 33.5 236.499 100.5s84.5 161.167 84.5 282.5c0 18.667 -0.166992 32.834 -0.5 42.501
s-0.833008 18.5 -1.5 26.5zM829.002 163.998c-46.667 -63.333 -105.667 -112.332 -177 -146.999s-148.666 -52 -231.999 -52c-98 0 -175.5 23.5 -232.5 70.5s-85.5 110.833 -85.5 191.5c0 115.333 59.667 212 179 290s296.666 136.333 531.999 175v94
c0 82 -22.833 144.167 -68.5 186.5s-112.167 63.5 -199.5 63.5c-54.667 0 -103.667 -9.33301 -147 -28s-73.666 -43.334 -90.999 -74.001c7.33301 -8 18.666 -18 33.999 -30c33.333 -26 50 -57 50 -93c0 -36.667 -11.667 -65 -35 -85s-56.666 -30 -99.999 -30
c-40.667 0 -72.334 12.167 -95.001 36.5s-34 58.833 -34 103.5c0 96 40.5 172.5 121.5 229.5s192.167 85.5 333.5 85.5c59.333 0 115.666 -7.16699 168.999 -21.5s99.333 -34.5 138 -60.5c45.333 -30 77.166 -66.167 95.499 -108.5s27.5 -114.166 27.5 -215.499v-552
c0 -34.667 4.83301 -59.834 14.5 -75.501s25.167 -23.5 46.5 -23.5c17.333 0 31.5 6 42.5 18s18.833 29.333 23.5 52h84v-4c0 -58.667 -18 -105.5 -54 -140.5s-83.667 -52.5 -143 -52.5c-57.333 0 -102.666 16.667 -135.999 50s-53.666 82.333 -60.999 147zM883.002 1581
c-14.667 -75.333 -38.5029 -132.333 -71.5029 -171s-74.167 -58 -123.5 -58c-8 0 -16.167 0.5 -24.5 1.5s-17.5 2.5 -27.5 4.5l-106 26c-18 4.66699 -30.5 7.66699 -37.5 9s-12.167 2 -15.5 2c-28 0 -49.333 -6.66699 -64 -20s-27.334 -37.333 -38.001 -72h-58
c14.667 76.667 38.667 134.667 72 174s75 59 125 59c6 0 14.333 -0.833008 25 -2.5s23.334 -4.16699 38.001 -7.5l109 -27c8 -2 16.333 -3.5 25 -4.5s17.334 -1.5 26.001 -1.5c22.667 0 41.334 7.33301 56.001 22s25.334 36.667 32.001 66h58z" />
    <glyph glyph-name="adieresis" unicode="&#xe4;" horiz-adv-x="1223" 
d="M813 569c-148 -17.333 -264.165 -53.168 -348.498 -107.501s-126.5 -119.5 -126.5 -195.5c0 -46.667 13.667 -83.167 41 -109.5s65.666 -39.5 114.999 -39.5c101.333 0 180.166 33.5 236.499 100.5s84.5 161.167 84.5 282.5c0 18.667 -0.166992 32.834 -0.5 42.501
s-0.833008 18.5 -1.5 26.5zM829.002 163.998c-46.667 -63.333 -105.667 -112.332 -177 -146.999s-148.666 -52 -231.999 -52c-98 0 -175.5 23.5 -232.5 70.5s-85.5 110.833 -85.5 191.5c0 115.333 59.667 212 179 290s296.666 136.333 531.999 175v94
c0 82 -22.833 144.167 -68.5 186.5s-112.167 63.5 -199.5 63.5c-54.667 0 -103.667 -9.33301 -147 -28s-73.666 -43.334 -90.999 -74.001c7.33301 -8 18.666 -18 33.999 -30c33.333 -26 50 -57 50 -93c0 -36.667 -11.667 -65 -35 -85s-56.666 -30 -99.999 -30
c-40.667 0 -72.334 12.167 -95.001 36.5s-34 58.833 -34 103.5c0 96 40.5 172.5 121.5 229.5s192.167 85.5 333.5 85.5c59.333 0 115.666 -7.16699 168.999 -21.5s99.333 -34.5 138 -60.5c45.333 -30 77.166 -66.167 95.499 -108.5s27.5 -114.166 27.5 -215.499v-552
c0 -34.667 4.83301 -59.834 14.5 -75.501s25.167 -23.5 46.5 -23.5c17.333 0 31.5 6 42.5 18s18.833 29.333 23.5 52h84v-4c0 -58.667 -18 -105.5 -54 -140.5s-83.667 -52.5 -143 -52.5c-57.333 0 -102.666 16.667 -135.999 50s-53.666 82.333 -60.999 147zM670.002 1427
c0 30 11 56.001 33 78.001s48.333 33 79 33c31.333 0 58 -10.833 80 -32.5s33 -47.834 33 -78.501c0 -32 -10.833 -59 -32.5 -81s-48.5 -33 -80.5 -33c-31.333 0 -57.833 11 -79.5 33s-32.5 49 -32.5 81zM305.002 1427c0 30 11.5 56 34.5 78s49.833 33 80.5 33
s56.667 -10.667 78 -32s32 -47.666 32 -78.999c0 -32.667 -10.5 -59.834 -31.5 -81.501s-47.167 -32.5 -78.5 -32.5c-32 0 -59.167 11 -81.5 33s-33.5 49 -33.5 81z" />
    <glyph glyph-name="aring" unicode="&#xe5;" horiz-adv-x="1223" 
d="M451 1464c0 -39.333 13.667 -72.666 41 -99.999s60.666 -41 99.999 -41s72.666 13.667 99.999 41s41 60.666 41 99.999c0 40 -13.667 74 -41 102s-60.666 42 -99.999 42s-72.666 -14 -99.999 -42s-41 -62 -41 -102zM344 1466c0 68.667 24 126.834 72 174.501
s106.667 71.5 176 71.5s128 -23.833 176 -71.5s72 -105.834 72 -174.501c0 -70 -24 -129 -72 -177s-106.667 -72 -176 -72s-128 24 -176 72s-72 107 -72 177zM829 164c-46.667 -63.333 -105.667 -112.332 -177 -146.999s-148.666 -52 -231.999 -52
c-98 0 -175.5 23.5 -232.5 70.5s-85.5 110.833 -85.5 191.5c0 115.333 59.667 212 179 290s296.666 136.333 531.999 175v94c0 82 -22.833 144.167 -68.5 186.5s-112.167 63.5 -199.5 63.5c-54.667 0 -103.667 -9.33301 -147 -28s-73.666 -43.334 -90.999 -74.001
c7.33301 -8 18.666 -18 33.999 -30c33.333 -26 50 -57 50 -93c0 -36.667 -11.667 -65 -35 -85s-56.666 -30 -99.999 -30c-40.667 0 -72.334 12.167 -95.001 36.5s-34 58.833 -34 103.5c0 96 40.5 172.5 121.5 229.5s192.167 85.5 333.5 85.5
c59.333 0 115.666 -7.16699 168.999 -21.5s99.333 -34.5 138 -60.5c45.333 -30 77.166 -66.167 95.499 -108.5s27.5 -114.166 27.5 -215.499v-552c0 -34.667 4.83301 -59.834 14.5 -75.501s25.167 -23.5 46.5 -23.5c17.333 0 31.5 6 42.5 18s18.833 29.333 23.5 52h84v-4
c0 -58.667 -18 -105.5 -54 -140.5s-83.667 -52.5 -143 -52.5c-57.333 0 -102.666 16.667 -135.999 50s-53.666 82.333 -60.999 147zM813 569.001c-148 -17.333 -264.165 -53.168 -348.498 -107.501s-126.5 -119.5 -126.5 -195.5c0 -46.667 13.667 -83.167 41 -109.5
s65.666 -39.5 114.999 -39.5c101.333 0 180.166 33.5 236.499 100.5s84.5 161.167 84.5 282.5c0 18.667 -0.166992 32.834 -0.5 42.501s-0.833008 18.5 -1.5 26.5z" />
    <glyph glyph-name="ae" unicode="&#xe6;" horiz-adv-x="1843" 
d="M1016 561l-0.00585938 -23.9971c0 -144 26 -255.167 78 -333.5s125.667 -117.5 221 -117.5c65.333 0 121.166 15.667 167.499 47s89.5 82.666 129.5 153.999l96 -78c-48 -81.333 -104.667 -142 -170 -182s-139.666 -60 -222.999 -60c-93.333 0 -176.166 17 -248.499 51
s-137.166 86 -194.499 156c-77.333 -70.667 -154 -123.167 -230 -157.5s-152.667 -51.5 -230 -51.5c-94.667 0 -170 23.667 -226 71s-84 110.333 -84 189c0 114.667 61.833 211.5 185.5 290.5s298.834 133.167 525.501 162.5v108c0 81.333 -22.833 143.333 -68.5 186
s-111.5 64 -197.5 64c-55.333 0 -105.666 -9.83301 -150.999 -29.5s-74.666 -44.167 -87.999 -73.5c5.33301 -6 15 -14.333 29 -25c36 -28 54 -63 54 -105c0 -34.667 -12.5 -62.834 -37.5 -84.501s-57.5 -32.5 -97.5 -32.5c-39.333 0 -70.666 13.5 -93.999 40.5
s-35 63.5 -35 109.5c0 92.667 40.5 168.667 121.5 228s185.167 89 312.5 89c85.333 0 159.5 -12.833 222.5 -38.5s115.833 -64.834 158.5 -117.501c46.667 54 97.167 93.5 151.5 118.5s115.833 37.5 184.5 37.5c146 0 260.667 -51.5 344 -154.5s125 -244.833 125 -425.5v-12
h-731zM1021.99 680.003h489c-2 112 -22.5 197.333 -61.5 256s-94.833 88 -167.5 88c-78 0 -139.333 -29.667 -184 -89s-70 -144.333 -76 -255zM812.994 559.003c-144.667 -13.333 -259.998 -47.5 -345.998 -102.5s-129 -120.5 -129 -196.5c0 -47.333 13.667 -84 41 -110
s65.666 -39 114.999 -39c101.333 0 180.166 33 236.499 99s84.5 159 84.5 279c0 18.667 -0.166992 33 -0.5 43s-0.833008 19 -1.5 27z" />
    <glyph glyph-name="ccedilla" unicode="&#xe7;" horiz-adv-x="1143" 
d="M1077 326c-38.667 -119.333 -96.167 -209.001 -172.5 -269.001s-170.833 -90 -283.5 -90c-154.667 0 -280.167 54.667 -376.5 164s-144.5 252 -144.5 428c0 178 49 321.5 147 430.5s226 163.5 384 163.5c111.333 0 204 -30.333 278 -91s111 -134 111 -220
c0 -52.667 -14.5 -95.5 -43.5 -128.5s-66.5 -49.5 -112.5 -49.5c-44.667 0 -81 13.333 -109 40s-42 61.667 -42 105c0 36 17 73.667 51 113c12 14 20.667 24.667 26 32c-10 26 -28 45.833 -54 59.5s-58.333 20.5 -97 20.5c-96 0 -170.5 -41.333 -223.5 -124
s-79.5 -199.667 -79.5 -351c0 -155.333 25.333 -273 76 -353s125 -120 223 -120c78 0 146 23.833 204 71.5s102.667 116.834 134 207.501zM327 -379.001l39.001 90c39.333 -24.667 79.166 -43.834 119.499 -57.501s77.833 -20.5 112.5 -20.5c37.333 0 65 7.33301 83 22
s27 37.667 27 69c0 28.667 -9.16699 50.167 -27.5 64.5s-45.833 21.5 -82.5 21.5c-2.66699 0 -8.16699 -0.5 -16.5 -1.5s-22.833 -2.5 -43.5 -4.5v196h66v-115c10.667 1.33301 21.167 2.33301 31.5 3s22.833 1 37.5 1c54 0 97.333 -15.167 130 -45.5s49 -70.166 49 -119.499
c0 -56 -19.833 -99.833 -59.5 -131.5s-95.167 -47.5 -166.5 -47.5c-38.667 0 -81.5 6 -128.5 18s-103.833 31.333 -170.5 58z" />
    <glyph glyph-name="egrave" unicode="&#xe8;" horiz-adv-x="1161" 
d="M1028 209c-48 -81.333 -104.667 -141.998 -170 -181.998s-139.666 -60 -222.999 -60c-161.333 0 -290.833 54 -388.5 162s-146.5 251.333 -146.5 430c0 177.333 47.5 320.333 142.5 429s219.5 163 373.5 163c134.667 0 243.5 -52.333 326.5 -157
s124.5 -243.334 124.5 -416.001v-17h-731v-24c0 -144 26 -255.167 78 -333.5s125.667 -117.5 221 -117.5c65.333 0 121.166 15.667 167.499 47s89.5 82.666 129.5 153.999zM342 680.002h488.998c-2 112.667 -22.667 198.167 -62 256.5s-95.666 87.5 -168.999 87.5
c-77.333 0 -138.166 -29.5 -182.499 -88.5s-69.5 -144.167 -75.5 -255.5zM781.998 1264l-74 0.000976562l-301 182c-32 20 -54 37.167 -66 51.5s-18 30.5 -18 48.5c0 21.333 7.5 39.666 22.5 54.999s32.833 23 53.5 23c16 0 33.333 -5.33301 52 -16s37 -25.667 55 -45z" />
    <glyph glyph-name="eacute" unicode="&#xe9;" horiz-adv-x="1161" 
d="M1028 209c-48 -81.333 -104.667 -141.998 -170 -181.998s-139.666 -60 -222.999 -60c-161.333 0 -290.833 54 -388.5 162s-146.5 251.333 -146.5 430c0 177.333 47.5 320.333 142.5 429s219.5 163 373.5 163c134.667 0 243.5 -52.333 326.5 -157
s124.5 -243.334 124.5 -416.001v-17h-731v-24c0 -144 26 -255.167 78 -333.5s125.667 -117.5 221 -117.5c65.333 0 121.166 15.667 167.499 47s89.5 82.666 129.5 153.999zM342 680.002h488.998c-2 112.667 -22.667 198.167 -62 256.5s-95.666 87.5 -168.999 87.5
c-77.333 0 -138.166 -29.5 -182.499 -88.5s-69.5 -144.167 -75.5 -255.5zM429.998 1264l276 298.999c18 19.333 36.333 34.333 55 45s36 16 52 16c20.667 0 38.5 -7.66699 53.5 -23s22.5 -33.666 22.5 -54.999c0 -18 -6 -34.167 -18 -48.5s-34 -31.5 -66 -51.5l-301 -182
h-74z" />
    <glyph glyph-name="ecircumflex" unicode="&#xea;" horiz-adv-x="1161" 
d="M1028 209c-48 -81.333 -104.667 -141.998 -170 -181.998s-139.666 -60 -222.999 -60c-161.333 0 -290.833 54 -388.5 162s-146.5 251.333 -146.5 430c0 177.333 47.5 320.333 142.5 429s219.5 163 373.5 163c134.667 0 243.5 -52.333 326.5 -157
s124.5 -243.334 124.5 -416.001v-17h-731v-24c0 -144 26 -255.167 78 -333.5s125.667 -117.5 221 -117.5c65.333 0 121.166 15.667 167.499 47s89.5 82.666 129.5 153.999zM342 680.002h488.998c-2 112.667 -22.667 198.167 -62 256.5s-95.666 87.5 -168.999 87.5
c-77.333 0 -138.166 -29.5 -182.499 -88.5s-69.5 -144.167 -75.5 -255.5zM310.998 1264l227 348h134l229 -348h-74l-221 194l-221 -194h-74z" />
    <glyph glyph-name="edieresis" unicode="&#xeb;" horiz-adv-x="1161" 
d="M1028 209c-48 -81.333 -104.667 -141.998 -170 -181.998s-139.666 -60 -222.999 -60c-161.333 0 -290.833 54 -388.5 162s-146.5 251.333 -146.5 430c0 177.333 47.5 320.333 142.5 429s219.5 163 373.5 163c134.667 0 243.5 -52.333 326.5 -157
s124.5 -243.334 124.5 -416.001v-17h-731v-24c0 -144 26 -255.167 78 -333.5s125.667 -117.5 221 -117.5c65.333 0 121.166 15.667 167.499 47s89.5 82.666 129.5 153.999zM342 680.002h488.998c-2 112.667 -22.667 198.167 -62 256.5s-95.666 87.5 -168.999 87.5
c-77.333 0 -138.166 -29.5 -182.499 -88.5s-69.5 -144.167 -75.5 -255.5zM675.998 1427c0 30 11 56.001 33 78.001s48.333 33 79 33c31.333 0 58 -10.833 80 -32.5s33 -47.834 33 -78.501c0 -32 -10.833 -59 -32.5 -81s-48.5 -33 -80.5 -33c-31.333 0 -57.833 11 -79.5 33
s-32.5 49 -32.5 81zM310.998 1427c0 30 11.5 56 34.5 78s49.833 33 80.5 33s56.667 -10.667 78 -32s32 -47.666 32 -78.999c0 -32.667 -10.5 -59.834 -31.5 -81.501s-47.167 -32.5 -78.5 -32.5c-32 0 -59.167 11 -81.5 33s-33.5 49 -33.5 81z" />
    <glyph glyph-name="igrave" unicode="&#xec;" horiz-adv-x="631" 
d="M424 317c0 -81.333 11.334 -134 34.001 -158s70.667 -39.333 144 -46v-113h-567v112c78.667 5.33301 130 19.833 154 43.5s36 77.5 36 161.5v469c0 84.667 -12.167 138.834 -36.5 162.501s-75.5 38.167 -153.5 43.5v122c10 0 25.167 -0.333008 45.5 -1
s35.166 -1 44.499 -1c52.667 0 103.5 1.66699 152.5 5s97.833 8.66602 146.5 15.999v-816zM467.001 1264l-74 0.000976562l-301 182c-32 20 -54 37.167 -66 51.5s-18 30.5 -18 48.5c0 21.333 7.5 39.666 22.5 54.999s32.833 23 53.5 23c16 0 33.333 -5.33301 52 -16
s37 -25.667 55 -45z" />
    <glyph glyph-name="iacute" unicode="&#xed;" horiz-adv-x="631" 
d="M424 317c0 -81.333 11.334 -134 34.001 -158s70.667 -39.333 144 -46v-113h-567v112c78.667 5.33301 130 19.833 154 43.5s36 77.5 36 161.5v469c0 84.667 -12.167 138.834 -36.5 162.501s-75.5 38.167 -153.5 43.5v122c10 0 25.167 -0.333008 45.5 -1
s35.166 -1 44.499 -1c52.667 0 103.5 1.66699 152.5 5s97.833 8.66602 146.5 15.999v-816zM115.001 1264l276 298.999c18 19.333 36.333 34.333 55 45s36 16 52 16c20.667 0 38.5 -7.66699 53.5 -23s22.5 -33.666 22.5 -54.999c0 -18 -6 -34.167 -18 -48.5
s-34 -31.5 -66 -51.5l-301 -182h-74z" />
    <glyph glyph-name="icircumflex" unicode="&#xee;" horiz-adv-x="631" 
d="M424 317c0 -81.333 11.334 -134 34.001 -158s70.667 -39.333 144 -46v-113h-567v112c78.667 5.33301 130 19.833 154 43.5s36 77.5 36 161.5v469c0 84.667 -12.167 138.834 -36.5 162.501s-75.5 38.167 -153.5 43.5v122c10 0 25.167 -0.333008 45.5 -1
s35.166 -1 44.499 -1c52.667 0 103.5 1.66699 152.5 5s97.833 8.66602 146.5 15.999v-816zM-3.99902 1264l227 348h134l229 -348h-74l-221 194l-221 -194h-74z" />
    <glyph glyph-name="idieresis" unicode="&#xef;" horiz-adv-x="631" 
d="M424 317c0 -81.333 11.334 -134 34.001 -158s70.667 -39.333 144 -46v-113h-567v112c78.667 5.33301 130 19.833 154 43.5s36 77.5 36 161.5v469c0 84.667 -12.167 138.834 -36.5 162.501s-75.5 38.167 -153.5 43.5v122c10 0 25.167 -0.333008 45.5 -1
s35.166 -1 44.499 -1c52.667 0 103.5 1.66699 152.5 5s97.833 8.66602 146.5 15.999v-816zM361.001 1427c0 30 11 56.001 33 78.001s48.333 33 79 33c31.333 0 58 -10.833 80 -32.5s33 -47.834 33 -78.501c0 -32 -10.833 -59 -32.5 -81s-48.5 -33 -80.5 -33
c-31.333 0 -57.833 11 -79.5 33s-32.5 49 -32.5 81zM-3.99902 1427c0 30 11.5 56 34.5 78s49.833 33 80.5 33s56.667 -10.667 78 -32s32 -47.666 32 -78.999c0 -32.667 -10.5 -59.834 -31.5 -81.501s-47.167 -32.5 -78.5 -32.5c-32 0 -59.167 11 -81.5 33s-33.5 49 -33.5 81
z" />
    <glyph glyph-name="eth" unicode="&#xf0;" horiz-adv-x="1270" 
d="M729 1321c151.333 -140 262.833 -275.165 334.5 -405.498s107.5 -262.833 107.5 -397.5c0 -164.667 -49.333 -297.667 -148 -399s-228 -152 -388 -152c-159.333 0 -288.333 50.667 -387 152s-148 234.333 -148 399c0 161.333 47 292.833 141 394.5
s214.333 152.5 361 152.5c28 0 55.667 -3 83 -9s55 -15.333 83 -28c-30 46 -59.333 87.5 -88 124.5s-58 71.833 -88 104.5l-336 -155l-45 102l301 139c-19.333 23.333 -40 46.166 -62 68.499s-45 44.166 -69 65.499l61 69l102.5 -73l94.5 -72l297 137l49 -100zM635 86.002
c101.333 0 176.5 35.334 225.5 106.001s73.5 179.334 73.5 326.001c0 145.333 -24.667 253.666 -74 324.999s-124.333 107 -225 107c-101.333 0 -176.5 -35.5 -225.5 -106.5s-73.5 -179.5 -73.5 -325.5c0 -146.667 24.5 -255.334 73.5 -326.001s124.167 -106 225.5 -106z
" />
    <glyph glyph-name="ntilde" unicode="&#xf1;" horiz-adv-x="1360" 
d="M424 317c0 -82 11.8291 -135.167 35.4961 -159.5s73.834 -39.166 150.501 -44.499v-113h-557v113c71.333 7.33301 117.833 23 139.5 47s32.5 76.333 32.5 157v469c0 81.333 -10.833 134 -32.5 158s-68.167 39.667 -139.5 47v123c8.66699 0 21.167 -0.333008 37.5 -1
s28.5 -1 36.5 -1c44 0 89.833 1.66699 137.5 5s98.167 8.66602 151.5 15.999v-256c49.333 84 107.333 147.667 174 191s140.334 65 221.001 65c104 0 187.333 -32.333 250 -97s94 -150 94 -256v-463c0 -80.667 11 -133 33 -157s68.333 -39.667 139 -47v-113h-557v113
c76.667 5.33301 126.834 20.166 150.501 44.499s35.5 77.5 35.5 159.5v365c0 112 -15.667 189.5 -47 232.5s-83.666 64.5 -156.999 64.5c-100.667 0 -180.5 -43.167 -239.5 -129.5s-88.5 -204.166 -88.5 -353.499v-179zM962.996 1581
c-14.667 -75.333 -38.5029 -132.333 -71.5029 -171s-74.167 -58 -123.5 -58c-8 0 -16.167 0.5 -24.5 1.5s-17.5 2.5 -27.5 4.5l-106 26c-18 4.66699 -30.5 7.66699 -37.5 9s-12.167 2 -15.5 2c-28 0 -49.333 -6.66699 -64 -20s-27.334 -37.333 -38.001 -72h-58
c14.667 76.667 38.667 134.667 72 174s75 59 125 59c6 0 14.333 -0.833008 25 -2.5s23.334 -4.16699 38.001 -7.5l109 -27c8 -2 16.333 -3.5 25 -4.5s17.334 -1.5 26.001 -1.5c22.667 0 41.334 7.33301 56.001 22s25.334 36.667 32.001 66h58z" />
    <glyph glyph-name="ograve" unicode="&#xf2;" horiz-adv-x="1270" 
d="M635 86c101.333 0 176.5 38.833 225.5 116.5s73.5 196.5 73.5 356.5c0 160.667 -24.667 280 -74 358s-124.333 117 -225 117c-101.333 0 -176.5 -39 -225.5 -117s-73.5 -197.333 -73.5 -358c0 -160 24.5 -278.833 73.5 -356.5s124.167 -116.5 225.5 -116.5zM635 -33
c-159.333 0 -288.333 54.333 -387 163s-148 251.667 -148 429c0 178.667 49 322 147 430s227.333 162 388 162s290.167 -54 388.5 -162s147.5 -251.333 147.5 -430c0 -177.333 -49.333 -320.333 -148 -429s-228 -163 -388 -163zM811 1264l-74 0.000976562l-301 182
c-32 20 -54 37.167 -66 51.5s-18 30.5 -18 48.5c0 21.333 7.5 39.666 22.5 54.999s32.833 23 53.5 23c16 0 33.333 -5.33301 52 -16s37 -25.667 55 -45z" />
    <glyph glyph-name="oacute" unicode="&#xf3;" horiz-adv-x="1270" 
d="M635 86c101.333 0 176.5 38.833 225.5 116.5s73.5 196.5 73.5 356.5c0 160.667 -24.667 280 -74 358s-124.333 117 -225 117c-101.333 0 -176.5 -39 -225.5 -117s-73.5 -197.333 -73.5 -358c0 -160 24.5 -278.833 73.5 -356.5s124.167 -116.5 225.5 -116.5zM635 -33
c-159.333 0 -288.333 54.333 -387 163s-148 251.667 -148 429c0 178.667 49 322 147 430s227.333 162 388 162s290.167 -54 388.5 -162s147.5 -251.333 147.5 -430c0 -177.333 -49.333 -320.333 -148 -429s-228 -163 -388 -163zM459 1264l276 298.999
c18 19.333 36.333 34.333 55 45s36 16 52 16c20.667 0 38.5 -7.66699 53.5 -23s22.5 -33.666 22.5 -54.999c0 -18 -6 -34.167 -18 -48.5s-34 -31.5 -66 -51.5l-301 -182h-74z" />
    <glyph glyph-name="ocircumflex" unicode="&#xf4;" horiz-adv-x="1270" 
d="M635 86c101.333 0 176.5 38.833 225.5 116.5s73.5 196.5 73.5 356.5c0 160.667 -24.667 280 -74 358s-124.333 117 -225 117c-101.333 0 -176.5 -39 -225.5 -117s-73.5 -197.333 -73.5 -358c0 -160 24.5 -278.833 73.5 -356.5s124.167 -116.5 225.5 -116.5zM635 -33
c-159.333 0 -288.333 54.333 -387 163s-148 251.667 -148 429c0 178.667 49 322 147 430s227.333 162 388 162s290.167 -54 388.5 -162s147.5 -251.333 147.5 -430c0 -177.333 -49.333 -320.333 -148 -429s-228 -163 -388 -163zM340 1264l227 348h134l229 -348h-74l-221 194
l-221 -194h-74z" />
    <glyph glyph-name="otilde" unicode="&#xf5;" horiz-adv-x="1270" 
d="M635 86c101.333 0 176.5 38.833 225.5 116.5s73.5 196.5 73.5 356.5c0 160.667 -24.667 280 -74 358s-124.333 117 -225 117c-101.333 0 -176.5 -39 -225.5 -117s-73.5 -197.333 -73.5 -358c0 -160 24.5 -278.833 73.5 -356.5s124.167 -116.5 225.5 -116.5zM635 -33
c-159.333 0 -288.333 54.333 -387 163s-148 251.667 -148 429c0 178.667 49 322 147 430s227.333 162 388 162s290.167 -54 388.5 -162s147.5 -251.333 147.5 -430c0 -177.333 -49.333 -320.333 -148 -429s-228 -163 -388 -163zM918 1581
c-14.667 -75.333 -38.5029 -132.333 -71.5029 -171s-74.167 -58 -123.5 -58c-8 0 -16.167 0.5 -24.5 1.5s-17.5 2.5 -27.5 4.5l-106 26c-18 4.66699 -30.5 7.66699 -37.5 9s-12.167 2 -15.5 2c-28 0 -49.333 -6.66699 -64 -20s-27.334 -37.333 -38.001 -72h-58
c14.667 76.667 38.667 134.667 72 174s75 59 125 59c6 0 14.333 -0.833008 25 -2.5s23.334 -4.16699 38.001 -7.5l109 -27c8 -2 16.333 -3.5 25 -4.5s17.334 -1.5 26.001 -1.5c22.667 0 41.334 7.33301 56.001 22s25.334 36.667 32.001 66h58z" />
    <glyph glyph-name="odieresis" unicode="&#xf6;" horiz-adv-x="1270" 
d="M635 86c101.333 0 176.5 38.833 225.5 116.5s73.5 196.5 73.5 356.5c0 160.667 -24.667 280 -74 358s-124.333 117 -225 117c-101.333 0 -176.5 -39 -225.5 -117s-73.5 -197.333 -73.5 -358c0 -160 24.5 -278.833 73.5 -356.5s124.167 -116.5 225.5 -116.5zM635 -33
c-159.333 0 -288.333 54.333 -387 163s-148 251.667 -148 429c0 178.667 49 322 147 430s227.333 162 388 162s290.167 -54 388.5 -162s147.5 -251.333 147.5 -430c0 -177.333 -49.333 -320.333 -148 -429s-228 -163 -388 -163zM705 1427c0 30 11 56.001 33 78.001
s48.333 33 79 33c31.333 0 58 -10.833 80 -32.5s33 -47.834 33 -78.501c0 -32 -10.833 -59 -32.5 -81s-48.5 -33 -80.5 -33c-31.333 0 -57.833 11 -79.5 33s-32.5 49 -32.5 81zM340 1427c0 30 11.5 56 34.5 78s49.833 33 80.5 33s56.667 -10.667 78 -32
s32 -47.666 32 -78.999c0 -32.667 -10.5 -59.834 -31.5 -81.501s-47.167 -32.5 -78.5 -32.5c-32 0 -59.167 11 -81.5 33s-33.5 49 -33.5 81z" />
    <glyph glyph-name="divide" unicode="&#xf7;" horiz-adv-x="1706" 
d="M854 367c34 0 63.333 -12.333 88 -37s37 -54 37 -88c0 -34.667 -12.167 -64.167 -36.5 -88.5s-53.833 -36.5 -88.5 -36.5c-35.333 0 -65 12 -89 36s-36 53.667 -36 89c0 34 12.333 63.333 37 88s54 37 88 37zM254 680h1198v-139h-1198v139zM854 1106
c34 0 63.333 -12.5 88 -37.5s37 -54.833 37 -89.5c0 -34 -12.167 -63.333 -36.5 -88s-53.833 -37 -88.5 -37s-64.167 12.167 -88.5 36.5s-36.5 53.833 -36.5 88.5s12.333 64.5 37 89.5s54 37.5 88 37.5z" />
    <glyph glyph-name="oslash" unicode="&#xf8;" horiz-adv-x="1270" 
d="M885 866l-428 -721.002c28 -20.667 55.833 -35.667 83.5 -45s59.167 -14 94.5 -14c101.333 0 176.5 38.833 225.5 116.5s73.5 196.5 73.5 356.5c0 56.667 -4 109.834 -12 159.501s-20.333 98.834 -37 147.501zM383 253.998l434 722.999
c-28.667 20.667 -57.5 35.667 -86.5 45s-61.5 14 -97.5 14c-99.333 0 -174 -39.667 -224 -119s-75 -197.333 -75 -354c0 -55.333 4 -108.166 12 -158.499s20.333 -100.5 37 -150.5zM289 95.9971c-64 56 -111.5 121.833 -142.5 197.5s-46.5 164.167 -46.5 265.5
c0 178.667 49 322 147 430s227.333 162 388 162c42 0 83.833 -4.5 125.5 -13.5s84.5 -22.833 128.5 -41.5l143 241h139l-186 -311c61.333 -54.667 107.666 -121.667 138.999 -201s47 -168 47 -266c0 -177.333 -49.333 -320.333 -148 -429s-228 -163 -388 -163
c-42 0 -83.667 5 -125 15s-83.666 25 -126.999 45l-168 -283h-139z" />
    <glyph glyph-name="ugrave" unicode="&#xf9;" horiz-adv-x="1360" 
d="M936 801c0 82.667 -12 136.337 -36 161.004s-74 40 -150 46v110c58 0 118.667 1.66699 182 5s131 8.66602 203 15.999v-811c0 -82 11.167 -135.167 33.5 -159.5s68.166 -40.166 137.499 -47.499l1 -121c-7.33301 0 -18.166 0.333008 -32.499 1s-24.833 1 -31.5 1
c-48.667 0 -97.5 -1.83301 -146.5 -5.5s-99.833 -9.16699 -152.5 -16.5v243c-48.667 -84 -106.5 -147.667 -173.5 -191s-140.833 -65 -221.5 -65c-117.333 0 -204 35.5 -260 106.5s-84 181.833 -84 332.5v395c0 81.333 -11.167 134.166 -33.5 158.499
s-68.5 40.5 -138.5 48.5v110c57.333 0 116.833 1.66699 178.5 5s126.5 8.66602 194.5 15.999v-736c0 -102.667 15.667 -175.334 47 -218.001s83 -64 155 -64c100.667 0 180.5 43.167 239.5 129.5s88.5 204.166 88.5 353.499v197zM833 1264l-74 0.000976562l-301 182
c-32 20 -54 37.167 -66 51.5s-18 30.5 -18 48.5c0 21.333 7.5 39.666 22.5 54.999s32.833 23 53.5 23c16 0 33.333 -5.33301 52 -16s37 -25.667 55 -45z" />
    <glyph glyph-name="uacute" unicode="&#xfa;" horiz-adv-x="1360" 
d="M936 801c0 82.667 -12 136.337 -36 161.004s-74 40 -150 46v110c58 0 118.667 1.66699 182 5s131 8.66602 203 15.999v-811c0 -82 11.167 -135.167 33.5 -159.5s68.166 -40.166 137.499 -47.499l1 -121c-7.33301 0 -18.166 0.333008 -32.499 1s-24.833 1 -31.5 1
c-48.667 0 -97.5 -1.83301 -146.5 -5.5s-99.833 -9.16699 -152.5 -16.5v243c-48.667 -84 -106.5 -147.667 -173.5 -191s-140.833 -65 -221.5 -65c-117.333 0 -204 35.5 -260 106.5s-84 181.833 -84 332.5v395c0 81.333 -11.167 134.166 -33.5 158.499
s-68.5 40.5 -138.5 48.5v110c57.333 0 116.833 1.66699 178.5 5s126.5 8.66602 194.5 15.999v-736c0 -102.667 15.667 -175.334 47 -218.001s83 -64 155 -64c100.667 0 180.5 43.167 239.5 129.5s88.5 204.166 88.5 353.499v197zM481 1264l276 298.999
c18 19.333 36.333 34.333 55 45s36 16 52 16c20.667 0 38.5 -7.66699 53.5 -23s22.5 -33.666 22.5 -54.999c0 -18 -6 -34.167 -18 -48.5s-34 -31.5 -66 -51.5l-301 -182h-74z" />
    <glyph glyph-name="ucircumflex" unicode="&#xfb;" horiz-adv-x="1360" 
d="M936 801c0 82.667 -12 136.337 -36 161.004s-74 40 -150 46v110c58 0 118.667 1.66699 182 5s131 8.66602 203 15.999v-811c0 -82 11.167 -135.167 33.5 -159.5s68.166 -40.166 137.499 -47.499l1 -121c-7.33301 0 -18.166 0.333008 -32.499 1s-24.833 1 -31.5 1
c-48.667 0 -97.5 -1.83301 -146.5 -5.5s-99.833 -9.16699 -152.5 -16.5v243c-48.667 -84 -106.5 -147.667 -173.5 -191s-140.833 -65 -221.5 -65c-117.333 0 -204 35.5 -260 106.5s-84 181.833 -84 332.5v395c0 81.333 -11.167 134.166 -33.5 158.499
s-68.5 40.5 -138.5 48.5v110c57.333 0 116.833 1.66699 178.5 5s126.5 8.66602 194.5 15.999v-736c0 -102.667 15.667 -175.334 47 -218.001s83 -64 155 -64c100.667 0 180.5 43.167 239.5 129.5s88.5 204.166 88.5 353.499v197zM362 1264l227 348h134l229 -348h-74
l-221 194l-221 -194h-74z" />
    <glyph glyph-name="udieresis" unicode="&#xfc;" horiz-adv-x="1360" 
d="M936 801c0 82.667 -12 136.337 -36 161.004s-74 40 -150 46v110c58 0 118.667 1.66699 182 5s131 8.66602 203 15.999v-811c0 -82 11.167 -135.167 33.5 -159.5s68.166 -40.166 137.499 -47.499l1 -121c-7.33301 0 -18.166 0.333008 -32.499 1s-24.833 1 -31.5 1
c-48.667 0 -97.5 -1.83301 -146.5 -5.5s-99.833 -9.16699 -152.5 -16.5v243c-48.667 -84 -106.5 -147.667 -173.5 -191s-140.833 -65 -221.5 -65c-117.333 0 -204 35.5 -260 106.5s-84 181.833 -84 332.5v395c0 81.333 -11.167 134.166 -33.5 158.499
s-68.5 40.5 -138.5 48.5v110c57.333 0 116.833 1.66699 178.5 5s126.5 8.66602 194.5 15.999v-736c0 -102.667 15.667 -175.334 47 -218.001s83 -64 155 -64c100.667 0 180.5 43.167 239.5 129.5s88.5 204.166 88.5 353.499v197zM727 1427c0 30 11 56.001 33 78.001
s48.333 33 79 33c31.333 0 58 -10.833 80 -32.5s33 -47.834 33 -78.501c0 -32 -10.833 -59 -32.5 -81s-48.5 -33 -80.5 -33c-31.333 0 -57.833 11 -79.5 33s-32.5 49 -32.5 81zM362 1427c0 30 11.5 56 34.5 78s49.833 33 80.5 33s56.667 -10.667 78 -32
s32 -47.666 32 -78.999c0 -32.667 -10.5 -59.834 -31.5 -81.501s-47.167 -32.5 -78.5 -32.5c-32 0 -59.167 11 -81.5 33s-33.5 49 -33.5 81z" />
    <glyph glyph-name="yacute" unicode="&#xfd;" horiz-adv-x="1147" 
d="M635 8c-59.333 -147.333 -118.167 -250.332 -176.5 -308.999s-128.5 -88 -210.5 -88c-72.667 0 -132.5 19 -179.5 57s-70.5 86.667 -70.5 146c0 43.333 13 79 39 107s59.333 42 100 42c35.333 0 64.333 -10.333 87 -31s34 -47 34 -79
c0 -22.667 -6.83301 -43.334 -20.5 -62.001s-20.5 -29 -20.5 -31c0 -4.66699 5.5 -9.5 16.5 -14.5s22.5 -7.5 34.5 -7.5c51.333 0 96.666 24.667 135.999 74s75.333 126.333 108 231l-309 766c-33.333 83.333 -64.166 136.333 -92.499 159s-67.833 36 -118.5 40v110h532
v-110c-58 -8 -96.333 -18.333 -115 -31s-28 -33.334 -28 -62.001c0 -10.667 1.5 -22.667 4.5 -36s7.5 -28.333 13.5 -45l215 -535l226 569c4 10 7 20 9 30s3 20 3 30c0 24 -10 41.833 -30 53.5s-57 20.5 -111 26.5v110h409v-110c-34 -9.33301 -62 -25.166 -84 -47.499
s-41.667 -55.833 -59 -100.5zM396.999 1264l276 298.999c18 19.333 36.333 34.333 55 45s36 16 52 16c20.667 0 38.5 -7.66699 53.5 -23s22.5 -33.666 22.5 -54.999c0 -18 -6 -34.167 -18 -48.5s-34 -31.5 -66 -51.5l-301 -182h-74z" />
    <glyph glyph-name="thorn" unicode="&#xfe;" horiz-adv-x="1382" 
d="M426 -61c0 -84 12 -138.167 36 -162.5s74 -39.166 150 -44.499v-111h-559v111c71.333 7.33301 118.166 23.333 140.499 48s33.5 77.667 33.5 159v1247c0 82.667 -12.333 136.167 -37 160.5s-77 39.166 -157 44.499v120c8.66699 0 21.5 -0.333008 38.5 -1s29.5 -1 37.5 -1
c49.333 0 99.666 2 150.999 6s103.333 9.66699 156 17v-619c51.333 80 110.333 140 177 180s141.334 60 224.001 60c138.667 0 251.167 -54.5 337.5 -163.5s129.5 -252.5 129.5 -430.5c0 -177.333 -45.167 -320.333 -135.5 -429s-208.166 -163 -353.499 -163
c-74.667 0 -141.5 15.833 -200.5 47.5s-115.167 81.5 -168.5 149.5v-225zM748 104c96 0 169.833 38.5 221.5 115.5s77.5 187.5 77.5 331.5c0 144.667 -25.5 254.834 -76.5 330.501s-125.167 113.5 -222.5 113.5c-98 0 -173.833 -38.5 -227.5 -115.5
s-80.5 -186.5 -80.5 -328.5c0 -138.667 27.5 -247.834 82.5 -327.501s130.167 -119.5 225.5 -119.5z" />
    <glyph glyph-name="ydieresis" unicode="&#xff;" horiz-adv-x="1147" 
d="M635 8c-59.333 -147.333 -118.167 -250.332 -176.5 -308.999s-128.5 -88 -210.5 -88c-72.667 0 -132.5 19 -179.5 57s-70.5 86.667 -70.5 146c0 43.333 13 79 39 107s59.333 42 100 42c35.333 0 64.333 -10.333 87 -31s34 -47 34 -79
c0 -22.667 -6.83301 -43.334 -20.5 -62.001s-20.5 -29 -20.5 -31c0 -4.66699 5.5 -9.5 16.5 -14.5s22.5 -7.5 34.5 -7.5c51.333 0 96.666 24.667 135.999 74s75.333 126.333 108 231l-309 766c-33.333 83.333 -64.166 136.333 -92.499 159s-67.833 36 -118.5 40v110h532
v-110c-58 -8 -96.333 -18.333 -115 -31s-28 -33.334 -28 -62.001c0 -10.667 1.5 -22.667 4.5 -36s7.5 -28.333 13.5 -45l215 -535l226 569c4 10 7 20 9 30s3 20 3 30c0 24 -10 41.833 -30 53.5s-57 20.5 -111 26.5v110h409v-110c-34 -9.33301 -62 -25.166 -84 -47.499
s-41.667 -55.833 -59 -100.5zM642.999 1427c0 30 11 56.001 33 78.001s48.333 33 79 33c31.333 0 58 -10.833 80 -32.5s33 -47.834 33 -78.501c0 -32 -10.833 -59 -32.5 -81s-48.5 -33 -80.5 -33c-31.333 0 -57.833 11 -79.5 33s-32.5 49 -32.5 81zM277.999 1427
c0 30 11.5 56 34.5 78s49.833 33 80.5 33s56.667 -10.667 78 -32s32 -47.666 32 -78.999c0 -32.667 -10.5 -59.834 -31.5 -81.501s-47.167 -32.5 -78.5 -32.5c-32 0 -59.167 11 -81.5 33s-33.5 49 -33.5 81z" />
    <glyph glyph-name="Cacute" unicode="&#x106;" horiz-adv-x="1602" 
d="M1520 518c-60 -184 -145.334 -322.833 -256.001 -416.5s-246 -140.5 -406 -140.5c-215.333 0 -391.666 72.5 -528.999 217.5s-206 330.5 -206 556.5c0 219.333 67.667 402.833 203 550.5s301.666 221.5 498.999 221.5c105.333 0 205 -21.5 299 -64.5
s143.333 -64.5 148 -64.5c22.667 0 41.334 9.33301 56.001 28s24.667 45.667 30 81h127l18 -604h-123c-44 155.333 -109.5 274.666 -196.5 357.999s-189.167 125 -306.5 125c-137.333 0 -248.5 -58 -333.5 -174s-127.5 -268.333 -127.5 -457
c0 -195.333 41.833 -349.666 125.5 -462.999s197.5 -170 341.5 -170c114 0 212.167 38.5 294.5 115.5s152.833 196.167 211.5 357.5zM675.999 1620l276 298.999c18 19.333 36.333 34.333 55 45s36 16 52 16c20.667 0 38.5 -7.66699 53.5 -23s22.5 -33.666 22.5 -54.999
c0 -18 -6 -34.167 -18 -48.5s-34 -31.5 -66 -51.5l-301 -182h-74z" />
    <glyph glyph-name="cacute" unicode="&#x107;" horiz-adv-x="1143" 
d="M1077 326c-38.667 -119.333 -96.167 -209.001 -172.5 -269.001s-170.833 -90 -283.5 -90c-154.667 0 -280.167 54.667 -376.5 164s-144.5 252 -144.5 428c0 178 49 321.5 147 430.5s226 163.5 384 163.5c111.333 0 204 -30.333 278 -91s111 -134 111 -220
c0 -52.667 -14.5 -95.5 -43.5 -128.5s-66.5 -49.5 -112.5 -49.5c-44.667 0 -81 13.333 -109 40s-42 61.667 -42 105c0 36 17 73.667 51 113c12 14 20.667 24.667 26 32c-10 26 -28 45.833 -54 59.5s-58.333 20.5 -97 20.5c-96 0 -170.5 -41.333 -223.5 -124
s-79.5 -199.667 -79.5 -351c0 -155.333 25.333 -273 76 -353s125 -120 223 -120c78 0 146 23.833 204 71.5s102.667 116.834 134 207.501zM395 1264l276 298.999c18 19.333 36.333 34.333 55 45s36 16 52 16c20.667 0 38.5 -7.66699 53.5 -23s22.5 -33.666 22.5 -54.999
c0 -18 -6 -34.167 -18 -48.5s-34 -31.5 -66 -51.5l-301 -182h-74z" />
    <glyph glyph-name="Ccaron" unicode="&#x10c;" horiz-adv-x="1602" 
d="M1520 518c-60 -184 -145.334 -322.833 -256.001 -416.5s-246 -140.5 -406 -140.5c-215.333 0 -391.666 72.5 -528.999 217.5s-206 330.5 -206 556.5c0 219.333 67.667 402.833 203 550.5s301.666 221.5 498.999 221.5c105.333 0 205 -21.5 299 -64.5
s143.333 -64.5 148 -64.5c22.667 0 41.334 9.33301 56.001 28s24.667 45.667 30 81h127l18 -604h-123c-44 155.333 -109.5 274.666 -196.5 357.999s-189.167 125 -306.5 125c-137.333 0 -248.5 -58 -333.5 -174s-127.5 -268.333 -127.5 -457
c0 -195.333 41.833 -349.666 125.5 -462.999s197.5 -170 341.5 -170c114 0 212.167 38.5 294.5 115.5s152.833 196.167 211.5 357.5zM556.999 1968h74l221 -195l221 195h74l-229 -348h-134z" />
    <glyph glyph-name="ccaron" unicode="&#x10d;" horiz-adv-x="1143" 
d="M1077 326c-38.667 -119.333 -96.167 -209.001 -172.5 -269.001s-170.833 -90 -283.5 -90c-154.667 0 -280.167 54.667 -376.5 164s-144.5 252 -144.5 428c0 178 49 321.5 147 430.5s226 163.5 384 163.5c111.333 0 204 -30.333 278 -91s111 -134 111 -220
c0 -52.667 -14.5 -95.5 -43.5 -128.5s-66.5 -49.5 -112.5 -49.5c-44.667 0 -81 13.333 -109 40s-42 61.667 -42 105c0 36 17 73.667 51 113c12 14 20.667 24.667 26 32c-10 26 -28 45.833 -54 59.5s-58.333 20.5 -97 20.5c-96 0 -170.5 -41.333 -223.5 -124
s-79.5 -199.667 -79.5 -351c0 -155.333 25.333 -273 76 -353s125 -120 223 -120c78 0 146 23.833 204 71.5s102.667 116.834 134 207.501zM276 1612h74l221 -195l221 195h74l-229 -348h-134z" />
    <glyph glyph-name="dcroat" unicode="&#x111;" horiz-adv-x="1382" 
d="M635 950c-96.667 0 -170.667 -36.001 -222 -108.001s-77 -175.333 -77 -310c0 -136 25.5 -239.5 76.5 -310.5s125.167 -106.5 222.5 -106.5c98 0 174 36.333 228 109s81 175.334 81 308.001c0 130 -27.5 232.167 -82.5 306.5s-130.5 111.5 -226.5 111.5zM967 192.999
c-51.333 -76 -110.334 -133 -177.001 -171s-141.667 -57 -225 -57c-138 0 -250 51.333 -336 154s-129 237.667 -129 405s45 302 135 404s207.667 153 353 153c74.667 0 141.667 -14.833 201 -44.5s115 -76.167 167 -139.5v258h-407v115h407
c-3.33301 54.667 -18.5 92 -45.5 112s-79.833 31.667 -158.5 35v94l201 14.5c68 5 136 10.5 204 16.5v-272h225v-115h-225v-854c0 -64.667 10.667 -108.5 32 -131.5s64.666 -39.167 129.999 -48.5v-121c-7.33301 0 -17.666 0.333008 -30.999 1s-22.666 1 -27.999 1
c-47.333 0 -95 -1.83301 -143 -5.5s-98 -9.16699 -150 -16.5v213z" />
    <glyph glyph-name="Gbreve" unicode="&#x11e;" horiz-adv-x="1886" 
d="M1407 178c-62.667 -69.333 -139.834 -122.835 -231.501 -160.502s-189.834 -56.5 -294.501 -56.5c-225.333 0 -408 71.167 -548 213.5s-210 329.166 -210 560.499c0 116.667 19.167 222.334 57.5 317.001s95.5 178.334 171.5 251.001c68.667 64 149 114 241 150
s185.667 54 281 54c111.333 0 222.833 -23.5 334.5 -70.5s168.167 -70.5 169.5 -70.5c18.667 0 33.167 9.5 43.5 28.5s18.5 51.167 24.5 96.5h127l-2 -545h-119c-42.667 131.333 -111.667 233.5 -207 306.5s-206.666 109.5 -333.999 109.5
c-157.333 0 -280.166 -55.167 -368.499 -165.5s-132.5 -264.166 -132.5 -461.499c0 -196 44.167 -350.167 132.5 -462.5s208.5 -168.5 360.5 -168.5c141.333 0 254.833 34.833 340.5 104.5s128.5 162.5 128.5 278.5c0 66 -13.5 111.667 -40.5 137s-79.5 38 -157.5 38h-76
v143h731v-143c-102 -4 -166.833 -18.833 -194.5 -44.5s-41.5 -77.167 -41.5 -154.5v-463h-114zM643 1933l64.999 0.00195312c12 -47.333 36.167 -81.333 72.5 -102s90.833 -31 163.5 -31c71.333 0 125.333 10.5 162 31.5s60.334 54.833 71.001 101.5h66
c-13.333 -90.667 -45.5 -159.834 -96.5 -207.501s-118.5 -71.5 -202.5 -71.5s-151.667 23.667 -203 71s-84 116.666 -98 207.999z" />
    <glyph glyph-name="gbreve" unicode="&#x11f;" horiz-adv-x="1237" 
d="M563 506c72.667 0 127.001 22.5 163.001 67.5s54 112.5 54 202.5s-18.167 158 -54.5 204s-90.5 69 -162.5 69c-70.667 0 -123.834 -22.833 -159.501 -68.5s-53.5 -113.834 -53.5 -204.501c0 -91.333 17.5 -159.166 52.5 -203.499s88.5 -66.5 160.5 -66.5zM368.001 59
c-30.667 -26.667 -53.666 -52.668 -68.999 -78.001s-23 -50.333 -23 -75c0 -56.667 27.833 -100.5 83.5 -131.5s134.5 -46.5 236.5 -46.5c126.667 0 224.5 17.5 293.5 52.5s103.5 84.167 103.5 147.5c0 40.667 -17.333 71.334 -52 92.001s-86.334 31 -155.001 31h-133
c-34.667 0 -72.167 0.5 -112.5 1.5s-97.833 3.16699 -172.5 6.5zM287.002 87.999c-52.667 15.333 -92.8369 39.5029 -120.504 72.5029s-41.5 73.167 -41.5 120.5c0 42.667 12.667 83.167 38 121.5s61 70.833 107 97.5c-49.333 38 -85.833 79.833 -109.5 125.5
s-35.5 97.167 -35.5 154.5c0 112 40.167 202.833 120.5 272.5s184.833 104.5 313.5 104.5c75.333 0 141 -10.167 197 -30.5s106.333 -52.5 151 -96.5c57.333 57.333 98.833 93.166 124.5 107.499s52.5 21.5 80.5 21.5c42 0 74.667 -14.5 98 -43.5s35 -69.833 35 -122.5
c0 -36 -8.16699 -63.333 -24.5 -82s-40.166 -28 -71.499 -28c-22.667 0 -41 7 -55 21s-21 32 -21 54c0 8 1.66699 19.5 5 34.5s5 26.167 5 33.5c0 10 -1.5 17.333 -4.5 22s-7.5 7 -13.5 7c-18 0 -34.5 -6 -49.5 -18s-34.167 -34.667 -57.5 -68
c16.667 -32 28.834 -62.833 36.501 -92.5s11.5 -60.5 11.5 -92.5c0 -115.333 -39.167 -207.166 -117.5 -275.499s-184.166 -102.5 -317.499 -102.5c-41.333 0 -79.666 3 -114.999 9s-67.333 15 -96 27c-32.667 -19.333 -56.834 -38.166 -72.501 -56.499
s-23.5 -36.833 -23.5 -55.5c0 -32.667 26.833 -56.334 80.5 -71.001s144.834 -22.334 273.501 -23.001c14.667 -0.666992 35.667 -1 63 -1c131.333 -1.33301 217.666 -7.33301 258.999 -18c64 -15.333 113.167 -44.833 147.5 -88.5s51.5 -98.167 51.5 -163.5
c0 -108.667 -49.833 -194.834 -149.5 -258.501s-235.5 -95.5 -407.5 -95.5c-147.333 0 -262.666 23 -345.999 69s-125 109 -125 189c0 40 12 75.667 36 107s70.667 68.666 140 111.999zM316.999 1577l64.999 0.00195312c12 -47.333 36.167 -81.333 72.5 -102
s90.833 -31 163.5 -31c71.333 0 125.333 10.5 162 31.5s60.334 54.833 71.001 101.5h66c-13.333 -90.667 -45.5 -159.834 -96.5 -207.501s-118.5 -71.5 -202.5 -71.5s-151.667 23.667 -203 71s-84 116.666 -98 207.999z" />
    <glyph glyph-name="Idotaccent" unicode="&#x130;" horiz-adv-x="887" 
d="M74 1475l739 0.000976562v-144h-82c-65.333 0 -110.333 -12.667 -135 -38s-37 -75.333 -37 -150v-811c0 -74.667 12.333 -125.167 37 -151.5s69.667 -39.5 135 -39.5h82v-141h-739v141h82c65.333 0 110.333 13.167 135 39.5s37 80.166 37 161.499v801
c0 74 -12.167 123.833 -36.5 149.5s-69.5 38.5 -135.5 38.5h-82v144zM327 1783c0 32 11.667 59.833 35 83.5s50.666 35.5 81.999 35.5c32 0 59.833 -11.833 83.5 -35.5s35.5 -51.5 35.5 -83.5c0 -33.333 -11.333 -61.333 -34 -84s-51 -34 -85 -34
c-33.333 0 -61.166 11.167 -83.499 33.5s-33.5 50.5 -33.5 84.5z" />
    <glyph glyph-name="dotlessi" unicode="&#x131;" horiz-adv-x="631" 
d="M424 317c0 -81.333 11.334 -134 34.001 -158s70.667 -39.333 144 -46v-113h-567v112c78.667 5.33301 130 19.833 154 43.5s36 77.5 36 161.5v469c0 84.667 -12.167 138.834 -36.5 162.501s-75.5 38.167 -153.5 43.5v122c10 0 25.167 -0.333008 45.5 -1
s35.166 -1 44.499 -1c52.667 0 103.5 1.66699 152.5 5s97.833 8.66602 146.5 15.999v-816z" />
    <glyph glyph-name="Lslash" unicode="&#x141;" horiz-adv-x="1497" 
d="M336 602l-335.999 -235v165l336 236v375c0 75.333 -11.833 125.5 -35.5 150.5s-74.834 37.5 -153.501 37.5h-65v144h758v-144h-90c-72.667 0 -121 -12.667 -145 -38s-36 -75.333 -36 -150v-240l369 256v-166l-369 -258v-403c0 -78 12.667 -129.333 38 -154
s75 -37 149 -37h243c116 0 190 13.167 222 39.5s51.667 89.833 59 190.5l16 215h152v-586h-1366v141h84c62.667 0 106.667 13 132 39s38 76.667 38 152v270z" />
    <glyph glyph-name="lslash" unicode="&#x142;" horiz-adv-x="649" 
d="M236 657l-236 -159.001v145l236 160v383c0 83.333 -12.333 137 -37 161s-77.334 38.667 -158.001 44v120c8.66699 0 21.5 -0.333008 38.5 -1s30.167 -1 39.5 -1c50 0 101.333 2 154 6s106.334 9.66699 161.001 17v-619l219 154v-145l-219 -154v-451
c0 -82 11.833 -135.167 35.5 -159.5s74.167 -39.166 151.5 -44.499v-113h-580v112c80 5.33301 132.5 20 157.5 44s37.5 77.667 37.5 161v340z" />
    <glyph glyph-name="OE" unicode="&#x152;" horiz-adv-x="2300" 
d="M1102 332v811.001c0 78.667 -16 131.667 -48 159s-88.333 41 -169 41c-142 0 -255.667 -55 -341 -165s-128 -257.667 -128 -443c0 -184.667 41.167 -329.834 123.5 -435.501s195.5 -158.5 339.5 -158.5c87.333 0 146.333 12 177 36s46 75.667 46 155zM1051 0.000976562
h-153.997c-233.333 0 -420.666 67.5 -561.999 202.5s-212 313.167 -212 534.5c0 222 70.5 401.167 211.5 537.5s327.167 204.5 558.5 204.5c16 0 41.5 -0.666992 76.5 -2s62.167 -2 81.5 -2h1089v-533h-151l-17 160c-0.666992 6.66699 -1.33398 16 -2.00098 28
c-12.667 134 -99.334 201 -260.001 201h-160c-84 0 -139.5 -12.167 -166.5 -36.5s-40.5 -74.833 -40.5 -151.5v-303h84c77.333 0 130.166 11.667 158.499 35s42.5 67 42.5 131v98h146v-680h-146v106c0 64 -14.5 107.667 -43.5 131s-81.5 35 -157.5 35h-84v-364
c0 -76.667 13.333 -127.667 40 -153s79 -38 157 -38h168c97.333 0 163.166 10.833 197.499 32.5s55.833 84.5 64.5 188.5l19 189h151v-551h-1089z" />
    <glyph glyph-name="oe" unicode="&#x153;" horiz-adv-x="1976" 
d="M1158 680h485.998c-2 113.333 -22.333 199 -61 257s-94.667 87 -168 87c-77.333 0 -138.166 -29.5 -182.499 -88.5s-69.166 -144.167 -74.499 -255.5zM634.998 86c101.333 0 176.5 38.833 225.5 116.5s73.5 196.5 73.5 356.5c0 160.667 -24.667 280 -74 358
s-124.333 117 -225 117c-101.333 0 -176.5 -39 -225.5 -117s-73.5 -197.333 -73.5 -358c0 -160 24.5 -278.833 73.5 -356.5s124.167 -116.5 225.5 -116.5zM1042 961c52 65.333 108.668 113.668 170.001 145.001s129.666 47 204.999 47c142.667 0 255.834 -52 339.501 -156
s125.5 -245.333 125.5 -424v-12h-729v-24c0 -144 26 -255.167 78 -333.5s125.667 -117.5 221 -117.5c65.333 0 121.166 15.667 167.499 47s89.5 82.666 129.5 153.999l96 -78c-50.667 -84 -108.667 -145.333 -174 -184s-143 -58 -233 -58c-82 0 -155.833 15.5 -221.5 46.5
s-123.834 77.833 -174.501 140.5c-64.667 -65.333 -129.5 -112.833 -194.5 -142.5s-135.833 -44.5 -212.5 -44.5c-159.333 0 -288.333 54.333 -387 163s-148 251.667 -148 429c0 179.333 49 323.166 147 431.499s227.333 162.5 388 162.5c81.333 0 155.333 -15.667 222 -47
s128.334 -79.666 185.001 -144.999z" />
    <glyph glyph-name="Scedilla" unicode="&#x15e;" horiz-adv-x="1475" 
d="M256 0l-123 0.000976562v647h141c36.667 -168 108 -300.5 214 -397.5s232.667 -145.5 380 -145.5c90.667 0 162.834 24.167 216.501 72.5s80.5 112.5 80.5 192.5c0 78 -26.833 138.333 -80.5 181s-175.5 84 -365.5 124c-212.667 44 -358 97.667 -436 161
s-117 152.333 -117 267c0 124.667 44.5 223.334 133.5 296.001s210.5 109 364.5 109c82 0 169.333 -18.333 262 -55s144.334 -55 155.001 -55c17.333 0 32 7.83301 44 23.5s18.667 36.167 20 61.5l133 1v-527h-133c-34.667 137.333 -91 240.333 -169 309
s-177.333 103 -298 103c-90.667 0 -163.167 -19.833 -217.5 -59.5s-81.5 -92.167 -81.5 -157.5c0 -110.667 132.333 -194.334 397 -251.001c27.333 -6 47.666 -10.333 60.999 -13c207.333 -46 349.333 -103.5 426 -172.5s115 -167.167 115 -294.5
c0 -134.667 -46.833 -244.834 -140.5 -330.501s-213.834 -128.5 -360.501 -128.5c-120.667 0 -239.5 29.333 -356.5 88s-177.833 88 -182.5 88c-23.333 0 -41.5 -10.667 -54.5 -32s-22.167 -56.333 -27.5 -105zM493 -378.999l39.001 90
c39.333 -24.667 79.166 -43.834 119.499 -57.501s77.833 -20.5 112.5 -20.5c37.333 0 65 7.33301 83 22s27 37.667 27 69c0 28.667 -9.16699 50.167 -27.5 64.5s-45.833 21.5 -82.5 21.5c-2.66699 0 -8.16699 -0.5 -16.5 -1.5s-22.833 -2.5 -43.5 -4.5v196h66v-115
c10.667 1.33301 21.167 2.33301 31.5 3s22.833 1 37.5 1c54 0 97.333 -15.167 130 -45.5s49 -70.166 49 -119.499c0 -56 -19.833 -99.833 -59.5 -131.5s-95.167 -47.5 -166.5 -47.5c-38.667 0 -81.5 6 -128.5 18s-103.833 31.333 -170.5 58z" />
    <glyph glyph-name="scedilla" unicode="&#x15f;" horiz-adv-x="1042" 
d="M197 -33l-94.999 -0.00292969v475h111c28 -109.333 76.5 -196.666 145.5 -261.999s145.5 -98 229.5 -98c56 0 101.667 15.167 137 45.5s53 69.166 53 116.499c0 44 -16.667 82.833 -50 116.5s-94.333 70.5 -183 110.5c-175.333 78 -287.833 142.833 -337.5 194.5
s-74.5 115.167 -74.5 190.5c0 86.667 31.333 157.834 94 213.501s142.667 83.5 240 83.5c58 0 117.167 -14.333 177.5 -43s91.833 -43 94.5 -43c14.667 0 26.834 7.5 36.501 22.5s16.167 35.5 19.5 61.5h100v-373h-109c-32 83.333 -74.5 146.833 -127.5 190.5
s-113.5 65.5 -181.5 65.5c-48 0 -86.667 -12.333 -116 -37s-44 -56.667 -44 -96c0 -62 73 -125.667 219 -191c28.667 -12.667 50.667 -22.667 66 -30c143.333 -67.333 240.333 -129.666 291 -186.999s76 -126.666 76 -207.999c0 -92 -34.333 -168.333 -103 -229
s-155.334 -91 -260.001 -91c-86.667 0 -180.334 27.333 -281.001 82c-28 15.333 -45.667 23 -53 23c-17.333 0 -31.833 -7.83301 -43.5 -23.5s-22.167 -42.167 -31.5 -79.5zM278.001 -379.003l39.001 90c39.333 -24.667 79.166 -43.834 119.499 -57.501
s77.833 -20.5 112.5 -20.5c37.333 0 65 7.33301 83 22s27 37.667 27 69c0 28.667 -9.16699 50.167 -27.5 64.5s-45.833 21.5 -82.5 21.5c-2.66699 0 -8.16699 -0.5 -16.5 -1.5s-22.833 -2.5 -43.5 -4.5v196h66v-115c10.667 1.33301 21.167 2.33301 31.5 3s22.833 1 37.5 1
c54 0 97.333 -15.167 130 -45.5s49 -70.166 49 -119.499c0 -56 -19.833 -99.833 -59.5 -131.5s-95.167 -47.5 -166.5 -47.5c-38.667 0 -81.5 6 -128.5 18s-103.833 31.333 -170.5 58z" />
    <glyph glyph-name="Scaron" unicode="&#x160;" horiz-adv-x="1475" 
d="M256 0l-123 0.000976562v647h141c36.667 -168 108 -300.5 214 -397.5s232.667 -145.5 380 -145.5c90.667 0 162.834 24.167 216.501 72.5s80.5 112.5 80.5 192.5c0 78 -26.833 138.333 -80.5 181s-175.5 84 -365.5 124c-212.667 44 -358 97.667 -436 161
s-117 152.333 -117 267c0 124.667 44.5 223.334 133.5 296.001s210.5 109 364.5 109c82 0 169.333 -18.333 262 -55s144.334 -55 155.001 -55c17.333 0 32 7.83301 44 23.5s18.667 36.167 20 61.5l133 1v-527h-133c-34.667 137.333 -91 240.333 -169 309
s-177.333 103 -298 103c-90.667 0 -163.167 -19.833 -217.5 -59.5s-81.5 -92.167 -81.5 -157.5c0 -110.667 132.333 -194.334 397 -251.001c27.333 -6 47.666 -10.333 60.999 -13c207.333 -46 349.333 -103.5 426 -172.5s115 -167.167 115 -294.5
c0 -134.667 -46.833 -244.834 -140.5 -330.501s-213.834 -128.5 -360.501 -128.5c-120.667 0 -239.5 29.333 -356.5 88s-177.833 88 -182.5 88c-23.333 0 -41.5 -10.667 -54.5 -32s-22.167 -56.333 -27.5 -105zM442 1968h74l221 -195l221 195h74l-229 -348h-134z" />
    <glyph glyph-name="scaron" unicode="&#x161;" horiz-adv-x="1042" 
d="M197 -33l-94.999 -0.00292969v475h111c28 -109.333 76.5 -196.666 145.5 -261.999s145.5 -98 229.5 -98c56 0 101.667 15.167 137 45.5s53 69.166 53 116.499c0 44 -16.667 82.833 -50 116.5s-94.333 70.5 -183 110.5c-175.333 78 -287.833 142.833 -337.5 194.5
s-74.5 115.167 -74.5 190.5c0 86.667 31.333 157.834 94 213.501s142.667 83.5 240 83.5c58 0 117.167 -14.333 177.5 -43s91.833 -43 94.5 -43c14.667 0 26.834 7.5 36.501 22.5s16.167 35.5 19.5 61.5h100v-373h-109c-32 83.333 -74.5 146.833 -127.5 190.5
s-113.5 65.5 -181.5 65.5c-48 0 -86.667 -12.333 -116 -37s-44 -56.667 -44 -96c0 -62 73 -125.667 219 -191c28.667 -12.667 50.667 -22.667 66 -30c143.333 -67.333 240.333 -129.666 291 -186.999s76 -126.666 76 -207.999c0 -92 -34.333 -168.333 -103 -229
s-155.334 -91 -260.001 -91c-86.667 0 -180.334 27.333 -281.001 82c-28 15.333 -45.667 23 -53 23c-17.333 0 -31.833 -7.83301 -43.5 -23.5s-22.167 -42.167 -31.5 -79.5zM227.001 1612h74l221 -195l221 195h74l-229 -348h-134z" />
    <glyph glyph-name="Ydieresis" unicode="&#x178;" horiz-adv-x="1575" 
d="M1135 1159c6 9.33301 11.1641 20.999 15.4971 34.999s6.5 26.333 6.5 37c0 30 -10.667 54.167 -32 72.5s-49.666 27.5 -84.999 27.5h-90v144h662v-144c-71.333 -6.66699 -132.666 -26.167 -183.999 -58.5s-98 -80.5 -140 -144.5l-373 -577v-223
c0 -74.667 14.167 -124.5 42.5 -149.5s79.833 -37.5 154.5 -37.5h121v-141h-866v141h120c74.667 0 126.167 12.667 154.5 38s42.5 76.333 42.5 153v231l-455 654c-26.667 38.667 -57 66.334 -91 83.001s-84.667 27 -152 31v144h737v-144h-92
c-39.333 0 -69.666 -7.16699 -90.999 -21.5s-32 -35.166 -32 -62.499c0 -12.667 2.83301 -25.834 8.5 -39.501s16.5 -32.5 32.5 -56.5l303 -440zM857.997 1783c0 30 11 56.001 33 78.001s48.333 33 79 33c31.333 0 58 -10.833 80 -32.5s33 -47.834 33 -78.501
c0 -32 -10.833 -59 -32.5 -81s-48.5 -33 -80.5 -33c-31.333 0 -57.833 11 -79.5 33s-32.5 49 -32.5 81zM492.997 1783c0 30 11.5 56 34.5 78s49.833 33 80.5 33s56.667 -10.667 78 -32s32 -47.666 32 -78.999c0 -32.667 -10.5 -59.834 -31.5 -81.501
s-47.167 -32.5 -78.5 -32.5c-32 0 -59.167 11 -81.5 33s-33.5 49 -33.5 81z" />
    <glyph glyph-name="Zcaron" unicode="&#x17d;" horiz-adv-x="1485" 
d="M600 1331c-125.333 0 -207.168 -14.833 -245.501 -44.5s-61.5 -93.834 -69.5 -192.501l-13 -146h-131l19 527h1175v-144l-981 -1190h510c128.667 0 216.834 17.833 264.501 53.5s74.167 97.834 79.5 186.501l15 231h141v-612h-1249v186l929 1145h-444zM447.998 1968h74
l221 -195l221 195h74l-229 -348h-134z" />
    <glyph glyph-name="zcaron" unicode="&#x17e;" horiz-adv-x="1100" 
d="M84 0v147l670 852h-297c-96 0 -156 -10.333 -180 -31s-38.667 -67 -44 -139l-8 -143h-112v432h880v-119l-688 -880h340c92 0 150.167 14.833 174.5 44.5s40.5 93.167 48.5 190.5l13 133h112v-487h-909zM256 1612h74l221 -195l221 195h74l-229 -348h-134z" />
    <glyph glyph-name="florin" unicode="&#x192;" horiz-adv-x="1147" 
d="M512 991c20.667 186 64.6689 326.334 132.002 421.001s156.333 142 267 142c60 0 109.5 -16.333 148.5 -49s58.5 -73.667 58.5 -123c0 -42 -10.5 -74.333 -31.5 -97s-51.5 -34 -91.5 -34c-30.667 0 -56.667 10.333 -78 31s-32 45.334 -32 74.001
c0 10.667 3.66699 24.834 11 42.501s11 29.5 11 35.5c0 4.66699 -2.83301 8.5 -8.5 11.5s-13.834 4.5 -24.501 4.5c-54 0 -96.333 -39.833 -127 -119.5s-46.667 -192.834 -48 -339.501h227l-15 -110h-219c-24 -478.667 -70.333 -806.334 -139 -983.001
s-177.334 -265 -326.001 -265c-63.333 0 -114.333 15.667 -153 47s-58 72.333 -58 123c0 40 11.333 72.333 34 97s52.334 37 89.001 37c32.667 0 59.667 -10.167 81 -30.5s32 -45.833 32 -76.5c0 -15.333 -3.5 -31.5 -10.5 -48.5s-10.5 -26.833 -10.5 -29.5
c0 -5.33301 4 -10 12 -14s17.667 -6 29 -6c33.333 0 63.166 20.167 89.499 60.5s45.833 95.833 58.5 166.5c10 59.333 21 191.666 33 396.999s26.333 380.333 43 525h-230l13 110h233z" />
    <glyph glyph-name="circumflex" unicode="&#x2c6;" 
d="M217 1264l227 348h134l229 -348h-74l-221 194l-221 -194h-74z" />
    <glyph glyph-name="caron" unicode="&#x2c7;" 
d="M217 1612h74l221 -195l221 195h74l-229 -348h-134z" />
    <glyph glyph-name="breve" unicode="&#x2d8;" 
d="M211 1577l64.999 0.00195312c12 -47.333 36.167 -81.333 72.5 -102s90.833 -31 163.5 -31c71.333 0 125.333 10.5 162 31.5s60.334 54.833 71.001 101.5h66c-13.333 -90.667 -45.5 -159.834 -96.5 -207.501s-118.5 -71.5 -202.5 -71.5s-151.667 23.667 -203 71
s-84 116.666 -98 207.999z" />
    <glyph glyph-name="dotaccent" unicode="&#x2d9;" 
d="M395 1427c0 32 11.667 59.833 35 83.5s50.666 35.5 81.999 35.5c32 0 59.833 -11.833 83.5 -35.5s35.5 -51.5 35.5 -83.5c0 -33.333 -11.333 -61.333 -34 -84s-51 -34 -85 -34c-33.333 0 -61.166 11.167 -83.499 33.5s-33.5 50.5 -33.5 84.5z" />
    <glyph glyph-name="ring" unicode="&#x2da;" 
d="M371 1491c0 -39.333 13.667 -72.666 41 -99.999s60.666 -41 99.999 -41s72.666 13.667 99.999 41s41 60.666 41 99.999c0 40 -13.667 73.833 -41 101.5s-60.666 41.5 -99.999 41.5s-72.666 -14 -99.999 -42s-41 -61.667 -41 -101zM264 1491c0 68.667 24 127.167 72 175.5
s106.667 72.5 176 72.5s128 -24.167 176 -72.5s72 -106.833 72 -175.5c0 -70 -24 -128.833 -72 -176.5s-106.667 -71.5 -176 -71.5s-128 23.833 -176 71.5s-72 106.5 -72 176.5z" />
    <glyph glyph-name="ogonek" unicode="&#x2db;" 
d="M678 35c-55.333 -42 -98.168 -85.499 -128.501 -130.499s-45.5 -86.833 -45.5 -125.5c0 -39.333 8 -70 24 -92s38.667 -33 68 -33c24 0 45.833 5.66699 65.5 17s38.834 29.666 57.501 54.999l29 -17c-24.667 -50 -56 -88.833 -94 -116.5s-80 -41.5 -126 -41.5
c-47.333 0 -85.333 14.167 -114 42.5s-43 65.5 -43 111.5c0 56 21.333 111 64 165s108 109 196 165h47z" />
    <glyph glyph-name="tilde" unicode="&#x2dc;" 
d="M795 1581c-14.667 -75.333 -38.5029 -132.333 -71.5029 -171s-74.167 -58 -123.5 -58c-8 0 -16.167 0.5 -24.5 1.5s-17.5 2.5 -27.5 4.5l-106 26c-18 4.66699 -30.5 7.66699 -37.5 9s-12.167 2 -15.5 2c-28 0 -49.333 -6.66699 -64 -20s-27.334 -37.333 -38.001 -72h-58
c14.667 76.667 38.667 134.667 72 174s75 59 125 59c6 0 14.333 -0.833008 25 -2.5s23.334 -4.16699 38.001 -7.5l109 -27c8 -2 16.333 -3.5 25 -4.5s17.334 -1.5 26.001 -1.5c22.667 0 41.334 7.33301 56.001 22s25.334 36.667 32.001 66h58z" />
    <glyph glyph-name="hungarumlaut" unicode="&#x2dd;" 
d="M567 1264l173.999 282.001c16.667 26 32.834 45.167 48.501 57.5s32.5 18.5 50.5 18.5c20.667 0 37.667 -6.83301 51 -20.5s20 -31.5 20 -53.5c0 -14 -5 -28.833 -15 -44.5s-26 -32.834 -48 -51.501l-221 -188h-60zM321.999 1264l132.999 274
c13.333 29.333 27.833 51 43.5 65s33.167 21 52.5 21c18.667 0 35.334 -7.5 50.001 -22.5s22 -32.167 22 -51.5c0 -12 -3.66699 -24.333 -11 -37s-22.333 -31 -45 -55l-184 -194h-61z" />
    <glyph glyph-name="Omega" unicode="&#x3a9;" horiz-adv-x="1569" 
d="M1112 231v-26h311l60 184h61l-117 -389h-505c80 144 140.5 289 181.5 435s61.5 288.333 61.5 427c0 184.667 -31.833 324 -95.5 418s-158.167 141 -283.5 141c-126 0 -220.833 -46.667 -284.5 -140s-95.5 -233 -95.5 -419c0 -139.333 20.333 -281.333 61 -426
s101.334 -290 182.001 -436h-506l-116 389h61l59 -184h312v26c-110 122 -189 233.667 -237 335s-72 205 -72 311c0 178 61 325.833 183 443.5s273 176.5 453 176.5s330.833 -59 452.5 -177s182.5 -265.667 182.5 -443c0 -105.333 -23.833 -208.333 -71.5 -309
s-126.834 -213 -237.501 -337z" />
    <glyph glyph-name="pi" unicode="&#x3c0;" horiz-adv-x="1389" 
d="M1370 885l-42.998 -199.001h-340c-22 -91.333 -34.333 -225 -37 -401c-0.666992 -38.667 -1.33398 -67.667 -2.00098 -87c-2 -83.333 -12.833 -144.333 -32.5 -183s-49.834 -58 -90.501 -58c-28 0 -49.333 9.33301 -64 28s-22 46.334 -22 83.001
c0 38.667 25.667 125 77 259s89.333 253.667 114 359h-387c-23.333 -94.667 -36.666 -232.667 -39.999 -414c-0.666992 -32.667 -1 -57 -1 -73c-2.66699 -84.667 -13.667 -146.167 -33 -184.5s-49.333 -57.5 -90 -57.5c-28 0 -49 9.33301 -63 28s-21 46.334 -21 83.001
c0 39.333 25.333 126 76 260s88 253.333 112 358h-188c-60.667 0 -105.834 -13.833 -135.501 -41.5s-52.167 -78.5 -67.5 -152.5h-57c26.667 145.333 68 247.166 124 305.499s139.667 87.5 251 87.5h960z" />
    <glyph glyph-name="endash" unicode="&#x2013;" 
d="M1024 633v-133h-1024v133h1024z" />
    <glyph glyph-name="emdash" unicode="&#x2014;" horiz-adv-x="2048" 
d="M2048 500h-2048v133h2048v-133z" />
    <glyph glyph-name="quoteleft" unicode="&#x2018;" horiz-adv-x="573" 
d="M240 1172l27 4.00098c8.66699 1.33301 16 2 22 2c40 0 72.167 -12.333 96.5 -37s36.5 -57.667 36.5 -99c0 -40 -13.333 -72.833 -40 -98.5s-61 -38.5 -103 -38.5c-50 0 -89.5 17.167 -118.5 51.5s-43.5 80.833 -43.5 139.5c0 52.667 12 106.5 36 161.5s57 103.5 99 145.5
c26 26 53.5 47 82.5 63s60.833 27.667 95.5 35v-84c-58.667 -24.667 -103 -56.334 -133 -95.001s-49 -88.667 -57 -150z" />
    <glyph glyph-name="quoteright" unicode="&#x2019;" horiz-adv-x="573" 
d="M344 1241c-10 -2 -19.167 -3.50098 -27.5 -4.50098s-15.5 -1.5 -21.5 -1.5c-40 0 -72.167 12.333 -96.5 37s-36.5 57.334 -36.5 98.001s13 73.667 39 99s60 38 102 38c50 0 89.833 -17.167 119.5 -51.5s44.5 -80.5 44.5 -138.5c0 -92.667 -30.5 -179 -91.5 -259
s-134.833 -129 -221.5 -147v84c58 24.667 102.167 56.5 132.5 95.5s49.5 89.167 57.5 150.5z" />
    <glyph glyph-name="quotesinglbase" unicode="&#x201a;" horiz-adv-x="573" 
d="M309 -35c-10.667 -2 -20 -3.5 -28 -4.5s-15 -1.5 -21 -1.5c-40 0 -72.167 12 -96.5 36s-36.5 56.333 -36.5 97c0 41.333 13 74.833 39 100.5s60 38.5 102 38.5c50 0 89.833 -17 119.5 -51s44.5 -80.333 44.5 -139c0 -92.667 -30.5 -179 -91.5 -259
s-134.833 -129 -221.5 -147v84c58 24.667 102.167 56.5 132.5 95.5s49.5 89.167 57.5 150.5z" />
    <glyph glyph-name="quotedblleft" unicode="&#x201c;" horiz-adv-x="985" 
d="M688 1172c10.667 2 20.168 3.50098 28.501 4.50098s15.166 1.5 20.499 1.5c40 0 72.167 -12.333 96.5 -37s36.5 -57.667 36.5 -99c0 -40.667 -13 -73.667 -39 -99s-60 -38 -102 -38c-50 0 -89.833 17.167 -119.5 51.5s-44.5 80.833 -44.5 139.5
c0 92.667 30.5 179 91.5 259s135.167 128.667 222.5 146v-84c-58.667 -24.667 -103.167 -56.334 -133.5 -95.001s-49.5 -88.667 -57.5 -150zM223.001 1172c10 1.33301 19.333 2.66797 28 4.00098s15.667 2 21 2c40.667 0 73.167 -12.333 97.5 -37s36.5 -57.667 36.5 -99
c0 -40.667 -13 -73.667 -39 -99s-60.333 -38 -103 -38c-50 0 -89.833 17.167 -119.5 51.5s-44.5 80.833 -44.5 139.5c0 92.667 30.5 179 91.5 259s135.167 128.667 222.5 146v-84c-58.667 -24.667 -103 -56.334 -133 -95.001s-49.333 -88.667 -58 -150z" />
    <glyph glyph-name="quotedblright" unicode="&#x201d;" horiz-adv-x="985" 
d="M770 1241c-10 -2 -19.167 -3.50098 -27.5 -4.50098s-15.5 -1.5 -21.5 -1.5c-40 0 -72.167 12.333 -96.5 37s-36.5 57.334 -36.5 98.001s13.167 73.667 39.5 99s60.833 38 103.5 38c50 0 89.5 -17 118.5 -51s43.5 -80.333 43.5 -139c0 -92.667 -30.5 -179 -91.5 -259
s-134.833 -129 -221.5 -147v84c58 24.667 102.167 56.5 132.5 95.5s49.5 89.167 57.5 150.5zM305 1241c-10 -2 -19.167 -3.50098 -27.5 -4.50098s-15.5 -1.5 -21.5 -1.5c-40 0 -72.167 12.333 -96.5 37s-36.5 57.334 -36.5 98.001s13.333 73.667 40 99s61 38 103 38
c50 0 89.5 -17 118.5 -51s43.5 -80.333 43.5 -139c0 -92.667 -30.5 -179 -91.5 -259s-134.833 -129 -221.5 -147v84c58 24.667 102.167 56.5 132.5 95.5s49.5 89.167 57.5 150.5z" />
    <glyph glyph-name="quotedblbase" unicode="&#x201e;" horiz-adv-x="985" 
d="M276 -35c-10.667 -2 -19.667 -3.50098 -27 -4.50098s-14 -1.5 -20 -1.5c-40 0 -72.167 12 -96.5 36s-36.5 56.333 -36.5 97c0 41.333 13.167 74.833 39.5 100.5s60.5 38.5 102.5 38.5c49.333 0 88.5 -17 117.5 -51s43.5 -80.333 43.5 -139
c0 -93.333 -30.167 -179.833 -90.5 -259.5s-133.833 -128.5 -220.5 -146.5v84c58 24.667 101.833 56.334 131.5 95.001s48.5 89 56.5 151zM743 -35.001c-10 -2 -19.166 -3.50195 -27.499 -4.50195s-15.5 -1.5 -21.5 -1.5c-40 0 -72.167 12 -96.5 36s-36.5 56.333 -36.5 97
c0 41.333 13.167 74.833 39.5 100.5s60.166 38.5 101.499 38.5c50.667 0 90.667 -17 120 -51s44 -80.333 44 -139c0 -52.667 -12 -106.667 -36 -162s-57 -103.666 -99 -144.999c-26 -26 -53.5 -47.167 -82.5 -63.5s-60.833 -28.166 -95.5 -35.499v84
c58.667 24.667 103 56.5 133 95.5s49 89.167 57 150.5z" />
    <glyph glyph-name="dagger" unicode="&#x2020;" 
d="M485 -229c-6 194 -16.9971 355.504 -32.9971 484.504s-39 253.5 -69 373.5c33.333 54 58.666 110.167 75.999 168.5s26 116.833 26 175.5v20c-44.667 -1.33301 -96.834 -16.333 -156.501 -45s-103.5 -43 -131.5 -43c-35.333 0 -63.333 9.83301 -84 29.5
s-31 46.167 -31 79.5c0 32.667 11.5 59.5 34.5 80.5s51.833 31.5 86.5 31.5c28 0 72 -13.333 132 -40s110 -40.334 150 -41.001v22c0 63.333 -14.667 130.166 -44 200.499s-44 113.5 -44 129.5c0 32 10.833 58.333 32.5 79s49.167 31 82.5 31c35.333 0 64 -10 86 -30
s33 -46 33 -78c0 -8 -15 -48.333 -45 -121s-45 -144.334 -45 -215.001v-19h4c44 0 95.167 13.667 153.5 41s100.5 41 126.5 41c37.333 0 66.166 -9.5 86.499 -28.5s30.5 -46.167 30.5 -81.5s-10.333 -63 -31 -83s-49.334 -30 -86.001 -30c-28.667 0 -72.167 14 -130.5 42
s-110.166 43.333 -155.499 46c4 -79.333 14.667 -148.333 32 -207s42 -110.334 74 -155.001c-32 -112.667 -56.333 -241.167 -73 -385.5s-25 -301.833 -25 -472.5h-62z" />
    <glyph glyph-name="daggerdbl" unicode="&#x2021;" 
d="M383 629c33.333 54 58.666 110.168 75.999 168.501s26 116.833 26 175.5v20c-44.667 -1.33301 -96.834 -16.333 -156.501 -45s-103.5 -43 -131.5 -43c-35.333 0 -63.333 9.83301 -84 29.5s-31 46.167 -31 79.5c0 32.667 11.167 59.5 33.5 80.5s50.833 31.5 85.5 31.5
c28 0 72.333 -13.333 133 -40s111 -40.334 151 -41.001v22c0 63.333 -15 130.166 -45 200.499s-45 113.5 -45 129.5c0 32 11.167 58.333 33.5 79s50.166 31 83.499 31c35.333 0 63.333 -10 84 -30s31 -46 31 -78c0 -8 -14.333 -48.333 -43 -121s-43 -144.334 -43 -215.001
v-19h4c44 0 95.167 13.667 153.5 41s100.5 41 126.5 41c37.333 0 65.833 -9.5 85.5 -28.5s29.5 -46.167 29.5 -81.5c0 -36 -10.167 -63.833 -30.5 -83.5s-48.5 -29.5 -84.5 -29.5c-28.667 0 -72.167 14 -130.5 42s-110.166 43.333 -155.499 46
c4 -81.333 14.5 -151 31.5 -209s41.167 -109 72.5 -153c-34.667 -51.333 -60.667 -106.5 -78 -165.5s-26 -121.5 -26 -187.5v-10c44.667 1.33301 96.834 16.333 156.501 45s103.5 43 131.5 43c35.333 0 63 -9.66699 83 -29s30 -45.666 30 -78.999s-11.167 -60.5 -33.5 -81.5
s-50.833 -31.5 -85.5 -31.5c-28 0 -72.167 13.5 -132.5 40.5s-110.166 40.833 -149.499 41.5v-22c0 -63.333 14.667 -130.166 44 -200.499s44 -113.5 44 -129.5c0 -32.667 -10.833 -59.334 -32.5 -80.001s-49.167 -31 -82.5 -31c-35.333 0 -63.666 10.167 -84.999 30.5
s-32 46.5 -32 78.5c0 8 14.667 48.333 44 121s44 144.334 44 215.001v18h-4c-44 0 -95.167 -13.333 -153.5 -40s-100.5 -40 -126.5 -40c-38 0 -67 9.33301 -87 28s-30 45.667 -30 81s10.333 62.833 31 82.5s49.334 29.5 86.001 29.5c28.667 0 72.167 -13.833 130.5 -41.5
s110.166 -43.167 155.499 -46.5c-4 77.333 -14.333 145 -31 203s-40.334 110.667 -71.001 158z" />
    <glyph glyph-name="bullet" unicode="&#x2022;" horiz-adv-x="1208" 
d="M307 762c0 82 28.999 151.666 86.999 208.999s128 86 210 86c81.333 0 150.833 -28.833 208.5 -86.5s86.5 -127.167 86.5 -208.5s-29.167 -151.166 -87.5 -209.499s-128.166 -87.5 -209.499 -87.5c-82 0 -151.667 29 -209 87s-86 128 -86 210z" />
    <glyph glyph-name="ellipsis" unicode="&#x2026;" horiz-adv-x="2048" 
d="M202 100c0 38 13.833 70.833 41.5 98.5s60.5 41.5 98.5 41.5s70.333 -13.667 97 -41s40 -60.333 40 -99s-13.333 -71.5 -40 -98.5s-59 -40.5 -97 -40.5s-70.833 13.833 -98.5 41.5s-41.5 60.167 -41.5 97.5zM884 100c0 38 13.833 70.833 41.5 98.5s60.5 41.5 98.5 41.5
s70.333 -13.667 97 -41s40 -60.333 40 -99s-13.333 -71.5 -40 -98.5s-59 -40.5 -97 -40.5s-70.833 13.833 -98.5 41.5s-41.5 60.167 -41.5 97.5zM1568 100c0 38 13.833 70.833 41.5 98.5s60.5 41.5 98.5 41.5s70.333 -13.667 97 -41s40 -60.333 40 -99
s-13.333 -71.5 -40 -98.5s-59 -40.5 -97 -40.5s-70.833 13.833 -98.5 41.5s-41.5 60.167 -41.5 97.5z" />
    <glyph glyph-name="perthousand" unicode="&#x2030;" horiz-adv-x="2701" 
d="M1712 532c0 56.667 -12.667 102.001 -38 136.001s-58.333 51 -99 51c-37.333 0 -77 -19.667 -119 -59s-81.667 -94 -119 -164c-28.667 -54.667 -51.167 -111 -67.5 -169s-24.5 -108.333 -24.5 -151s11.5 -75.834 34.5 -99.501s54.5 -35.5 94.5 -35.5
c81.333 0 158 52.333 230 157s108 216 108 334zM1782 524.001c0 -145.333 -45.5 -275.5 -136.5 -390.5s-193.833 -172.5 -308.5 -172.5c-81.333 0 -147.333 27.667 -198 83s-76 128 -76 218c0 136 48.833 259.5 146.5 370.5s204.5 166.5 320.5 166.5
c82 0 144.5 -23.5 187.5 -70.5s64.5 -115.167 64.5 -204.5zM737 1298c-28.667 16.667 -56.001 33.833 -82.001 51.5s-50.333 36.167 -73 55.5c-80 -38 -151 -114 -213 -228s-93 -220.333 -93 -319c0 -42 11.833 -75 35.5 -99s55.834 -36 96.501 -36
c80.667 0 156.667 52.5 228 157.5s107 216.167 107 333.5c0 10.667 -0.5 22.667 -1.5 36s-2.5 29.333 -4.5 48zM1341 1522h97l-875 -1579h-121l772 1392c-39.333 -28 -80.833 -49.667 -124.5 -65s-85.167 -23 -124.5 -23c-25.333 0 -50.5 2.33301 -75.5 7
s-51.167 12 -78.5 22c0 -4.66699 0.333008 -11.5 1 -20.5s1 -15.833 1 -20.5c0 -162 -44.833 -301.5 -134.5 -418.5s-193.5 -175.5 -311.5 -175.5c-82.667 0 -149.5 27.5 -200.5 82.5s-76.5 127.167 -76.5 216.5c0 134.667 48.833 257.834 146.5 369.501
s203.167 167.5 316.5 167.5c48 0 89.833 -8.5 125.5 -25.5s76.5 -48.833 122.5 -95.5c30.667 -12 58.5 -20.833 83.5 -26.5s48.833 -8.5 71.5 -8.5c68 0 136.167 17.667 204.5 53s128.5 84.666 180.5 147.999zM2540 532c0 56.667 -12.668 102.001 -38.001 136.001
s-58.666 51 -100 51c-37.333 0 -76.833 -19.667 -118.5 -59s-81.167 -94 -118.5 -164c-28.667 -54.667 -51.167 -111 -67.5 -169s-24.5 -108.333 -24.5 -151s11.333 -75.834 34 -99.501s54.334 -35.5 95.001 -35.5c80.667 0 157.167 52.333 229.5 157s108.5 216 108.5 334z
M2609 524.001c0 -145.333 -45.5 -275.499 -136.5 -390.499s-193.5 -172.5 -307.5 -172.5c-82 0 -148.667 27.667 -200 83s-77 128 -77 218c0 135.333 49.167 258.666 147.5 369.999s205.5 167 321.5 167c82 0 144.5 -23.5 187.5 -70.5s64.5 -115.167 64.5 -204.5z" />
    <glyph glyph-name="guilsinglleft" unicode="&#x2039;" horiz-adv-x="645" 
d="M98 553c104 80 199.999 162.834 287.999 248.501s134 128.5 138 128.5c8 -0.666992 13.667 -2.83398 17 -6.50098s5.33301 -9.83398 6 -18.501c0 -21.333 -17.5 -60.5 -52.5 -117.5s-89.833 -135.833 -164.5 -236.5c61.333 -81.333 111.5 -154.833 150.5 -220.5
s58.5 -108.167 58.5 -127.5c0 -8.66699 -1.66699 -15 -5 -19s-8.66602 -6 -15.999 -6c-12.667 0 -63.5 43.833 -152.5 131.5s-178.167 168.834 -267.5 243.501z" />
    <glyph glyph-name="guilsinglright" unicode="&#x203a;" horiz-adv-x="645" 
d="M545 553c-104 -80 -200.001 -162.835 -288.001 -248.502s-134 -128.5 -138 -128.5c-6.66699 0 -11.834 2.33301 -15.501 7s-5.5 11.334 -5.5 20.001c0 22 17.667 62 53 120s89.333 136 162 234c-62 82 -112.333 155.5 -151 220.5s-58 106.833 -58 125.5
c0 8.66699 1.83301 15.334 5.5 20.001s8.83398 7 15.501 7c12 0 62.333 -44 151 -132s178.334 -169.667 269.001 -245z" />
    <glyph glyph-name="franc" unicode="&#x20a3;" horiz-adv-x="2410" 
d="M559 332l-0.000976562 -43c0 -52.667 14.333 -90.5 43 -113.5s77.334 -34.5 146.001 -34.5h104v-141h-778v141h82c63.333 0 107.833 13.333 133.5 40s38.5 77 38.5 151v811c0 74 -11.833 123.833 -35.5 149.5s-69.167 38.5 -136.5 38.5h-82v144h1345v-580h-149l-10 221
c-4.66699 96 -23 155.833 -55 179.5s-97 35.5 -195 35.5h-252c-80.667 0 -134 -12.167 -160 -36.5s-39 -74.833 -39 -151.5v-303h133c70 0 118.667 9.83301 146 29.5s43 65.167 47 136.5l4 114h131v-686h-131l-4 96c-4 71.333 -19.667 116.833 -47 136.5s-76 29.5 -146 29.5
h-133v-364zM1548 0l-0.000976562 113c71.333 7.33301 117.833 23 139.5 47s32.5 76.333 32.5 157v469c0 81.333 -10.833 134 -32.5 158s-68.167 39.667 -139.5 47v123c8.66699 0 21.167 -0.333008 37.5 -1s28.5 -1 36.5 -1c44 0 89.833 1.66699 137.5 5
s98.167 8.66602 151.5 15.999v-256c56 97.333 106.667 165 152 203s95.666 57 151 57c55.333 0 100.5 -17.667 135.5 -53s52.5 -80.666 52.5 -135.999c0 -47.333 -12.167 -84.666 -36.5 -111.999s-57.833 -41 -100.5 -41c-37.333 0 -67.166 10.667 -89.5 32
c-22.333 21.333 -33.5 49.333 -33.5 84c0 19.333 3.16699 36.5 9.5 51.5s14.5 26.833 24.5 35.5c-3.33301 2.66699 -7.66602 5 -12.999 7s-11 3 -17 3c-50.667 0 -101.167 -51.833 -151.5 -155.5s-75.5 -221.834 -75.5 -354.501v-181c0 -86 13.333 -141 40 -165
s83.667 -37.333 171 -40v-112h-582z" />
    <glyph glyph-name="trademark" unicode="&#x2122;" horiz-adv-x="1683" 
d="M780 1442l191 0.00195312l137 -391l143 391h181v-25l-30 -2c-14 -1.33301 -24.5 -6.33301 -31.5 -15s-10.5 -21.334 -10.5 -38.001v-375c0 -16.667 3.5 -29.334 10.5 -38.001s17.5 -13.667 31.5 -15l30 -2v-29h-240v29l31 2c14 1.33301 24.667 6.5 32 15.5
s11 21.5 11 37.5v387l-172 -473h-21l-172 475v-389c0 -16 3.66699 -28.5 11 -37.5s18 -14.167 32 -15.5l33 -2v-29h-197v29l34 2c13.333 1.33301 23.666 6.5 30.999 15.5s11 21.5 11 37.5v371c0 16 -3.66699 28.5 -11 37.5s-17.666 14.167 -30.999 15.5l-34 4v27zM250 1442
h444.001l11 -182h-27c-5.33301 52 -18.833 90.167 -40.5 114.5s-53.167 36.5 -94.5 36.5h-17v-424c0 -16 3.5 -28.5 10.5 -37.5s17.167 -14.167 30.5 -15.5l33 -2v-29h-254v29l31 2c14 1.33301 24.667 6.5 32 15.5s11 21.5 11 37.5v424h-17
c-42.667 0 -74.834 -12 -96.501 -36s-35.167 -62.333 -40.5 -115h-26z" />
    <glyph glyph-name="partialdiff" unicode="&#x2202;" horiz-adv-x="1059" 
d="M756 621c10 58 17.502 114.164 22.502 168.497s7.5 106.5 7.5 156.5c0 86 -12.167 150.833 -36.5 194.5s-60.5 65.5 -108.5 65.5c-36.667 0 -79 -19.333 -127 -58s-84 -58 -108 -58s-44 7.33301 -60 22s-24 32.334 -24 53.001c0 41.333 24 78.333 72 111
s105.667 49 173 49c120 0 215.667 -51.667 287 -155s107 -242.666 107 -417.999c0 -223.333 -48.167 -408.666 -144.5 -555.999s-215.5 -221 -357.5 -221c-101.333 0 -185.833 36 -253.5 108s-101.5 162.333 -101.5 271c0 132 36.833 240.833 110.5 326.5
s164.5 128.5 272.5 128.5c67.333 0 122.666 -15.167 165.999 -45.5s77.666 -77.833 102.999 -142.5zM707.002 493.997c0 77.333 -14.5 136.833 -43.5 178.5s-69.833 62.5 -122.5 62.5c-72.667 0 -132.5 -43 -179.5 -129s-70.5 -198 -70.5 -336
c0 -77.333 14.333 -136.5 43 -177.5s69.667 -61.5 123 -61.5c72.667 0 132.5 43.333 179.5 130s70.5 197.667 70.5 333z" />
    <glyph glyph-name="Delta" unicode="&#x2206;" horiz-adv-x="1350" 
d="M602 1174l-389 -957h768zM666 1497h30l600 -1497h-1243z" />
    <glyph glyph-name="product" unicode="&#x220f;" horiz-adv-x="1630" 
d="M53 1473h1522v-74h-191v-1718h191v-74h-596v74h192v1718h-714v-1718h192v-74h-596v74h191v1718h-191v74z" />
    <glyph glyph-name="summation" unicode="&#x2211;" horiz-adv-x="1462" 
d="M16 1473h1162l110 -365h-78l-73 227c-7.33301 22.667 -21.166 39 -41.499 49s-53.166 15 -98.499 15h-690l809 -832v-37l-825 -735h887c40.667 0 67 4.33301 79 13s21.667 25.667 29 51l72 229h78l-148 -481h-1272v41l920 815l-920 956v54z" />
    <glyph glyph-name="minus" unicode="&#x2212;" horiz-adv-x="1706" 
d="M254 682h1198v-141h-1198v141z" />
    <glyph glyph-name="fraction" unicode="&#x2215;" horiz-adv-x="342" 
d="M-207 -47h-135l889 1554h135z" />
    <glyph glyph-name="periodcentered" unicode="&#x2219;" horiz-adv-x="573" 
d="M147 735c0 38 13.833 70.333 41.5 97s60.5 40 98.5 40s70.333 -13.167 97 -39.5s40 -58.833 40 -97.5s-13.333 -71.5 -40 -98.5s-59 -40.5 -97 -40.5s-70.833 13.667 -98.5 41s-41.5 60 -41.5 98z" />
    <glyph glyph-name="radical" unicode="&#x221a;" horiz-adv-x="1305" 
d="M1116 1661h189v-96h-115l-594 -1606h-66l-319 883l-125 -45l-25 80l283 98l256 -709z" />
    <glyph glyph-name="infinity" unicode="&#x221e;" horiz-adv-x="1706" 
d="M915 559c33.333 -59.333 72.166 -103.834 116.499 -133.501s94.5 -44.5 150.5 -44.5c67.333 0 122.333 22.5 165 67.5s64 102.5 64 172.5c0 67.333 -19.667 123.333 -59 168s-88.666 67 -147.999 67c-54 0 -102.833 -22.167 -146.5 -66.5
s-91.167 -121.166 -142.5 -230.499zM793 665.999c-32.667 58.667 -71.166 102.667 -115.499 132s-94.833 44 -151.5 44c-67.333 0 -122.333 -22.167 -165 -66.5s-64 -101.5 -64 -171.5c0 -67.333 19.667 -123.333 59 -168s88.666 -67 147.999 -67c54 0 102.833 22 146.5 66
s91.167 121 142.5 231zM864.001 482.999c-47.333 -90.667 -96.834 -157 -148.501 -199s-109.167 -63 -172.5 -63c-90 0 -166.167 37.333 -228.5 112s-93.5 167 -93.5 277c0 116.667 27.833 211 83.5 283s128.167 108 217.5 108c63.333 0 120 -20.5 170 -61.5
s100 -108.5 150 -202.5c45.333 92 94.333 159.833 147 203.5s111.334 65.5 176.001 65.5c88.667 0 164.5 -37.667 227.5 -113s94.5 -168.333 94.5 -279c0 -116 -27.833 -209.833 -83.5 -281.5s-128.167 -107.5 -217.5 -107.5c-63.333 0 -119.5 19.5 -168.5 58.5
s-100.167 105.5 -153.5 199.5z" />
    <glyph glyph-name="integral" unicode="&#x222b;" horiz-adv-x="1067" 
d="M311 -262c70.667 0 110.668 229.334 120.001 688.001l3 165c8 343.333 43.667 589 107 737s162.333 222 297 222c53.333 0 96.666 -14 129.999 -42s50 -63.667 50 -107c0 -36 -10.667 -64.5 -32 -85.5s-50.333 -31.5 -87 -31.5c-28 0 -51.333 6.33301 -70 19
s-32 30.667 -40 54c-4 10 -7.5 27 -10.5 51s-9.83301 36 -20.5 36c-71.333 0 -111.666 -206.333 -120.999 -619c-2.66699 -128.667 -5.33398 -229.667 -8.00098 -303c-11.333 -319.333 -48.5 -548 -111.5 -686s-159.833 -207 -290.5 -207
c-52.667 0 -95.834 13.833 -129.501 41.5s-50.5 63.167 -50.5 106.5c0 37.333 11.333 66.5 34 87.5s54.334 31.5 95.001 31.5c22 0 41 -4.83301 57 -14.5s29 -23.834 39 -42.501c6.66699 -12 11.667 -31.833 15 -59.5s11.333 -41.5 24 -41.5z" />
    <glyph glyph-name="approxequal" unicode="&#x2248;" horiz-adv-x="1706" 
d="M1530 586l0.00195312 -156c-70 -48.667 -136.5 -84.334 -199.5 -107.001s-126.167 -34 -189.5 -34s-158.333 22.5 -285 67.5s-224.334 67.5 -293.001 67.5c-54.667 0 -111.834 -12 -171.501 -36s-130.834 -64.667 -213.501 -122v156c72 48.667 140 85 204 109
s125 36 183 36c76.667 0 178.334 -22.833 305.001 -68.5s217.667 -68.5 273 -68.5c58.667 0 117.667 11.833 177 35.5s129.333 63.834 210 120.501zM1530 954l0.00195312 -155c-70 -48.667 -136.5 -84.5 -199.5 -107.5s-126.167 -34.5 -189.5 -34.5s-158.333 22.667 -285 68
s-224.334 68 -293.001 68c-55.333 0 -112.5 -12 -171.5 -36s-130.167 -64.667 -213.5 -122v156c70.667 48 138 83.833 202 107.5s125.667 35.5 185 35.5c77.333 0 179.166 -22.5 305.499 -67.5s217.166 -67.5 272.499 -67.5c58 0 116.333 11.5 175 34.5
s129.334 63.167 212.001 120.5z" />
    <glyph glyph-name="notequal" unicode="&#x2260;" horiz-adv-x="1706" 
d="M1208 1194l105 -82l-187 -235h326v-136h-416l-205 -262h621v-135h-709l-249 -317l-105 84l184 233h-319v135h408l204 262h-612v136h702z" />
    <glyph glyph-name="lessequal" unicode="&#x2264;" horiz-adv-x="1706" 
d="M262 162h1184v-139h-1184v139zM1444 1206v-147l-936 -309l936 -306v-149l-1182 395v121z" />
    <glyph glyph-name="greaterequal" unicode="&#x2265;" horiz-adv-x="1706" 
d="M262 162h1184v-139h-1184v139zM262 1206l1184 -395v-121l-1184 -395v149l938 306l-938 309v147z" />
    <glyph glyph-name="lozenge" unicode="&#x25ca;" horiz-adv-x="1012" 
d="M506 1409l-385 -817l385 -825l385 825zM506 1653l500 -1061l-500 -1069l-500 1069z" />
    <glyph glyph-name="apple" unicode="&#xf000;" horiz-adv-x="1618" 
d="M836 1216c-0.666992 4 -1.16699 8.66895 -1.5 14.002s-0.5 13 -0.5 23c0 82.667 31.667 159.167 95 229.5s142 114.166 236 131.499c0.666992 -6.66699 1.16699 -14.334 1.5 -23.001s0.5 -21.667 0.5 -39c0 -87.333 -34.5 -165.5 -103.5 -234.5
s-136.833 -103.5 -203.5 -103.5h-8c-2 0 -4.5 0.333008 -7.5 1s-5.83301 1 -8.5 1zM1505 403.002c-76 -164.667 -144.336 -278.834 -205.003 -342.501s-128.667 -95.5 -204 -95.5c-33.333 0 -77.166 11 -131.499 33s-95.166 33 -122.499 33c-30 0 -73.667 -11 -131 -33
s-99.666 -33 -126.999 -33c-42.667 0 -85.5 14.667 -128.5 44s-86.167 73.333 -129.5 132c-68 93.333 -120.5 191.833 -157.5 295.5s-55.5 203.834 -55.5 300.501c0 146 41.667 264.833 125 356.5s191 137.5 323 137.5c45.333 0 97 -11.333 155 -34s99.333 -34 124 -34
c22.667 0 63.167 11.667 121.5 35s109.166 35 152.499 35c73.333 0 139.333 -13.333 198 -40s112.334 -68 161.001 -124c-68 -43.333 -118.5 -91.833 -151.5 -145.5s-49.5 -114.5 -49.5 -182.5c0 -75.333 20 -142 60 -200s97.667 -104 173 -138z" />
    <glyph glyph-name="fi" unicode="&#xf001;" horiz-adv-x="1343" 
d="M422 317c0 -78.667 11.666 -130.833 34.999 -156.5s72.333 -41.834 147 -48.501v-112h-549v113c70 8 115.833 23.833 137.5 47.5s32.5 75.834 32.5 156.501v678h-170v123h168c0 147.333 38.667 255.5 116 324.5s198.333 103.5 363 103.5c120 0 213.167 -16.667 279.5 -50
s99.5 -79.333 99.5 -138c0 -36.667 -11 -64.334 -33 -83.001s-55.333 -28 -100 -28c-35.333 0 -63.666 8.83301 -84.999 26.5s-32 40.834 -32 69.501c0 6.66699 1.83301 15.667 5.5 27s5.5 19.666 5.5 24.999c0 17.333 -11.667 30.5 -35 39.5s-58.333 13.5 -105 13.5
c-94.667 0 -165 -27 -211 -81s-69 -137 -69 -249h717v-801c0 -79.333 10 -130.833 30 -154.5s63 -40.167 129 -49.5v-113h-538v113c73.333 6.66699 121.333 22 144 46s34 76.667 34 158v471c0 84.667 -13.333 140.334 -40 167.001s-72.667 40 -138 40h-338v-678z" />
    <glyph glyph-name="fl" unicode="&#xf002;" horiz-adv-x="1343" 
d="M422 1118l516 0.00195312v129c-32.667 1.33301 -58.667 10.666 -78 27.999s-29 40 -29 68c0 7.33301 1.83301 16.5 5.5 27.5s5.5 19.167 5.5 24.5c0 17.333 -11.333 30.5 -34 39.5s-57 13.5 -103 13.5c-96.667 0 -168 -26.833 -214 -80.5s-69 -136.834 -69 -249.501z
M422 317.002c0 -78.667 11.6641 -130.834 34.9971 -156.501s72.333 -41.834 147 -48.501v-112h-549v113c68.667 8 113.834 22.833 135.501 44.5s32.5 62.834 32.5 123.501v36v678h-168v123h168c3.33301 144.667 40.5 251.834 111.5 321.501s178.5 104.5 322.5 104.5
c30.667 0 77.334 -3.33301 140.001 -10s110.334 -10 143.001 -10c18.667 0 43 1.5 73 4.5s71.667 8.16699 125 15.5l1 -1227c0 -79.333 10 -130.833 30 -154.5s63 -40.167 129 -49.5v-113h-538v113c73.333 6.66699 121.333 22 144 46s34 76.667 34 158v678h-516v-678z" />
    <glyph glyph-name=".null" horiz-adv-x="0" 
 />
    <glyph glyph-name="nonmarkingreturn" horiz-adv-x="573" 
 />
    </font>
</defs>
</svg>
